<?xml version="1.0" encoding="UTF-8"?>
<svg version="1.1" xmlns="http://www.w3.org/2000/svg" width="1024" height="299">
<path d="M0 0 C1.19352585 -0.00525696 2.3870517 -0.01051392 3.616745 -0.01593018 C6.85233437 -0.02677765 10.08754798 -0.02436825 13.32313085 -0.01479292 C16.7319021 -0.00711987 20.14065083 -0.01426273 23.54942322 -0.01895142 C29.26932179 -0.02438623 34.98910359 -0.01727676 40.70898438 -0.00292969 C47.29493468 0.01340034 53.88060634 0.0080967 60.46654993 -0.0084089 C66.15186649 -0.02207969 71.8370998 -0.02391651 77.5224275 -0.0160929 C80.90463186 -0.01144793 84.28670579 -0.01070302 87.66890144 -0.02070236 C91.44221667 -0.02836558 95.21500501 -0.01664406 98.98828125 0 C100.08937225 -0.00607269 101.19046326 -0.01214539 102.32492065 -0.0184021 C114.60914086 0.0814102 126.44491736 3.15696089 135.69897461 11.56396484 C141.49586236 17.6749052 145.36028039 24.2297696 147.42944336 32.38818359 C144.16522646 33.38675731 141.37609843 33.43444691 137.97631836 33.26708984 C136.33083008 33.19458008 136.33083008 33.19458008 134.65209961 33.12060547 C133.50612305 33.06453125 132.36014648 33.00845703 131.17944336 32.95068359 C111.15549363 31.97243273 91.11940482 32.3854408 71.08178711 32.64208984 C70.12701351 32.65426859 69.17223991 32.66644733 68.18853378 32.67899513 C59.2045713 32.79397346 50.2206292 32.91018926 41.23681641 33.03637695 C36.27495588 33.10587861 31.31305077 33.17009395 26.35107613 33.23087883 C24.47843367 33.25482492 22.60581523 33.28073848 20.73322868 33.30871773 C18.12931859 33.34744651 15.52540461 33.37943128 12.92138672 33.40991211 C11.78139725 33.42933113 11.78139725 33.42933113 10.61837769 33.44914246 C6.12044361 33.4934028 1.88529324 33.09853396 -2.57055664 32.38818359 C-8.88878468 32.34179425 -13.67915913 33.09329797 -18.57055664 37.38818359 C-21.68390531 41.68245762 -22.69487142 45.45846167 -22.69754028 50.69873047 C-22.70177002 51.98095238 -22.70177002 51.98095238 -22.70608521 53.28907776 C-22.70406097 54.21897018 -22.70203674 55.14886261 -22.69995117 56.10693359 C-22.70170349 57.09285995 -22.70345581 58.07878632 -22.70526123 59.09458923 C-22.70966728 62.35913853 -22.7067443 65.62363373 -22.70336914 68.88818359 C-22.70404297 71.16300466 -22.70501365 73.43782566 -22.70626831 75.71264648 C-22.70774395 80.4874744 -22.70559659 85.26228363 -22.70092773 90.03710938 C-22.69525643 96.13184108 -22.69849375 102.2265285 -22.7045002 108.32125854 C-22.70813157 113.02439704 -22.70695498 117.72752523 -22.70437241 122.43066406 C-22.7037089 124.67594406 -22.70451125 126.92122503 -22.70685196 129.16650391 C-24.10925327 149.80074986 -24.10925327 149.80074986 -17.57055664 168.38818359 C-7.34302015 175.77339135 12.19140486 172.56965213 24.35522461 172.59130859 C25.43440847 172.59413597 26.51359234 172.59696335 27.62547874 172.5998764 C33.32226167 172.61476372 39.0190199 172.62406256 44.71582031 172.62841797 C50.57747689 172.63392752 56.43890414 172.6580376 62.30048847 172.68638992 C66.83449469 172.70504143 71.36844547 172.71022296 75.9024868 172.71175385 C78.06373554 172.71476862 80.22498358 172.72275714 82.38619423 172.73593903 C85.4077062 172.75307335 88.42865393 172.75110267 91.45019531 172.74462891 C92.77127792 172.75845108 92.77127792 172.75845108 94.11904907 172.77255249 C100.3094402 172.73119322 107.44649913 172.27162825 112.11311817 167.76066971 C117.54914905 161.06028541 116.48875117 152.67917862 116.26928711 144.49755859 C116.31277014 143.12741684 116.36702057 141.75759318 116.42944336 140.38818359 C116.42473022 139.17328247 116.42473022 139.17328247 116.41992188 137.93383789 C117.16646158 127.79958453 124.52868694 122.25589739 131.49194336 115.70068359 C132.72897768 114.50027573 133.96402455 113.2978162 135.19702148 112.09326172 C144.16751654 103.38818359 144.16751654 103.38818359 145.42944336 103.38818359 C146.06022016 117.36592906 146.53173321 131.33244362 146.55444336 145.32568359 C146.56121094 147.01806152 146.56121094 147.01806152 146.56811523 148.74462891 C146.53862989 165.33013648 145.46517914 179.24073276 133.32397461 191.51708984 C121.41721674 202.64509247 108.6760984 204.53259101 92.87963867 204.54931641 C91.74682465 204.55428131 90.61401062 204.55924622 89.4468689 204.56436157 C85.71709576 204.57890918 81.98736515 204.58577256 78.25756836 204.59130859 C75.65216064 204.59706577 73.04675293 204.60282343 70.44134521 204.60858154 C65.68024716 204.61813164 60.91915818 204.62404158 56.15805173 204.62707829 C49.18182414 204.63155432 42.20579292 204.64909264 35.22962499 204.67807889 C29.15771834 204.70241952 23.08589192 204.71002829 17.0139389 204.71175385 C14.444882 204.71476861 11.87582569 204.72275708 9.30680084 204.73593903 C5.703327 204.75311053 2.10032501 204.7510921 -1.50317383 204.74462891 C-2.5508493 204.75384369 -3.59852478 204.76305847 -4.677948 204.77255249 C-18.5432563 204.69516459 -30.43428964 200.82803981 -40.71899414 191.40380859 C-50.97874997 180.23496048 -52.72186268 167.17517625 -52.71582031 152.67651367 C-52.71917892 151.51458496 -52.72253754 150.35265625 -52.72599792 149.15551758 C-52.73547884 145.32290572 -52.73744972 141.4903377 -52.73852539 137.65771484 C-52.74092715 135.66001665 -52.74333082 133.66231845 -52.74598581 131.66462058 C-52.75411261 125.38391375 -52.75657175 119.10322125 -52.75585938 112.82250977 C-52.7552597 106.37136859 -52.76579365 99.92031134 -52.78160304 93.46919137 C-52.79473952 87.90797055 -52.80004069 82.34677695 -52.79940397 76.78554076 C-52.79915067 73.47422429 -52.80284727 70.16299853 -52.81258202 66.85169411 C-52.82244415 63.1500019 -52.81947909 59.44852223 -52.81347656 55.74682617 C-52.81909607 54.66952744 -52.82471558 53.5922287 -52.83050537 52.48228455 C-52.76673487 36.90651214 -49.83618041 23.80759365 -38.68774414 12.47412109 C-27.69282891 2.34155216 -14.6336074 -0.08085533 0 0 Z " fill="#275FCF" transform="translate(136.570556640625,37.61181640625)"/>
<path d="M0 0 C9.57 0 19.14 0 29 0 C29.495 36.63 29.495 36.63 30 74 C35.92246385 67.34306972 35.92246385 67.34306972 41.625 60.5 C42.3159375 59.68660156 43.006875 58.87320313 43.71875 58.03515625 C45.58572881 55.55117931 46.87863779 53.35583807 48.28125 50.62109375 C51.38954084 45.2165728 54.33278945 40.89358537 60 38 C72.13630445 35.05777826 85.63926592 36.32643331 98 37 C98 39 98 39 95.796875 41.3359375 C94.87390625 42.21507812 93.9509375 43.09421875 93 44 C86.94087379 49.87855623 81.36209649 55.87148471 76.08984375 62.46875 C73.78057561 65.2657701 71.31398954 67.78149604 68.70703125 70.296875 C65.62697222 73.36988584 62.82520731 76.69390634 60 80 C61.3059874 83.51112827 62.84703955 86.55409497 64.87109375 89.703125 C65.72441284 91.03730469 65.72441284 91.03730469 66.5949707 92.3984375 C67.20300537 93.33945313 67.81104004 94.28046875 68.4375 95.25 C69.06422607 96.22710937 69.69095215 97.20421875 70.33666992 98.2109375 C72.21967727 101.14372922 74.10877549 104.07250197 76 107 C76.52432617 107.81275391 77.04865234 108.62550781 77.58886719 109.46289062 C79.43891739 112.32979053 81.2895238 115.19625812 83.15039062 118.05615234 C85.30802714 121.37219207 87.44472749 124.6982358 89.5390625 128.0546875 C89.94406982 128.69921875 90.34907715 129.34375 90.76635742 130.0078125 C91.85865261 131.74929126 92.94330018 133.49556029 94.02734375 135.2421875 C95.87713622 137.828234 97.44539771 139.19280249 100 141 C94.84078257 141.22320235 89.68439491 141.38610225 84.52148438 141.49438477 C82.76740561 141.53953126 81.01366349 141.60086921 79.26074219 141.67895508 C64.77453488 142.30789654 64.77453488 142.30789654 60.68359375 139.29272461 C59.09015534 136.92972787 58.05659 134.64347139 57 132 C56.05179602 130.37918725 55.07751545 128.77335583 54.078125 127.18359375 C52.64184553 124.77990291 51.21201901 122.37289159 49.79296875 119.95898438 C49.33019531 119.18748047 48.86742187 118.41597656 48.390625 117.62109375 C47.97844727 116.9242749 47.56626953 116.22745605 47.14160156 115.50952148 C46.76487305 115.01137939 46.38814453 114.5132373 46 114 C45.34 114 44.68 114 44 114 C43.89558594 113.28457031 43.79117188 112.56914062 43.68359375 111.83203125 C42.92477733 108.68836323 41.73506294 106.44784227 40.0625 103.6875 C39.27552734 102.36298828 39.27552734 102.36298828 38.47265625 101.01171875 C37.74369141 100.01591797 37.74369141 100.01591797 37 99 C34.64523562 98.76946631 34.64523562 98.76946631 32.41918945 101.47119141 C29.36088141 105.31164185 29.26814689 108.68617769 29.29296875 113.4609375 C29.27784744 114.25150543 29.26272614 115.04207336 29.24714661 115.8565979 C29.20441654 118.36302539 29.19544648 120.86824524 29.1875 123.375 C29.16434405 125.08206303 29.13897642 126.78909757 29.11132812 128.49609375 C29.04862175 132.66416855 29.01617174 136.83149543 29 141 C24.90658501 141.02469575 20.81319879 141.04285793 16.71972656 141.05493164 C15.32681523 141.0599643 13.9339092 141.06679098 12.54101562 141.07543945 C10.54038754 141.08755152 8.53972112 141.09270412 6.5390625 141.09765625 C5.33459473 141.10289307 4.13012695 141.10812988 2.88916016 141.11352539 C0 141 0 141 -2 140 C-2 139.34 -2 138.68 -2 138 C-1.34 138 -0.68 138 0 138 C-0.33 137.01 -0.66 136.02 -1 135 C-0.91500789 133.36323866 -0.76253634 131.7295448 -0.56959534 130.10197449 C0.06933753 123.84203971 0.13371181 117.65656296 0.11352539 111.3684082 C0.11367142 110.15735916 0.11381744 108.94631012 0.1139679 107.69856262 C0.11339523 104.41417728 0.10841906 101.12983591 0.10139394 97.84545922 C0.09509472 94.39951285 0.09455145 90.95356538 0.09336853 87.50761414 C0.09027443 80.99851752 0.08208721 74.48943793 0.07201904 67.98034877 C0.06079789 60.56306667 0.0553324 53.14578372 0.05032361 45.72849524 C0.03990277 30.48565199 0.02158148 15.24283216 0 0 Z " fill="#FCFCFC" transform="translate(636,74)"/>
<path d="M0 0 C11.93562769 9.34252522 19.52488725 20.77205091 21.53515625 35.984375 C22.58103187 52.41669006 19.1559492 67.39482109 8.47265625 80.234375 C-1.81697829 90.93697146 -15.05889618 96.81894035 -29.84277344 97.45239258 C-45.50643272 97.68171079 -58.74847498 92.19277693 -70.10546875 81.48828125 C-80.44126727 70.51932951 -83.7688641 57.92232054 -83.90234375 43.234375 C-83.91257568 42.37150879 -83.92280762 41.50864258 -83.93334961 40.61962891 C-83.73171442 25.85090882 -76.85050829 13.10047456 -66.6015625 2.7265625 C-48.99014558 -13.65064632 -19.06493991 -13.14048878 0 0 Z M-49.1171875 23.33203125 C-55.69448952 31.39637546 -56.85739986 39.71546911 -55.97265625 49.75390625 C-55.28772021 54.11115318 -53.8879572 57.33667734 -51.46484375 60.984375 C-50.59859375 62.345625 -50.59859375 62.345625 -49.71484375 63.734375 C-44.4747387 68.97448005 -38.50379163 70.68074038 -31.19921875 71.07421875 C-23.92405146 70.83517754 -18.42040733 68.05295388 -13.1953125 63.046875 C-7.58978207 56.36579133 -6.80464392 48.89182994 -7.08203125 40.39453125 C-7.78905387 34.09625828 -9.43795631 28.37917695 -14.33984375 24.109375 C-15.37109375 23.408125 -16.40234375 22.706875 -17.46484375 21.984375 C-18.49609375 21.241875 -19.52734375 20.499375 -20.58984375 19.734375 C-29.35972883 14.39618408 -41.59918072 16.44227017 -49.1171875 23.33203125 Z " fill="#FBFBFB" transform="translate(814.46484375,120.015625)"/>
<path d="M0 0 C0.69351563 0.48984375 1.38703125 0.9796875 2.1015625 1.484375 C3.1328125 2.20625 4.1640625 2.928125 5.2265625 3.671875 C15.86731688 13.10345275 21.21995782 26.37924934 22.32421875 40.2890625 C22.79717745 55.79388246 18.30599376 69.23175112 8.40234375 81.09375 C2.15828331 87.58163623 -5.38791091 92.53901972 -13.8984375 95.484375 C-14.53394531 95.70867187 -15.16945313 95.93296875 -15.82421875 96.1640625 C-29.20908589 99.95860736 -44.65748324 98.29991185 -56.859375 91.94140625 C-69.35915072 84.4586638 -78.2823706 73.68538928 -82.41015625 59.5546875 C-85.92950482 44.63264957 -83.82172637 30.07317071 -76.8984375 16.484375 C-68.96668567 3.81785294 -57.56866816 -4.65188321 -43.05810547 -8.11645508 C-28.21363704 -10.86014781 -12.62427121 -8.30652373 0 0 Z M-51.23828125 26.203125 C-56.90424458 34.48035839 -57.70452407 42.72854674 -55.8984375 52.484375 C-55.13178124 55.08801932 -54.18928902 57.0460999 -52.8984375 59.484375 C-52.3621875 60.515625 -51.8259375 61.546875 -51.2734375 62.609375 C-46.91902899 67.88050109 -40.66336567 71.01061541 -33.85546875 71.6875 C-26.8953973 71.83963271 -21.10715113 70.45335836 -15.1484375 66.796875 C-8.05271491 59.504049 -6.55938348 52.60792449 -6.51342773 42.70166016 C-6.66575176 35.4345692 -8.71003014 30.19495329 -13.47265625 24.65234375 C-18.57031518 19.76857261 -24.88341394 17.44408785 -31.8984375 17.109375 C-39.47512043 17.44208363 -46.51352234 20.14220978 -51.23828125 26.203125 Z " fill="#FBFBFB" transform="translate(924.8984375,119.515625)"/>
<path d="M0 0 C0.83192871 0.00491455 1.66385742 0.0098291 2.52099609 0.01489258 C15.02606043 0.25131759 26.44290647 3.60586412 35.75 12.3125 C35.75 12.9725 35.75 13.6325 35.75 14.3125 C36.41 14.3125 37.07 14.3125 37.75 14.3125 C38.717407 15.99481469 39.67347446 17.68365197 40.625 19.375 C41.15867187 20.31472656 41.69234375 21.25445312 42.2421875 22.22265625 C46.09441918 30.11673724 46.07140155 37.34432342 46.12890625 46.0234375 C46.14511511 47.3595192 46.16229855 48.69558939 46.18040466 50.03164673 C46.22588515 53.53632221 46.26077963 57.04101422 46.29260254 60.5458374 C46.34463833 66.14670852 46.41030083 71.74740683 46.48081779 77.34807205 C46.50336486 79.28932497 46.51952983 81.2306487 46.53553772 83.17196655 C46.17278359 94.02248514 46.17278359 94.02248514 48.75 104.3125 C39.18 104.3125 29.61 104.3125 19.75 104.3125 C19.75 101.6725 19.75 99.0325 19.75 96.3125 C19.42 95.3225 19.09 94.3325 18.75 93.3125 C18.0075 94.075625 17.265 94.83875 16.5 95.625 C10.68023256 101.3125 10.68023256 101.3125 7.75 101.3125 C7.255 102.7975 7.255 102.7975 6.75 104.3125 C5.43 104.3125 4.11 104.3125 2.75 104.3125 C0.74752628 104.67405775 -1.25225222 105.05068119 -3.25 105.4375 C-13.71139728 107.06586979 -23.41870171 105.32757838 -32.25 99.3125 C-38.87797651 93.60048186 -42.66006561 86.60366413 -43.62890625 77.9140625 C-43.93257411 68.88239256 -42.31923978 62.07511345 -37.4375 54.5 C-25.89366338 42.95616338 -10.31218385 42.26581054 5.1875 41.75 C6.39599609 41.70681641 7.60449219 41.66363281 8.84960938 41.61914062 C11.81630606 41.51360596 14.78307902 41.41149286 17.75 41.3125 C17.45982202 39.87103147 17.1613369 38.43123364 16.859375 36.9921875 C16.69405273 36.19022949 16.52873047 35.38827148 16.35839844 34.56201172 C15.18983365 30.24132314 12.77938905 28.05880706 9.25 25.5 C3.01294539 23.38385647 -3.37842781 23.47713355 -9.6875 25.3125 C-12.35462421 27.39415792 -12.85003528 28.45303595 -14.25 31.40234375 C-15.84554871 34.02045243 -16.57732076 35.11758035 -19.55688477 35.98095703 C-22.34639791 36.13761026 -25.02498466 36.06007118 -27.8125 35.875 C-28.75802734 35.84728516 -29.70355469 35.81957031 -30.67773438 35.79101562 C-34.67937712 35.64678681 -38.38297528 35.39633353 -42.25 34.3125 C-41.72807965 24.91793365 -37.78838267 17.0250241 -31.3984375 10.1328125 C-22.47070502 2.56858825 -11.41424371 -0.08012033 0 0 Z M-14.25 66.0625 C-15.76720383 69.47620862 -15.89096311 72.68997813 -15.25 76.3125 C-13.40100105 79.58380584 -11.94019667 80.95096841 -8.625 82.6875 C-2.70740911 83.78335016 3.15616762 83.44620838 8.5625 80.625 C12.86491542 77.50363979 16.02929682 74.47460955 17.75 69.3125 C17.81740865 67.75131572 17.83514456 66.1874748 17.8125 64.625 C17.80347656 63.81675781 17.79445313 63.00851563 17.78515625 62.17578125 C17.77355469 61.56089844 17.76195312 60.94601563 17.75 60.3125 C6.95918076 58.09899862 -5.68599374 58.56899453 -14.25 66.0625 Z " fill="#FBFBFB" transform="translate(478.25,110.6875)"/>
<path d="M0 0 C37.95 0 75.9 0 115 0 C115 5.94 115 11.88 115 18 C115.495 21.96 115.495 21.96 116 26 C115.34 26 114.68 26 114 26 C113.505 27.485 113.505 27.485 113 29 C113 28.34 113 27.68 113 27 C98.15 27 83.3 27 68 27 C68.33 34.26 68.66 41.52 69 49 C69.12738664 61.27897628 69.12738664 61.27897628 69.11329651 65.51937866 C69.11079958 66.45813213 69.10830265 67.3968856 69.10573006 68.36408615 C69.10173352 69.80421507 69.10173352 69.80421507 69.09765625 71.2734375 C69.09578378 73.30465662 69.09436381 75.33587621 69.09336853 77.36709595 C69.0896085 82.63085244 69.0798366 87.89457992 69.06866455 93.1583252 C69.05830765 98.56257739 69.0538408 103.96683442 69.04882812 109.37109375 C69.03820622 119.91407709 69.02066501 130.45703156 69 141 C59.1 141 49.2 141 39 141 C39 103.38 39 65.76 39 27 C26.13 27 13.26 27 0 27 C-4.02492236 18.95015528 -0.35971235 8.99280863 0 0 Z " fill="#FDFDFD" transform="translate(340,74)"/>
<path d="M0 0 C6.46014805 5.88792049 9.87355856 12.6878471 10.40234375 21.37890625 C10.3125 23.3125 10.3125 23.3125 9.3125 24.3125 C7.45880389 24.39987645 5.60182459 24.41948153 3.74609375 24.41015625 C2.62138672 24.40693359 1.49667969 24.40371094 0.33789062 24.40039062 C-0.84611328 24.39201172 -2.03011719 24.38363281 -3.25 24.375 C-4.43787109 24.37048828 -5.62574219 24.36597656 -6.84960938 24.36132812 C-9.79562226 24.34949675 -12.74153681 24.33301287 -15.6875 24.3125 C-16.15414062 23.35859375 -16.62078125 22.4046875 -17.1015625 21.421875 C-19.54958904 16.62229588 -21.61586031 15.03886323 -26.6875 13.3125 C-33.44783655 12.60330938 -39.88845268 12.53051262 -45.6875 16.3125 C-47.32228935 19.21447138 -47.32228935 19.21447138 -47.6875 22.3125 C-46.97160956 25.62685141 -46.97160956 25.62685141 -43.56518555 26.9128418 C-39.98545179 28.31253757 -36.44003773 29.07491965 -32.64453125 29.70703125 C-31.30914291 29.94278299 -29.97385964 30.17913054 -28.63867188 30.41601562 C-26.57789088 30.77202852 -24.5165481 31.12228244 -22.45288086 31.46118164 C-11.03169885 33.35808265 0.59935588 35.97624909 8.2265625 45.40625 C12.61327332 53.10666324 12.55535001 62.75316491 10.66015625 71.23046875 C7.73900895 79.31690657 2.20394779 85.94595841 -5.2734375 90.21875 C-20.80051709 97.25367279 -37.34859526 97.91799893 -53.4375 92.5625 C-63.40601109 88.60697162 -70.71370214 82.82170521 -75.78515625 73.23828125 C-77.93904785 68.13906811 -77.6875 65.44123654 -77.6875 59.3125 C-68.7775 59.3125 -59.8675 59.3125 -50.6875 59.3125 C-49.6975 62.2825 -48.7075 65.2525 -47.6875 68.3125 C-45.47924051 69.91269461 -45.47924051 69.91269461 -42.6875 70.3125 C-41.016875 70.869375 -41.016875 70.869375 -39.3125 71.4375 C-32.3495729 73.11820654 -26.11746747 72.4947446 -19.6875 69.3125 C-17.21083918 65.59750878 -17.13863486 63.70342112 -17.6875 59.3125 C-21.4807078 56.35060674 -25.30373155 55.57234617 -29.97265625 54.69921875 C-31.40568055 54.41773276 -32.83862056 54.13581742 -34.27148438 53.85351562 C-36.49908942 53.42611354 -38.72746273 53.00417449 -40.95776367 52.59106445 C-63.53798747 48.36718991 -63.53798747 48.36718991 -70.75 40.375 C-75.46338229 32.92481508 -77.63761278 25.62654538 -76.125 16.875 C-73.29513007 6.20713507 -66.81228293 -0.25707942 -57.68359375 -5.93359375 C-40.05156309 -15.65792581 -15.44054954 -11.90839769 0 0 Z " fill="#FBFBFB" transform="translate(612.6875,121.6875)"/>
<path d="M0 0 C3.59888253 3.01301794 5.14952518 5.55922198 6.5625 10 C6.77562911 15.54135699 5.30568102 20.172039 1.87792969 24.57373047 C-0.30522656 26.90239713 -2.55731357 29.11791061 -4.875 31.3125 C-5.65552734 32.08271484 -6.43605469 32.85292969 -7.24023438 33.64648438 C-13.00285603 39.25 -13.00285603 39.25 -15.3125 39.25 C-15.580625 39.889375 -15.84875 40.52875 -16.125 41.1875 C-17.3125 43.25 -17.3125 43.25 -20.3125 44.25 C-20.3125 44.91 -20.3125 45.57 -20.3125 46.25 C-21.72068787 47.63571167 -21.72068787 47.63571167 -23.70483398 49.26904297 C-28.75551387 53.5670842 -33.37930491 58.22722309 -38.03515625 62.9453125 C-39.41706958 64.33663655 -40.79898899 65.72795461 -42.1812582 67.11892509 C-45.55196488 70.51238047 -48.91708792 73.91135631 -52.27954102 77.31298828 C-54.17865545 79.23380486 -56.08049164 81.15185271 -57.98521423 83.06710815 C-59.76813878 84.86029887 -61.54697318 86.6575686 -63.32106018 88.45950317 C-75.71302299 100.90286966 -75.71302299 100.90286966 -83.625 101.5 C-92.46224946 100.90086444 -99.17631137 93.9566974 -104.78515625 87.57421875 C-105.16542969 87.09597656 -105.54570312 86.61773437 -105.9375 86.125 C-108.45612925 83.07613302 -111.1800467 80.68316006 -114.17578125 78.12109375 C-117.71684431 75.02023597 -121.23198799 71.81389023 -124.3125 68.25 C-124.3125 67.59 -124.3125 66.93 -124.3125 66.25 C-124.869375 66.04375 -125.42625 65.8375 -126 65.625 C-128.59673179 64.08099731 -130.15513911 62.19258658 -132.01171875 59.8359375 C-133.47442017 57.99342957 -133.47442017 57.99342957 -136.0625 55.5625 C-139.81129786 51.70956887 -139.64633476 47.87677393 -139.6015625 42.7578125 C-139.18153722 39.11380941 -137.6620688 37.00235202 -135.3125 34.25 C-134.631875 33.38375 -134.631875 33.38375 -133.9375 32.5 C-130.28440308 29.68992544 -126.44703109 29.02422387 -121.9375 29.1875 C-111.66492886 30.86673491 -102.90625952 43.54240662 -95.8125 50.6875 C-94.59658886 51.9084369 -93.38044484 53.12914192 -92.1640625 54.34960938 C-89.21085034 57.31374013 -86.26080602 60.28098958 -83.3125 63.25 C-77.15574154 58.20872703 -71.59119306 52.63250015 -66.00152779 46.98362732 C-64.28352507 45.24803211 -62.56183005 43.51617673 -60.83909607 41.78527832 C-55.94592057 36.86782575 -51.05846732 31.94471544 -46.17553711 27.01708984 C-43.17621496 23.9908317 -40.17191337 20.96958938 -37.16459465 17.95127869 C-36.02771342 16.80823516 -34.89272663 15.66330386 -33.75976753 14.51637268 C-12.75935864 -6.74079324 -12.75935864 -6.74079324 0 0 Z " fill="#275FD0" transform="translate(278.3125,94.75)"/>
<path d="M0 0 C37.62 0 75.24 0 114 0 C114 4.62 114 9.24 114 14 C113.67 14 113.34 14 113 14 C113 9.71 113 5.42 113 1 C76.04 1 39.08 1 1 1 C1 8.92 1 16.84 1 25 C20.305 25.495 20.305 25.495 40 26 C40 63.62 40 101.24 40 140 C48.91 140 57.82 140 67 140 C67 102.38 67 64.76 67 26 C67.33 26 67.66 26 68 26 C68.77768052 41.13459764 69.13982527 56.21788937 69.09765625 71.37109375 C69.09578337 73.40088363 69.0943636 75.43067398 69.09336853 77.46046448 C69.0896117 82.71598636 69.07984285 87.97147911 69.06866455 93.22698975 C69.05830046 98.62462978 69.05383931 104.02227468 69.04882812 109.41992188 C69.03821192 119.94662923 69.02067363 130.47330759 69 141 C59.1 141 49.2 141 39 141 C39 103.38 39 65.76 39 27 C26.13 27 13.26 27 0 27 C-4.02492236 18.95015528 -0.35971235 8.99280863 0 0 Z " fill="#D7D7D9" transform="translate(340,74)"/>
<path d="M0 0 C8.62245882 2.78961903 13.57795935 9.42893039 18 17 C19.23689064 19.95285864 20.21330477 22.89817311 21 26 C17.7357831 26.99857371 14.94665507 27.04626331 11.546875 26.87890625 C9.90138672 26.80639648 9.90138672 26.80639648 8.22265625 26.73242188 C7.07667969 26.67634766 5.93070313 26.62027344 4.75 26.5625 C-14.23365152 25.63507191 -33.21670569 25.97014329 -52.21294785 26.24752235 C-55.08003454 26.2892609 -57.94713402 26.32998099 -60.8142395 26.3704071 C-62.76222745 26.39797482 -64.71021532 26.42554749 -66.65820312 26.453125 C-67.63322721 26.46687573 -68.6082513 26.48062647 -69.61282158 26.49479389 C-74.6050143 26.56588717 -79.59709498 26.64103074 -84.58911133 26.72363281 C-89.49908531 26.80458299 -94.40911328 26.87458976 -99.31934929 26.93757248 C-101.16308375 26.96315916 -103.00676965 26.99259476 -104.85037422 27.02626419 C-115.78416507 27.22383545 -126.20032179 26.83290237 -137 25 C-137 24.67 -137 24.34 -137 24 C-100.28942935 23.10964494 -63.59526957 22.90898771 -26.875 22.9375 C-25.20961119 22.93878403 -25.20961119 22.93878403 -23.51057816 22.94009399 C-9.67370286 22.95154903 4.16314924 22.97171808 18 23 C17.23138071 21.41172178 16.45676249 19.82634588 15.6796875 18.2421875 C15.24897949 17.35901855 14.81827148 16.47584961 14.37451172 15.56591797 C10.87654701 9.03596965 6.56341831 5.28170916 0 2 C0 1.34 0 0.68 0 0 Z " fill="#2458CA" transform="translate(263,44)"/>
<path d="M0 0 C1.78897453 -0.00744736 1.78897453 -0.00744736 3.61408997 -0.01504517 C6.87470567 -0.02711716 10.13528559 -0.03460251 13.39591956 -0.03905582 C15.43798388 -0.04199675 17.48004272 -0.04610347 19.52210426 -0.05056 C25.9256003 -0.06422013 32.32908365 -0.0738936 38.73259324 -0.07776189 C46.09767994 -0.08223682 53.46258052 -0.09976458 60.82761067 -0.12876248 C66.5382635 -0.15045779 72.24886427 -0.16047036 77.95955783 -0.16180301 C81.36199899 -0.16284559 84.76426485 -0.16863545 88.16666222 -0.18662262 C91.96932271 -0.20376155 95.77153484 -0.20178331 99.57421875 -0.1953125 C101.23999466 -0.20913467 101.23999466 -0.20913467 102.93942261 -0.22323608 C111.22199022 -0.17929758 118.29738069 1.55672781 126.1105957 4.16113281 C126.1105957 4.82113281 126.1105957 5.48113281 126.1105957 6.16113281 C125.22998978 5.83712494 124.34938385 5.51311707 123.4420929 5.17929077 C117.677818 3.54803672 111.74974612 3.8662945 105.80664062 3.87060547 C104.4622409 3.86461358 103.1178446 3.85780652 101.77345276 3.85025024 C98.1369296 3.83264991 94.50050069 3.82789739 90.86393905 3.82661867 C88.58752394 3.8251931 86.31113249 3.82091582 84.03472328 3.81562424 C76.08042516 3.79714352 68.12619388 3.78895114 60.171875 3.79052734 C52.77766524 3.79172813 45.38374766 3.77063322 37.9896118 3.73904002 C31.62417272 3.71281923 25.25882874 3.70216247 18.89333612 3.70343816 C15.09911166 3.70394611 11.30514706 3.6983565 7.51097679 3.67708206 C3.93949505 3.65760134 0.36851846 3.65764135 -3.20298195 3.67211533 C-5.12378028 3.67517588 -7.0445792 3.65859591 -8.96530151 3.64123535 C-15.71646358 3.6898584 -20.87933889 4.44208071 -26.98795605 7.40086937 C-27.92917293 7.77719977 -27.92917293 7.77719977 -28.8894043 8.16113281 C-29.5494043 7.83113281 -30.2094043 7.50113281 -30.8894043 7.16113281 C-22.71698697 -0.30063953 -10.34222675 0.01031657 0 0 Z " fill="#2350B1" transform="translate(135.889404296875,37.8388671875)"/>
<path d="M0 0 C0.66 0 1.32 0 2 0 C2 46.2 2 92.4 2 140 C10.25 140 18.5 140 27 140 C26.95359375 137.50824219 26.9071875 135.01648438 26.859375 132.44921875 C26.82818235 130.03656044 26.80389305 127.62392456 26.78027344 125.21118164 C26.76015435 123.53399608 26.73285549 121.85688069 26.69824219 120.17993164 C26.64973431 117.769518 26.62703536 115.36003128 26.609375 112.94921875 C26.58872986 112.19912033 26.56808472 111.44902191 26.54681396 110.67619324 C26.54589844 108.5534668 26.54589844 108.5534668 27 105 C29.02441406 103.00317383 29.02441406 103.00317383 31 102 C30.505 103.485 30.505 103.485 30 105 C29.84629652 107.72883073 29.74271735 110.43697142 29.68359375 113.16796875 C29.66281265 113.96278152 29.64203156 114.7575943 29.62062073 115.57649231 C29.55527913 118.11340763 29.49631192 120.65042573 29.4375 123.1875 C29.39430014 124.90821372 29.35068537 126.62891708 29.30664062 128.34960938 C29.19961352 132.56630113 29.09830276 136.7830962 29 141 C24.90658501 141.02469575 20.81319879 141.04285793 16.71972656 141.05493164 C15.32681523 141.0599643 13.9339092 141.06679098 12.54101562 141.07543945 C10.54038754 141.08755152 8.53972112 141.09270412 6.5390625 141.09765625 C5.33459473 141.10289307 4.13012695 141.10812988 2.88916016 141.11352539 C0 141 0 141 -2 140 C-2 139.34 -2 138.68 -2 138 C-1.34 138 -0.68 138 0 138 C-0.33 137.01 -0.66 136.02 -1 135 C-0.91500789 133.36323866 -0.76253634 131.7295448 -0.56959534 130.10197449 C0.06933753 123.84203971 0.13371181 117.65656296 0.11352539 111.3684082 C0.11367142 110.15735916 0.11381744 108.94631012 0.1139679 107.69856262 C0.11339523 104.41417728 0.10841906 101.12983591 0.10139394 97.84545922 C0.09509472 94.39951285 0.09455145 90.95356538 0.09336853 87.50761414 C0.09027443 80.99851752 0.08208721 74.48943793 0.07201904 67.98034877 C0.06079789 60.56306667 0.0553324 53.14578372 0.05032361 45.72849524 C0.03990277 30.48565367 0.02234094 15.24282904 0 0 Z " fill="#E3E3E4" transform="translate(636,74)"/>
<path d="M0 0 C0.33 0 0.66 0 1 0 C1.17590021 8.29148924 1.34097788 16.58317042 1.5 24.875 C1.52400879 26.12430298 1.54801758 27.37360596 1.57275391 28.6607666 C1.95693793 49.11072541 2.08750352 69.55031563 1.96289062 90.00341797 C0.74408357 108.4878412 0.74408357 108.4878412 7 125 C9.27565365 126.63593127 11.45602377 127.77693451 14 129 C13.01 129.33 12.02 129.66 11 130 C4.02221287 126.06706544 1.47809259 121.43427778 -1 114 C-1.09099945 112.49886909 -1.12627773 110.994014 -1.12698364 109.49012756 C-1.12980347 108.56622726 -1.13262329 107.64232697 -1.13552856 106.69042969 C-1.13350433 105.67891846 -1.1314801 104.66740723 -1.12939453 103.62524414 C-1.13114685 102.55833847 -1.13289917 101.4914328 -1.13470459 100.39219666 C-1.13911489 96.8565001 -1.13618776 93.32085334 -1.1328125 89.78515625 C-1.13348582 87.33279918 -1.13445609 84.88044217 -1.13571167 82.42808533 C-1.13718757 77.28416306 -1.13503771 72.14025814 -1.13037109 66.99633789 C-1.12467688 60.39745991 -1.12795156 53.79862262 -1.13394356 47.19974613 C-1.13755462 42.13406568 -1.13640801 37.0683949 -1.13381577 32.00271416 C-1.13314785 29.56940137 -1.1339702 27.13608772 -1.13629532 24.70277596 C-1.1388304 21.3032104 -1.13496892 17.90371101 -1.12939453 14.50415039 C-1.13141876 13.49466339 -1.13344299 12.48517639 -1.13552856 11.44509888 C-1.13270874 10.51837875 -1.12988892 9.59165863 -1.12698364 8.63685608 C-1.12660662 7.83326188 -1.12622959 7.02966768 -1.12584114 6.20172215 C-1.00081615 4.01427932 -0.60455306 2.10116068 0 0 Z " fill="#1746AD" transform="translate(112,81)"/>
<path d="M0 0 C-1.41773462 3.54433654 -2.67612238 4.33806119 -6 6 C-6.70151152 7.3153341 -7.36525925 8.65117592 -8 10 C-10 12.25 -10 12.25 -12 14 C-12.66 14 -13.32 14 -14 14 C-14.23267578 14.55719727 -14.46535156 15.11439453 -14.70507812 15.68847656 C-16.33569393 18.59923645 -18.36239194 20.62181133 -20.71875 22.984375 C-22.11673828 24.38623047 -22.11673828 24.38623047 -23.54296875 25.81640625 C-24.2707251 26.53787842 -24.2707251 26.53787842 -25.01318359 27.27392578 C-26.50206339 28.75204848 -27.97991651 30.24059911 -29.45703125 31.73046875 C-30.38902344 32.65988281 -31.32101563 33.58929688 -32.28125 34.546875 C-33.13783203 35.40120117 -33.99441406 36.25552734 -34.87695312 37.13574219 C-37 39 -37 39 -39 39 C-39.20625 39.53109375 -39.4125 40.0621875 -39.625 40.609375 C-41.57961192 44.00773436 -44.22123717 46.51055928 -47 49.25 C-47.81984375 50.08144531 -47.81984375 50.08144531 -48.65625 50.9296875 C-52.7466133 55 -52.7466133 55 -55 55 C-55 55.66 -55 56.32 -55 57 C-56.79956055 57.66772461 -56.79956055 57.66772461 -59 58 C-60.62817383 56.95532227 -60.62817383 56.95532227 -62.20703125 55.31640625 C-62.79009033 54.72239014 -63.37314941 54.12837402 -63.97387695 53.51635742 C-64.58062256 52.87158447 -65.18736816 52.22681152 -65.8125 51.5625 C-66.44051514 50.91450439 -67.06853027 50.26650879 -67.71557617 49.59887695 C-71.38212395 45.79125311 -74.93302872 41.90004214 -78.35546875 37.87109375 C-83.09819216 32.47497851 -88.22288916 27.28624353 -94 23 C-88.30940645 23.1949159 -85.44630745 27.04545866 -81.73046875 30.87890625 C-81.04946609 31.5655687 -80.36846344 32.25223114 -79.66682434 32.95970154 C-77.49747152 35.15141481 -75.34245164 37.35663453 -73.1875 39.5625 C-71.71772085 41.05234439 -70.24702799 42.54128797 -68.77539062 44.02929688 C-65.17291443 47.67583625 -61.58322936 51.33455021 -58 55 C-52.05539432 50.11642975 -46.6506687 44.75627964 -41.24641991 39.29101944 C-39.63926958 37.66629958 -38.02844659 36.04530292 -36.4165802 34.42526245 C-31.8395545 29.82392051 -27.26840545 25.21677149 -22.70141602 20.60546875 C-19.89652145 17.77386966 -17.08683727 14.94709806 -14.27410316 12.1232872 C-13.20485862 11.04782459 -12.13751661 9.97046702 -11.0721035 8.89120865 C-9.59055598 7.39055059 -8.10304748 5.89605655 -6.61401367 4.40283203 C-5.76908859 3.55044952 -4.92416351 2.69806702 -4.05363464 1.81985474 C-2 0 -2 0 0 0 Z " fill="#1E4CB1" transform="translate(253,103)"/>
<path d="M0 0 C0.33 0.66 0.66 1.32 1 2 C0.00419922 2.12955078 0.00419922 2.12955078 -1.01171875 2.26171875 C-6.88528716 3.19634496 -10.14548705 4.15077403 -14 9 C-14.33 9.33 -14.66 9.66 -15 10 C-15.9639291 15.43801514 -16.07761059 20.13002869 -13.2734375 24.99609375 C-9.25279937 29.97698738 -4.77770904 34.29868177 0.1484375 38.37109375 C2.61019317 40.53681551 4.63343051 42.96220382 6.67578125 45.51953125 C8.12517606 47.26426365 8.12517606 47.26426365 11 49 C11 49.66 11 50.32 11 51 C11.556875 51.20625 12.11375 51.4125 12.6875 51.625 C15.24303511 53.14450736 16.68360443 54.97426113 18.515625 57.28125 C22.6563911 62.07582127 28.64327898 68.34974313 35.09375 69.3125 C40.70534297 69.61178496 43.67899359 68.54544115 48 65 C48.66 65.33 49.32 65.66 50 66 C44.56871146 70.70711673 41.49807651 72.50834417 34 72 C26.56991344 68.82279141 20.3859283 63.17687932 15.375 56.875 C12.85637075 53.82613302 10.1324533 51.43316006 7.13671875 48.87109375 C3.59565569 45.77023597 0.08051201 42.56389023 -3 39 C-3 38.34 -3 37.68 -3 37 C-3.556875 36.79375 -4.11375 36.5875 -4.6875 36.375 C-7.28423179 34.83099731 -8.84263911 32.94258658 -10.69921875 30.5859375 C-12.16192017 28.74342957 -12.16192017 28.74342957 -14.75 26.3125 C-18.49879786 22.45956887 -18.33383476 18.62677393 -18.2890625 13.5078125 C-17.86903722 9.86380941 -16.3495688 7.75235202 -14 5 C-13.54625 4.4225 -13.0925 3.845 -12.625 3.25 C-8.85921199 0.35323999 -4.63709591 -0.27277035 0 0 Z " fill="#1E4BAC" transform="translate(157,124)"/>
<path d="M0 0 C34.32 0 68.64 0 104 0 C103.67 0.66 103.34 1.32 103 2 C91.78545533 2.17799272 80.57080058 2.34386672 69.3558569 2.49477577 C64.14687982 2.56523816 58.93802668 2.6396882 53.72924805 2.72363281 C48.69132656 2.80467081 43.65335545 2.87473603 38.61517525 2.93757248 C36.70445812 2.96325882 34.79378755 2.99272905 32.88319206 3.02626419 C21.70769833 3.21959293 11.03595892 2.89476583 0 1 C0 0.67 0 0.34 0 0 Z " fill="#1F4EB3" transform="translate(126,68)"/>
<path d="M0 0 C0.33 0 0.66 0 1 0 C1.65824423 13.26992357 2.10352828 26.52508473 2.125 39.8125 C2.12951172 40.94848633 2.13402344 42.08447266 2.13867188 43.25488281 C2.1123449 58.20421698 1.77291548 72.48837031 -9 84 C-9.99 84.495 -9.99 84.495 -11 85 C-9.85712211 82.62671844 -8.62811078 80.37196394 -7.28442383 78.1027832 C-2.57303669 69.71528466 -1.11631641 62.97589394 -1.58618164 53.293396 C-1.76287855 49.62076145 -1.81739165 45.94549341 -1.88671875 42.26953125 C-1.90386932 41.51434204 -1.9210199 40.75915283 -1.93869019 39.9810791 C-2.09918395 31.41975057 -1.58010802 22.91315989 -1 14.375 C-0.95152924 13.64469574 -0.90305847 12.91439148 -0.8531189 12.16195679 C-0.58307976 8.10688724 -0.29887112 4.05304219 0 0 Z " fill="#2556BF" transform="translate(281,143)"/>
<path d="M0 0 C8.58 0 17.16 0 26 0 C26.02505615 2.26149902 26.0501123 4.52299805 26.07592773 6.85302734 C26.15928829 14.31298389 26.24798868 21.77287 26.33933926 29.23273277 C26.3945769 33.75701814 26.44799825 38.28130997 26.49731445 42.80566406 C26.54494559 47.16936608 26.59728795 51.53298817 26.65294075 55.896595 C26.67336998 57.56399173 26.69208211 59.23141038 26.70907402 60.89884567 C26.7331055 63.22870585 26.76316166 65.55841435 26.79467773 67.88818359 C26.80331093 68.92935585 26.80331093 68.92935585 26.81211853 69.99156189 C26.82920692 73.61855479 26.82920692 73.61855479 28 77 C26.515 77.495 26.515 77.495 25 78 C23.32664004 76.32664004 23.88037105 74.28612091 23.87557983 72.05252075 C23.87917511 71.3454599 23.88277039 70.63839905 23.88647461 69.90991211 C23.88632858 69.16849472 23.88618256 68.42707733 23.8860321 67.66319275 C23.88673135 65.20121379 23.89452426 62.73930957 23.90234375 60.27734375 C23.90420789 58.57483461 23.90563181 56.87232493 23.90663147 55.16981506 C23.91045698 50.68006927 23.92028753 46.19035562 23.93133545 41.70062256 C23.94154887 37.12268509 23.94612894 32.54474244 23.95117188 27.96679688 C23.96190978 18.97784816 23.97950684 9.98893178 24 1 C16.08 1 8.16 1 0 1 C0 0.67 0 0.34 0 0 Z " fill="#E6E6E6" transform="translate(639,74)"/>
<path d="M0 0 C8.62245882 2.78961903 13.57795935 9.42893039 18 17 C19.23689064 19.95285864 20.21330477 22.89817311 21 26 C18.17290079 26.81849985 15.80837174 27.08779215 12.87402344 26.92993164 C11.67323151 26.86975609 11.67323151 26.86975609 10.44818115 26.80836487 C9.59387512 26.75945602 8.73956909 26.71054718 7.859375 26.66015625 C6.97719299 26.61434921 6.09501099 26.56854218 5.18609619 26.52134705 C2.373733 26.37402196 -0.43809871 26.21836983 -3.25 26.0625 C-5.15882504 25.96103906 -7.06767903 25.86012116 -8.9765625 25.75976562 C-13.65140069 25.51280624 -18.32577962 25.25837876 -23 25 C-23 24.67 -23 24.34 -23 24 C-9.47 23.67 4.06 23.34 18 23 C12.90912195 12.8182439 9.84047512 6.92023756 0 2 C0 1.34 0 0.68 0 0 Z " fill="#2350AE" transform="translate(263,44)"/>
<path d="M0 0 C-0.33 0.99 -0.66 1.98 -1 3 C-1.66 3 -2.32 3 -3 3 C-3 3.66 -3 4.32 -3 5 C-4.44815063 6.42567444 -4.44815063 6.42567444 -6.46337891 8.09008789 C-11.08308078 12.0208735 -15.33196211 16.23887105 -19.5859375 20.55859375 C-21.19127761 22.17655994 -22.79675008 23.7943948 -24.40234375 25.41210938 C-26.90602832 27.94076651 -29.40807228 30.47100903 -31.90771484 33.00366211 C-34.33781785 35.46378098 -36.77394997 37.91779733 -39.2109375 40.37109375 C-39.96297455 41.13659042 -40.7150116 41.9020871 -41.48983765 42.69078064 C-42.53199936 43.73801048 -42.53199936 43.73801048 -43.59521484 44.80639648 C-44.20618011 45.42481918 -44.81714539 46.04324188 -45.44662476 46.68040466 C-47 48 -47 48 -49 48 C-47.89532707 44.68598121 -47.12435461 44.03011637 -44.50146484 41.87475586 C-39.73380184 37.82676635 -35.36468582 33.45606404 -30.9765625 29.00390625 C-29.28007702 27.29479372 -27.58345868 25.58581305 -25.88671875 23.87695312 C-23.2381758 21.20344258 -20.59126925 18.528348 -17.94677734 15.85083008 C-15.37767719 13.25171376 -12.80254626 10.65869771 -10.2265625 8.06640625 C-9.03288559 6.8525399 -9.03288559 6.8525399 -7.81509399 5.614151 C-7.08027802 4.87595627 -6.34546204 4.13776154 -5.58837891 3.37719727 C-4.94188385 2.72324478 -4.29538879 2.0692923 -3.62930298 1.39552307 C-2 0 -2 0 0 0 Z " fill="#1B46A5" transform="translate(261,136)"/>
<path d="M0 0 C0 0.66 0 1.32 0 2 C-3.74387506 4.44812683 -7.41571328 4.22516217 -11.72265625 4.125 C-12.46454697 4.11742676 -13.20643768 4.10985352 -13.97080994 4.10205078 C-16.33494565 4.077672 -18.69858728 4.04041288 -21.0625 4 C-24.17837239 3.94685079 -27.29400154 3.90685087 -30.41015625 3.875 C-31.12583267 3.85840332 -31.84150909 3.84180664 -32.57887268 3.82470703 C-36.30067757 3.78787499 -37.81363706 3.87575804 -41 6 C-39.125 2.125 -39.125 2.125 -38 1 C-35.96179956 0.84104909 -33.91835551 0.74859143 -31.875 0.68359375 C-29.97814453 0.62075195 -29.97814453 0.62075195 -28.04296875 0.55664062 C-27.3782959 0.53706299 -26.71362305 0.51748535 -26.02880859 0.49731445 C-24.03598537 0.43856094 -22.04337679 0.37266629 -20.05078125 0.30664062 C-13.36384834 0.09365945 -6.69020314 -0.05135024 0 0 Z " fill="#EAE9EA" transform="translate(734,111)"/>
<path d="M0 0 C-1.57972542 4.11891598 -4.58215345 6.59776367 -7.8125 9.4375 C-8.86168979 10.37256284 -9.90987625 11.30875276 -10.95703125 12.24609375 C-11.72237183 12.93082764 -11.72237183 12.93082764 -12.50317383 13.62939453 C-19.46983005 20.00858358 -23.44989596 24.63818745 -25 34 C-25.33 34 -25.66 34 -26 34 C-26.24058202 27.8651586 -25.83657231 24.14529947 -21.78515625 19.4128418 C-20.43744141 18.06959839 -20.43744141 18.06959839 -19.0625 16.69921875 C-18.58176025 16.2179805 -18.10102051 15.73674225 -17.60571289 15.24092102 C-16.59392486 14.23146292 -15.57846788 13.22567028 -14.55957031 12.22338867 C-12.99617834 10.68373637 -11.44668469 9.1310376 -9.8984375 7.57617188 C-2.27921348 0 -2.27921348 0 0 0 Z " fill="#1D49A9" transform="translate(280,144)"/>
<path d="M0 0 C1.59763932 2.07597445 3.0998069 4.15669166 4.5078125 6.3671875 C10.93634872 16.336077 20.40762659 22.36892199 32 25 C32 25.66 32 26.32 32 27 C20.76448021 25.03824258 10.91973796 19.89182908 4.16796875 10.43359375 C0 3.72775176 0 3.72775176 0 0 Z " fill="#224DA9" transform="translate(88,214)"/>
<path d="M0 0 C0.33 0 0.66 0 1 0 C0.98839844 1.2065625 0.97679687 2.413125 0.96484375 3.65625 C0.95545665 5.27083177 0.94635744 6.88541524 0.9375 8.5 C0.92912109 9.29148437 0.92074219 10.08296875 0.91210938 10.8984375 C0.89108815 16.02761717 1.26062713 20.92336106 2 26 C1.34 26 0.68 26 0 26 C-0.33 26.99 -0.66 27.98 -1 29 C-1 28.34 -1 27.68 -1 27 C-6.28 27 -11.56 27 -17 27 C-16.67 26.34 -16.34 25.68 -16 25 C-13.87506859 24.97306425 -11.75004088 24.95363372 -9.625 24.9375 C-8.44164062 24.92589844 -7.25828125 24.91429688 -6.0390625 24.90234375 C-3 25 -3 25 -1 26 C-1.01160156 25.29617187 -1.02320313 24.59234375 -1.03515625 23.8671875 C-1.10826019 15.86752752 -0.66028987 7.97064195 0 0 Z " fill="#F2F2F2" transform="translate(454,74)"/>
<path d="M0 0 C0.77279297 -0.00386719 1.54558594 -0.00773438 2.34179688 -0.01171875 C7.01827846 -0.00381261 11.44999075 0.35113027 16.0625 1.125 C12.75877861 3.32748093 11.75206223 3.37268405 7.9140625 3.35546875 C6.90859375 3.35353516 5.903125 3.35160156 4.8671875 3.34960938 C3.29324219 3.33124023 3.29324219 3.33124023 1.6875 3.3125 C0.12515625 3.3115332 0.12515625 3.3115332 -1.46875 3.31054688 C-6.11267263 3.28382354 -10.39262337 3.15419332 -14.9375 2.125 C-14.9375 1.795 -14.9375 1.465 -14.9375 1.125 C-9.90830048 0.11111338 -5.10391555 -0.02541369 0 0 Z " fill="#1842AD" transform="translate(141.9375,209.875)"/>
<path d="M0 0 C0.99 0.66 1.98 1.32 3 2 C1.89140625 2.10957031 0.7828125 2.21914062 -0.359375 2.33203125 C-1.82298873 2.49152762 -3.28652667 2.65172049 -4.75 2.8125 C-5.47960937 2.88275391 -6.20921875 2.95300781 -6.9609375 3.02539062 C-11.06429001 3.49168068 -14.15470246 3.86436597 -17 7 C-17.68850829 9.0316566 -17.68850829 9.0316566 -17.75 11.1875 C-17.8325 12.445625 -17.915 13.70375 -18 15 C-18.66 14.67 -19.32 14.34 -20 14 C-19.63551402 6.71028037 -19.63551402 6.71028037 -16.875 3.625 C-11.39731498 0.52891716 -6.26539022 -0.48195309 0 0 Z " fill="#E5E6E7" transform="translate(583,132)"/>
<path d="M0 0 C0.33 0 0.66 0 1 0 C1.19820989 4.02037968 1.3816467 8.04130512 1.5625 12.0625 C1.61857422 13.19623047 1.67464844 14.32996094 1.73242188 15.49804688 C1.97983976 21.15566921 2.09078977 26.43293223 1 32 C0.67 32 0.34 32 0 32 C-0.93363823 21.19852381 -0.93363823 10.80147619 0 0 Z " fill="#1540AA" transform="translate(281,143)"/>
<path d="M0 0 C3.84107161 2.27720674 3.84107161 2.27720674 5.5 3.921875 C5.5 4.911875 5.5 5.901875 5.5 6.921875 C4.7575 6.303125 4.015 5.684375 3.25 5.046875 C-1.67093836 1.24433173 -5.06291683 0.64482948 -11.25 0.796875 C-12.29607422 0.81041016 -12.29607422 0.81041016 -13.36328125 0.82421875 C-15.07566958 0.84767612 -16.78788004 0.88354396 -18.5 0.921875 C-13.74628089 -3.83184411 -5.75087538 -2.48006501 0 0 Z " fill="#E5E4E5" transform="translate(487.5,134.078125)"/>
<path d="M0 0 C0.33 0 0.66 0 1 0 C2.33257403 17.85649203 2.33257403 17.85649203 1 26 C0.67 26 0.34 26 0 26 C-0.19840395 22.79224458 -0.38175425 19.58379499 -0.5625 16.375 C-0.61857422 15.47136719 -0.67464844 14.56773437 -0.73242188 13.63671875 C-0.99066718 8.91943783 -1.04292737 4.65068353 0 0 Z " fill="#1845AA" transform="translate(281,177)"/>
<path d="M0 0 C0.66 0.33 1.32 0.66 2 1 C1.27683594 1.70962891 1.27683594 1.70962891 0.5390625 2.43359375 C-4.15993842 7.35316002 -6.23215822 11.23045613 -7 18 C-7.33 18 -7.66 18 -8 18 C-8.21250462 12.58113231 -8.27014137 8.53579621 -4.53125 4.359375 C-3.05617653 2.87038574 -1.53113476 1.43127814 0 0 Z " fill="#1A42A6" transform="translate(262,160)"/>
<path d="M0 0 C0.66 0 1.32 0 2 0 C0.48446596 3.47775179 -1.5773456 5.9557984 -4.125 8.75 C-5.21167969 9.94882813 -5.21167969 9.94882813 -6.3203125 11.171875 C-6.87460937 11.77515625 -7.42890625 12.3784375 -8 13 C-8.33 12.34 -8.66 11.68 -9 11 C-7.87672229 9.54033966 -6.75131706 8.08231636 -5.625 6.625 C-4.99851562 5.81289062 -4.37203125 5.00078125 -3.7265625 4.1640625 C-2 2 -2 2 0 0 Z " fill="#E7E8E8" transform="translate(449,119)"/>
<path d="M0 0 C0.66 0.33 1.32 0.66 2 1 C0.37744772 2.48185125 -1.24811888 3.96040256 -2.875 5.4375 C-3.77992188 6.26121094 -4.68484375 7.08492187 -5.6171875 7.93359375 C-8 10 -8 10 -10 11 C-8.67367286 5.36310966 -4.53368235 3.06814317 0 0 Z " fill="#E8E8E8" transform="translate(449,159)"/>
<path d="M0 0 C2.97 0 5.94 0 9 0 C9 0.66 9 1.32 9 2 C5.6853333 4.02907167 3.5684021 4.12742133 -0.25 3.625 C-1.14203125 3.51414062 -2.0340625 3.40328125 -2.953125 3.2890625 C-3.62859375 3.19367188 -4.3040625 3.09828125 -5 3 C-5 2.67 -5 2.34 -5 2 C-3.35 2 -1.7 2 0 2 C0 1.34 0 0.68 0 0 Z " fill="#F3F2F2" transform="translate(725,111)"/>
<path d="M0 0 C3.51121797 0.2926015 4.80482666 0.8099628 7.375 3.3125 C9 6 9 6 8.75 8.3125 C8.5025 8.869375 8.255 9.42625 8 10 C7.608125 9.278125 7.21625 8.55625 6.8125 7.8125 C4.85350102 4.772674 2.62036403 2.47872273 0 0 Z " fill="#204CAA" transform="translate(274,94)"/>
<path d="M0 0 C0.33 0 0.66 0 1 0 C1 3.3 1 6.6 1 10 C0.34 9.67 -0.32 9.34 -1 9 C-1.75 5.5625 -1.75 5.5625 -2 2 C-1.34 1.34 -0.68 0.68 0 0 Z " fill="#2655B6" transform="translate(87,203)"/>
<path d="M0 0 C-1.49097658 3.7952131 -3.75700849 5.61042731 -7 8 C-7 5 -7 5 -4.625 2.3125 C-2 0 -2 0 0 0 Z " fill="#2350AF" transform="translate(280,144)"/>
<path d="M0 0 C-0.33 0.99 -0.66 1.98 -1 3 C-1.66 3 -2.32 3 -3 3 C-3 3.66 -3 4.32 -3 5 C-4.5 6.625 -4.5 6.625 -6 8 C-6.99 7.67 -7.98 7.34 -9 7 C-7.88121617 5.82737096 -6.75476949 4.66204862 -5.625 3.5 C-4.68527344 2.52546875 -4.68527344 2.52546875 -3.7265625 1.53125 C-2 0 -2 0 0 0 Z " fill="#1647AD" transform="translate(261,136)"/>
<path d="M0 0 C-0.33 0.99 -0.66 1.98 -1 3 C-4.3 3 -7.6 3 -11 3 C-7.63114177 -0.36885823 -4.54278442 -0.10095076 0 0 Z " fill="#EFEFF0" transform="translate(480,132)"/>
<path d="M0 0 C6.625 -0.25 6.625 -0.25 10 2 C5.545 2.495 5.545 2.495 1 3 C0.67 2.01 0.34 1.02 0 0 Z " fill="#F0F0F1" transform="translate(576,132)"/>
<path d="M0 0 C0.66 0 1.32 0 2 0 C2 1.65 2 3.3 2 5 C0 1.125 0 1.125 0 0 Z " fill="#FFFFFF" transform="translate(915,157)"/>
<path d="M0 0 C0.99 0.495 0.99 0.495 2 1 C1.67 1.99 1.34 2.98 1 4 C0.67 2.68 0.34 1.36 0 0 Z " fill="#FFFFFF" transform="translate(433,191)"/>
<path d="M0 0 C0.66 0.66 1.32 1.32 2 2 C1.01 2.495 1.01 2.495 0 3 C0 2.01 0 1.02 0 0 Z " fill="#FFFFFF" transform="translate(836,172)"/>
<path d="M0 0 C1 4 1 4 1 4 Z " fill="#FFFFFF" transform="translate(377,162)"/>
<path d="M0 0 C4 1 4 1 4 1 Z " fill="#FFFFFF" transform="translate(404,72)"/>
<path d="" fill="#FFFFFF" transform="translate(0,0)"/>
<path d="M0 0 C0.99 0.495 0.99 0.495 2 1 C1.01 1.495 1.01 1.495 0 2 C0 1.34 0 0.68 0 0 Z " fill="#FFFFFF" transform="translate(592,180)"/>
<path d="M0 0 C3 1 3 1 3 1 Z " fill="#FFFFFF" transform="translate(540,179)"/>
<path d="M0 0 C0.66 0.66 1.32 1.32 2 2 C1.34 2 0.68 2 0 2 C0 1.34 0 0.68 0 0 Z " fill="#FFFFFF" transform="translate(674,177)"/>
<path d="" fill="#FFFFFF" transform="translate(0,0)"/>
<path d="" fill="#FFFFFF" transform="translate(0,0)"/>
<path d="M0 0 C0.99 0.495 0.99 0.495 2 1 C1.01 1.495 1.01 1.495 0 2 C0 1.34 0 0.68 0 0 Z " fill="#FFFFFF" transform="translate(668,143)"/>
<path d="M0 0 C0.66 0.66 1.32 1.32 2 2 C1.34 2 0.68 2 0 2 C0 1.34 0 0.68 0 0 Z " fill="#FFFFFF" transform="translate(896,138)"/>
<path d="M0 0 C0.66 0 1.32 0 2 0 C1.67 0.66 1.34 1.32 1 2 C0.67 1.34 0.34 0.68 0 0 Z " fill="#FFFFFF" transform="translate(376,102)"/>
<path d="M0 0 C3 1 3 1 3 1 Z " fill="#FFFFFF" transform="translate(656,72)"/>
<path d="M0 0 C3 1 3 1 3 1 Z " fill="#FFFFFF" transform="translate(432,72)"/>
<path d="M0 0 C3 1 3 1 3 1 Z " fill="#FFFFFF" transform="translate(428,72)"/>
<path d="M0 0 C3 1 3 1 3 1 Z " fill="#FFFFFF" transform="translate(368,72)"/>
<path d="" fill="#15D4E9" transform="translate(0,0)"/>
<path d="" fill="#FFFFFF" transform="translate(0,0)"/>
<path d="M0 0 C2 1 2 1 2 1 Z " fill="#FFFFFF" transform="translate(886,218)"/>
<path d="" fill="#FFFFFF" transform="translate(0,0)"/>
<path d="M0 0 C2 1 2 1 2 1 Z " fill="#FFFFFF" transform="translate(790,218)"/>
<path d="M0 0 C2 1 2 1 2 1 Z " fill="#FFFFFF" transform="translate(576,218)"/>
<path d="" fill="#FFFFFF" transform="translate(0,0)"/>
<path d="M0 0 C2 1 2 1 2 1 Z " fill="#FFFFFF" transform="translate(816,206)"/>
<path d="" fill="#FFFFFF" transform="translate(0,0)"/>
<path d="M0 0 C2 1 2 1 2 1 Z " fill="#FFFFFF" transform="translate(739,197)"/>
<path d="" fill="#FFFFFF" transform="translate(0,0)"/>
<path d="M0 0 C2 1 2 1 2 1 Z " fill="#FFFFFF" transform="translate(899,188)"/>
<path d="M0 0 C2 1 2 1 2 1 Z " fill="#FFFFFF" transform="translate(881,186)"/>
<path d="M0 0 C2 1 2 1 2 1 Z " fill="#FFFFFF" transform="translate(793,186)"/>
<path d="M0 0 C2 1 2 1 2 1 Z " fill="#FFFFFF" transform="translate(906,185)"/>
<path d="" fill="#FFFFFF" transform="translate(0,0)"/>
<path d="" fill="#FFFFFF" transform="translate(0,0)"/>
<path d="" fill="#FFFFFF" transform="translate(0,0)"/>
<path d="" fill="#FFFFFF" transform="translate(0,0)"/>
<path d="" fill="#FFFFFF" transform="translate(0,0)"/>
<path d="M0 0 C2 1 2 1 2 1 Z " fill="#FFFFFF" transform="translate(480,172)"/>
<path d="" fill="#FFFFFF" transform="translate(0,0)"/>
<path d="" fill="#FFFFFF" transform="translate(0,0)"/>
<path d="" fill="#FFFFFF" transform="translate(0,0)"/>
<path d="" fill="#FFFFFF" transform="translate(0,0)"/>
<path d="" fill="#FFFFFF" transform="translate(0,0)"/>
<path d="" fill="#FFFFFF" transform="translate(0,0)"/>
<path d="M0 0 C2 1 2 1 2 1 Z " fill="#FFFFFF" transform="translate(486,137)"/>
<path d="" fill="#FFFFFF" transform="translate(0,0)"/>
<path d="" fill="#FFFFFF" transform="translate(0,0)"/>
<path d="M0 0 C2 1 2 1 2 1 Z " fill="#FFFFFF" transform="translate(850,129)"/>
<path d="" fill="#FFFFFF" transform="translate(0,0)"/>
<path d="M0 0 C2 1 2 1 2 1 Z " fill="#FFFFFF" transform="translate(740,128)"/>
<path d="" fill="#FFFFFF" transform="translate(0,0)"/>
<path d="M0 0 C2 1 2 1 2 1 Z " fill="#FFFFFF" transform="translate(605,115)"/>
<path d="" fill="#FFFFFF" transform="translate(0,0)"/>
<path d="M0 0 C2 1 2 1 2 1 Z " fill="#FFFFFF" transform="translate(450,102)"/>
<path d="M0 0 C2 1 2 1 2 1 Z " fill="#FFFFFF" transform="translate(436,72)"/>
<path d="M0 0 C2 1 2 1 2 1 Z " fill="#FFFFFF" transform="translate(425,72)"/>
<path d="M0 0 C2 1 2 1 2 1 Z " fill="#FFFFFF" transform="translate(412,72)"/>
<path d="M0 0 C2 1 2 1 2 1 Z " fill="#FFFFFF" transform="translate(401,72)"/>
<path d="M0 0 C2 1 2 1 2 1 Z " fill="#FFFFFF" transform="translate(396,72)"/>
<path d="M0 0 C2 1 2 1 2 1 Z " fill="#2436DA" transform="translate(113,39)"/>
<path d="" fill="#0000FF" transform="translate(0,0)"/>
<path d="" fill="#0000FF" transform="translate(0,0)"/>
<path d="" fill="#0000FF" transform="translate(0,0)"/>
<path d="" fill="#7F7FFF" transform="translate(0,0)"/>
<path d="" fill="#FFFFFF" transform="translate(0,0)"/>
<path d="" fill="#FFFFFF" transform="translate(0,0)"/>
<path d="" fill="#FFFFFF" transform="translate(0,0)"/>
<path d="" fill="#FFFFFF" transform="translate(0,0)"/>
<path d="" fill="#FFFFFF" transform="translate(0,0)"/>
<path d="" fill="#FFFFFF" transform="translate(0,0)"/>
<path d="" fill="#FFFFFF" transform="translate(0,0)"/>
<path d="" fill="#FFFFFF" transform="translate(0,0)"/>
<path d="" fill="#FFFFFF" transform="translate(0,0)"/>
<path d="" fill="#FFFFFF" transform="translate(0,0)"/>
<path d="" fill="#FFFFFF" transform="translate(0,0)"/>
<path d="" fill="#FFFFFF" transform="translate(0,0)"/>
<path d="" fill="#FFFFFF" transform="translate(0,0)"/>
<path d="" fill="#FFFFFF" transform="translate(0,0)"/>
<path d="" fill="#FFFFFF" transform="translate(0,0)"/>
<path d="" fill="#FFFFFF" transform="translate(0,0)"/>
<path d="" fill="#FFFFFF" transform="translate(0,0)"/>
<path d="" fill="#FFFFFF" transform="translate(0,0)"/>
<path d="" fill="#FFFFFF" transform="translate(0,0)"/>
<path d="" fill="#FFFFFF" transform="translate(0,0)"/>
<path d="" fill="#FFFFFF" transform="translate(0,0)"/>
<path d="" fill="#FFFFFF" transform="translate(0,0)"/>
<path d="" fill="#FFFFFF" transform="translate(0,0)"/>
<path d="" fill="#FFFFFF" transform="translate(0,0)"/>
<path d="" fill="#FFFFFF" transform="translate(0,0)"/>
<path d="" fill="#FFFFFF" transform="translate(0,0)"/>
<path d="" fill="#FFFFFF" transform="translate(0,0)"/>
<path d="" fill="#FFFFFF" transform="translate(0,0)"/>
<path d="" fill="#FFFFFF" transform="translate(0,0)"/>
<path d="" fill="#FFFFFF" transform="translate(0,0)"/>
<path d="" fill="#FFFFFF" transform="translate(0,0)"/>
<path d="" fill="#0000FF" transform="translate(0,0)"/>
<path d="" fill="#FFFFFF" transform="translate(0,0)"/>
<path d="" fill="#FFFFFF" transform="translate(0,0)"/>
<path d="" fill="#FFFFFF" transform="translate(0,0)"/>
<path d="" fill="#FFFFFF" transform="translate(0,0)"/>
<path d="" fill="#FFFFFF" transform="translate(0,0)"/>
<path d="" fill="#FFFFFF" transform="translate(0,0)"/>
<path d="" fill="#FFFFFF" transform="translate(0,0)"/>
<path d="" fill="#0000FF" transform="translate(0,0)"/>
<path d="" fill="#FFFFFF" transform="translate(0,0)"/>
<path d="" fill="#FFFFFF" transform="translate(0,0)"/>
<path d="" fill="#FFFFFF" transform="translate(0,0)"/>
<path d="" fill="#FFFFFF" transform="translate(0,0)"/>
<path d="" fill="#FFFFFF" transform="translate(0,0)"/>
<path d="" fill="#FFFFFF" transform="translate(0,0)"/>
<path d="" fill="#FFFFFF" transform="translate(0,0)"/>
<path d="" fill="#FFFFFF" transform="translate(0,0)"/>
<path d="" fill="#FFFFFF" transform="translate(0,0)"/>
<path d="" fill="#FFFFFF" transform="translate(0,0)"/>
<path d="" fill="#FFFFFF" transform="translate(0,0)"/>
<path d="" fill="#FFFFFF" transform="translate(0,0)"/>
<path d="" fill="#FFFFFF" transform="translate(0,0)"/>
<path d="" fill="#FFFFFF" transform="translate(0,0)"/>
<path d="" fill="#FFFFFF" transform="translate(0,0)"/>
<path d="" fill="#FFFFFF" transform="translate(0,0)"/>
<path d="" fill="#FFFFFF" transform="translate(0,0)"/>
<path d="" fill="#FFFFFF" transform="translate(0,0)"/>
<path d="" fill="#FFFFFF" transform="translate(0,0)"/>
<path d="" fill="#FFFFFF" transform="translate(0,0)"/>
<path d="" fill="#FFFFFF" transform="translate(0,0)"/>
<path d="" fill="#FFFFFF" transform="translate(0,0)"/>
<path d="" fill="#FFFFFF" transform="translate(0,0)"/>
<path d="" fill="#FFFFFF" transform="translate(0,0)"/>
<path d="" fill="#FFFFFF" transform="translate(0,0)"/>
<path d="" fill="#FFFFFF" transform="translate(0,0)"/>
<path d="" fill="#FFFFFF" transform="translate(0,0)"/>
<path d="" fill="#007FFF" transform="translate(0,0)"/>
<path d="" fill="#007FFF" transform="translate(0,0)"/>
<path d="" fill="#FFFFFF" transform="translate(0,0)"/>
<path d="" fill="#FFFFFF" transform="translate(0,0)"/>
<path d="" fill="#FFFFFF" transform="translate(0,0)"/>
<path d="" fill="#FFFFFF" transform="translate(0,0)"/>
<path d="" fill="#FFFFFF" transform="translate(0,0)"/>
<path d="" fill="#FFFFFF" transform="translate(0,0)"/>
<path d="" fill="#FFFFFF" transform="translate(0,0)"/>
<path d="" fill="#FFFFFF" transform="translate(0,0)"/>
<path d="" fill="#FFFFFF" transform="translate(0,0)"/>
<path d="" fill="#FFFFFF" transform="translate(0,0)"/>
<path d="" fill="#007FFF" transform="translate(0,0)"/>
<path d="" fill="#FFFFFF" transform="translate(0,0)"/>
<path d="" fill="#FFFFFF" transform="translate(0,0)"/>
<path d="" fill="#FFFFFF" transform="translate(0,0)"/>
<path d="" fill="#FFFFFF" transform="translate(0,0)"/>
<path d="" fill="#FFFFFF" transform="translate(0,0)"/>
<path d="" fill="#FFFFFF" transform="translate(0,0)"/>
<path d="" fill="#0000FF" transform="translate(0,0)"/>
<path d="" fill="#FFFFFF" transform="translate(0,0)"/>
<path d="" fill="#FFFFFF" transform="translate(0,0)"/>
<path d="" fill="#FFFFFF" transform="translate(0,0)"/>
<path d="" fill="#FFFFFF" transform="translate(0,0)"/>
<path d="" fill="#FFFFFF" transform="translate(0,0)"/>
<path d="" fill="#FFFFFF" transform="translate(0,0)"/>
<path d="" fill="#FFFFFF" transform="translate(0,0)"/>
<path d="" fill="#0000FF" transform="translate(0,0)"/>
<path d="" fill="#FFFFFF" transform="translate(0,0)"/>
<path d="" fill="#FFFFFF" transform="translate(0,0)"/>
<path d="" fill="#0000FF" transform="translate(0,0)"/>
<path d="" fill="#FFFFFF" transform="translate(0,0)"/>
<path d="" fill="#FFFFFF" transform="translate(0,0)"/>
<path d="" fill="#FFFFFF" transform="translate(0,0)"/>
<path d="" fill="#FFFFFF" transform="translate(0,0)"/>
<path d="" fill="#FFFFFF" transform="translate(0,0)"/>
<path d="" fill="#FFFFFF" transform="translate(0,0)"/>
<path d="" fill="#FFFFFF" transform="translate(0,0)"/>
<path d="" fill="#FFFFFF" transform="translate(0,0)"/>
<path d="" fill="#FFFFFF" transform="translate(0,0)"/>
<path d="" fill="#FFFFFF" transform="translate(0,0)"/>
<path d="" fill="#FFFFFF" transform="translate(0,0)"/>
<path d="" fill="#FFFFFF" transform="translate(0,0)"/>
<path d="" fill="#FFFFFF" transform="translate(0,0)"/>
<path d="" fill="#FFFFFF" transform="translate(0,0)"/>
<path d="" fill="#FFFFFF" transform="translate(0,0)"/>
<path d="" fill="#FFFFFF" transform="translate(0,0)"/>
<path d="" fill="#FFFFFF" transform="translate(0,0)"/>
<path d="" fill="#FFFFFF" transform="translate(0,0)"/>
<path d="" fill="#FFFFFF" transform="translate(0,0)"/>
<path d="" fill="#FFFFFF" transform="translate(0,0)"/>
<path d="" fill="#FFFFFF" transform="translate(0,0)"/>
<path d="" fill="#FFFFFF" transform="translate(0,0)"/>
<path d="" fill="#FFFFFF" transform="translate(0,0)"/>
<path d="" fill="#FFFFFF" transform="translate(0,0)"/>
<path d="" fill="#007FFF" transform="translate(0,0)"/>
<path d="" fill="#FFFFFF" transform="translate(0,0)"/>
<path d="" fill="#FFFFFF" transform="translate(0,0)"/>
<path d="" fill="#007FFF" transform="translate(0,0)"/>
<path d="" fill="#FFFFFF" transform="translate(0,0)"/>
<path d="" fill="#FFFFFF" transform="translate(0,0)"/>
<path d="" fill="#FFFFFF" transform="translate(0,0)"/>
<path d="" fill="#FFFFFF" transform="translate(0,0)"/>
<path d="" fill="#0000FF" transform="translate(0,0)"/>
<path d="" fill="#FFFFFF" transform="translate(0,0)"/>
<path d="" fill="#FFFFFF" transform="translate(0,0)"/>
<path d="" fill="#FFFFFF" transform="translate(0,0)"/>
<path d="" fill="#FFFFFF" transform="translate(0,0)"/>
<path d="" fill="#7F7FFF" transform="translate(0,0)"/>
<path d="" fill="#FFFFFF" transform="translate(0,0)"/>
<path d="" fill="#FFFFFF" transform="translate(0,0)"/>
<path d="" fill="#0000FF" transform="translate(0,0)"/>
<path d="" fill="#FFFFFF" transform="translate(0,0)"/>
<path d="" fill="#FFFFFF" transform="translate(0,0)"/>
<path d="" fill="#FFFFFF" transform="translate(0,0)"/>
<path d="" fill="#FFFFFF" transform="translate(0,0)"/>
<path d="" fill="#FFFFFF" transform="translate(0,0)"/>
<path d="" fill="#FFFFFF" transform="translate(0,0)"/>
<path d="" fill="#FFFFFF" transform="translate(0,0)"/>
<path d="" fill="#FFFFFF" transform="translate(0,0)"/>
<path d="" fill="#FFFFFF" transform="translate(0,0)"/>
<path d="" fill="#007FFF" transform="translate(0,0)"/>
<path d="" fill="#FFFFFF" transform="translate(0,0)"/>
<path d="" fill="#FFFFFF" transform="translate(0,0)"/>
<path d="" fill="#FFFFFF" transform="translate(0,0)"/>
<path d="" fill="#FFFFFF" transform="translate(0,0)"/>
<path d="" fill="#FFFFFF" transform="translate(0,0)"/>
<path d="" fill="#FFFFFF" transform="translate(0,0)"/>
<path d="" fill="#FFFFFF" transform="translate(0,0)"/>
<path d="" fill="#FFFFFF" transform="translate(0,0)"/>
<path d="" fill="#FFFFFF" transform="translate(0,0)"/>
<path d="" fill="#0000FF" transform="translate(0,0)"/>
<path d="" fill="#FFFFFF" transform="translate(0,0)"/>
<path d="" fill="#FFFFFF" transform="translate(0,0)"/>
<path d="" fill="#FFFFFF" transform="translate(0,0)"/>
<path d="" fill="#0000FF" transform="translate(0,0)"/>
<path d="" fill="#FFFFFF" transform="translate(0,0)"/>
<path d="" fill="#FFFFFF" transform="translate(0,0)"/>
<path d="" fill="#FFFFFF" transform="translate(0,0)"/>
<path d="" fill="#FFFFFF" transform="translate(0,0)"/>
<path d="" fill="#0000FF" transform="translate(0,0)"/>
<path d="" fill="#FFFFFF" transform="translate(0,0)"/>
<path d="" fill="#FFFFFF" transform="translate(0,0)"/>
<path d="" fill="#FFFFFF" transform="translate(0,0)"/>
<path d="" fill="#FFFFFF" transform="translate(0,0)"/>
<path d="" fill="#FFFFFF" transform="translate(0,0)"/>
<path d="" fill="#FFFFFF" transform="translate(0,0)"/>
<path d="" fill="#0000FF" transform="translate(0,0)"/>
<path d="" fill="#FFFFFF" transform="translate(0,0)"/>
<path d="" fill="#FFFFFF" transform="translate(0,0)"/>
<path d="" fill="#FFFFFF" transform="translate(0,0)"/>
<path d="" fill="#FFFFFF" transform="translate(0,0)"/>
<path d="" fill="#FFFFFF" transform="translate(0,0)"/>
<path d="" fill="#FFFFFF" transform="translate(0,0)"/>
<path d="" fill="#FFFFFF" transform="translate(0,0)"/>
<path d="" fill="#FFFFFF" transform="translate(0,0)"/>
<path d="" fill="#FFFFFF" transform="translate(0,0)"/>
<path d="" fill="#FFFFFF" transform="translate(0,0)"/>
<path d="" fill="#FFFFFF" transform="translate(0,0)"/>
<path d="" fill="#0000FF" transform="translate(0,0)"/>
<path d="" fill="#FFFFFF" transform="translate(0,0)"/>
<path d="" fill="#FFFFFF" transform="translate(0,0)"/>
<path d="" fill="#FFFFFF" transform="translate(0,0)"/>
<path d="" fill="#FFFFFF" transform="translate(0,0)"/>
<path d="" fill="#FFFFFF" transform="translate(0,0)"/>
<path d="" fill="#FFFFFF" transform="translate(0,0)"/>
<path d="" fill="#FFFFFF" transform="translate(0,0)"/>
<path d="" fill="#0000FF" transform="translate(0,0)"/>
<path d="" fill="#FFFFFF" transform="translate(0,0)"/>
<path d="" fill="#FFFFFF" transform="translate(0,0)"/>
<path d="" fill="#0000FF" transform="translate(0,0)"/>
<path d="" fill="#FFFFFF" transform="translate(0,0)"/>
<path d="" fill="#FFFFFF" transform="translate(0,0)"/>
<path d="" fill="#FFFFFF" transform="translate(0,0)"/>
<path d="" fill="#FFFFFF" transform="translate(0,0)"/>
<path d="" fill="#FFFFFF" transform="translate(0,0)"/>
<path d="" fill="#FFFFFF" transform="translate(0,0)"/>
<path d="" fill="#FFFFFF" transform="translate(0,0)"/>
<path d="" fill="#0000FF" transform="translate(0,0)"/>
<path d="" fill="#FFFFFF" transform="translate(0,0)"/>
<path d="" fill="#FFFFFF" transform="translate(0,0)"/>
<path d="" fill="#FFFFFF" transform="translate(0,0)"/>
<path d="" fill="#0000FF" transform="translate(0,0)"/>
<path d="" fill="#FFFFFF" transform="translate(0,0)"/>
<path d="" fill="#FFFFFF" transform="translate(0,0)"/>
<path d="" fill="#FFFFFF" transform="translate(0,0)"/>
<path d="" fill="#FFFFFF" transform="translate(0,0)"/>
<path d="" fill="#FFFFFF" transform="translate(0,0)"/>
<path d="" fill="#FFFFFF" transform="translate(0,0)"/>
<path d="" fill="#FFFFFF" transform="translate(0,0)"/>
<path d="" fill="#FFFFFF" transform="translate(0,0)"/>
<path d="" fill="#FFFFFF" transform="translate(0,0)"/>
<path d="" fill="#FFFFFF" transform="translate(0,0)"/>
<path d="" fill="#FFFFFF" transform="translate(0,0)"/>
<path d="" fill="#FFFFFF" transform="translate(0,0)"/>
<path d="" fill="#FFFFFF" transform="translate(0,0)"/>
<path d="" fill="#FFFFFF" transform="translate(0,0)"/>
<path d="" fill="#FFFFFF" transform="translate(0,0)"/>
<path d="" fill="#FFFFFF" transform="translate(0,0)"/>
<path d="" fill="#FFFFFF" transform="translate(0,0)"/>
<path d="" fill="#FFFFFF" transform="translate(0,0)"/>
<path d="" fill="#FFFFFF" transform="translate(0,0)"/>
<path d="" fill="#FFFFFF" transform="translate(0,0)"/>
<path d="" fill="#FFFFFF" transform="translate(0,0)"/>
<path d="" fill="#FFFFFF" transform="translate(0,0)"/>
<path d="" fill="#FFFFFF" transform="translate(0,0)"/>
<path d="" fill="#FFFFFF" transform="translate(0,0)"/>
<path d="" fill="#FFFFFF" transform="translate(0,0)"/>
<path d="" fill="#FFFFFF" transform="translate(0,0)"/>
<path d="" fill="#FFFFFF" transform="translate(0,0)"/>
<path d="" fill="#FFFFFF" transform="translate(0,0)"/>
<path d="" fill="#FFFFFF" transform="translate(0,0)"/>
<path d="" fill="#FFFFFF" transform="translate(0,0)"/>
<path d="" fill="#FFFFFF" transform="translate(0,0)"/>
<path d="" fill="#FFFFFF" transform="translate(0,0)"/>
<path d="" fill="#FFFFFF" transform="translate(0,0)"/>
<path d="" fill="#FFFFFF" transform="translate(0,0)"/>
<path d="" fill="#FFFFFF" transform="translate(0,0)"/>
<path d="" fill="#FFFFFF" transform="translate(0,0)"/>
<path d="" fill="#FFFFFF" transform="translate(0,0)"/>
<path d="" fill="#FFFFFF" transform="translate(0,0)"/>
<path d="" fill="#FFFFFF" transform="translate(0,0)"/>
<path d="" fill="#FFFFFF" transform="translate(0,0)"/>
<path d="" fill="#FFFFFF" transform="translate(0,0)"/>
<path d="" fill="#FFFFFF" transform="translate(0,0)"/>
<path d="" fill="#00FFFF" transform="translate(0,0)"/>
<path d="" fill="#00FFFF" transform="translate(0,0)"/>
<path d="" fill="#7F7FFF" transform="translate(0,0)"/>
<path d="" fill="#7F7FFF" transform="translate(0,0)"/>
<path d="" fill="#0000FF" transform="translate(0,0)"/>
<path d="" fill="#0000FF" transform="translate(0,0)"/>
</svg>
