<?xml version="1.0" encoding="UTF-8"?>
<svg version="1.1" xmlns="http://www.w3.org/2000/svg" width="1003" height="316">
<path d="M0 0 C0.87076172 0.01278992 1.74152344 0.02557983 2.63867188 0.03875732 C19.20312553 0.30575856 19.20312553 0.30575856 26.5 3.75 C27.43070313 4.18699219 28.36140625 4.62398437 29.3203125 5.07421875 C37.90266642 10.15089929 44.90205689 17.24918149 48.5 26.75 C48.17 27.74 47.84 28.73 47.5 29.75 C46.72216345 29.74723462 45.9443269 29.74446924 45.14291954 29.74162006 C26.21392104 29.67535871 7.28494569 29.62571867 -11.64414406 29.59456348 C-20.79812409 29.5790965 -29.9520267 29.55801019 -39.10595703 29.52368164 C-47.08479183 29.49377414 -55.06357055 29.47442377 -63.04245985 29.46773452 C-67.26699031 29.46382455 -71.49136035 29.45463909 -75.71583939 29.43280983 C-79.69339743 29.41242332 -83.67072918 29.40617055 -87.6483345 29.41067696 C-89.10680369 29.40985272 -90.56528057 29.40389985 -92.02370453 29.39238358 C-94.0184021 29.3774074 -96.01322153 29.38284559 -98.00796509 29.38923645 C-99.1233346 29.38647107 -100.23870411 29.38370569 -101.3878727 29.38085651 C-105.01451475 29.81102892 -107.40609386 30.82808612 -110.5 32.75 C-113.13632306 38.54670396 -112.77711341 44.63555624 -112.74291992 50.91088867 C-112.74481827 52.01429596 -112.74671661 53.11770325 -112.74867249 54.25454712 C-112.7523686 57.89242727 -112.74168844 61.53010641 -112.73046875 65.16796875 C-112.72927568 67.70754472 -112.72882406 70.24712115 -112.7290802 72.78669739 C-112.72751708 78.10856094 -112.71948878 83.43035554 -112.70581055 88.75219727 C-112.69012735 94.87612865 -112.68481121 100.99999729 -112.6855461 107.12394732 C-112.6861602 113.04367645 -112.68090778 118.96338777 -112.67275429 124.88311195 C-112.66958718 127.38796175 -112.66760482 129.89281334 -112.66686058 132.39766502 C-112.66467365 135.91252044 -112.65587805 139.42729982 -112.64526367 142.94213867 C-112.64571686 143.96333298 -112.64617004 144.98452728 -112.64663696 146.03666687 C-112.63390909 148.94336957 -112.5822428 151.84445285 -112.5 154.75 C-112.45466346 156.36350562 -112.45466346 156.36350562 -112.40841103 158.00960732 C-112.35313932 159.07497404 -112.29786762 160.14034077 -112.24092102 161.23799133 C-112.19582555 162.19878758 -112.15073008 163.15958384 -112.10426807 164.14949512 C-111.33195031 167.47321219 -110.19855939 168.69872218 -107.5 170.75 C-105.306224 171.43712639 -105.306224 171.43712639 -102.93937683 171.4899292 C-102.0569953 171.54520531 -101.17461376 171.60048141 -100.26549339 171.65743256 C-95.66483533 171.8114272 -91.07340546 171.90584011 -86.4699707 171.91113281 C-85.4166153 171.91609772 -84.36325989 171.92106262 -83.27798462 171.92617798 C-79.82724332 171.9406689 -76.37654785 171.94757659 -72.92578125 171.953125 C-71.14881898 171.95736607 -71.14881898 171.95736607 -69.33595848 171.96169281 C-63.07740433 171.97662577 -56.81887292 171.98589475 -50.56030273 171.99023438 C-44.10421145 171.99573673 -37.64832917 172.01981874 -31.19230366 172.04820633 C-26.2157276 172.0668313 -21.23920219 172.07203806 -16.26259422 172.07357025 C-13.88198887 172.07659329 -11.50138434 172.08460999 -9.12081337 172.09775543 C-5.79432777 172.11482634 -2.46835744 172.11293385 0.8581543 172.10644531 C2.32568398 172.12026749 2.32568398 172.12026749 3.82286072 172.1343689 C9.47250131 172.09988108 13.52247376 171.5033768 18.5 168.75 C19.70525943 166.33948113 19.63716136 164.79683464 19.65771484 162.10424805 C19.66797699 161.13952072 19.67823914 160.1747934 19.68881226 159.18083191 C19.69611359 158.13502457 19.70341492 157.08921722 19.7109375 156.01171875 C19.73900775 153.8079353 19.76767222 151.60415936 19.796875 149.40039062 C19.83813937 145.91772686 19.87501738 142.43520294 19.90136719 138.95239258 C19.92897093 135.59687162 19.97484653 132.24199262 20.0234375 128.88671875 C20.02669037 127.8469841 20.02994324 126.80724945 20.03329468 125.73600769 C20.15147533 118.78644667 21.11938068 115.28604192 25.953125 110.13671875 C27.33757812 108.80060547 27.33757812 108.80060547 28.75 107.4375 C34.30446806 102.0066477 39.39894243 96.32270665 44.3125 90.3125 C46.5 87.75 46.5 87.75 48.5 86.75 C49.6275113 90.1325339 49.63385551 92.71191941 49.64526367 96.27832031 C49.64862228 96.93741394 49.6519809 97.59650757 49.65544128 98.27557373 C49.66495381 100.45977663 49.6668957 102.64390265 49.66796875 104.828125 C49.67118522 106.35732046 49.67454959 107.88651562 49.67805481 109.41571045 C49.68404971 112.63033763 49.68589475 115.84493794 49.68530273 119.05957031 C49.68520203 123.13740863 49.69875676 127.21506921 49.71607494 131.29286575 C49.7273219 134.45889032 49.72921797 137.62487396 49.72869301 140.79091644 C49.72985787 142.29129387 49.73419348 143.7916729 49.74202538 145.29203033 C49.89239454 177.12201391 49.89239454 177.12201391 39.45703125 189.09375 C23.13676491 204.57633896 1.65717263 201.91893759 -19.21875 201.953125 C-20.97710426 201.95736607 -20.97710426 201.95736607 -22.77098083 201.96169281 C-28.96630064 201.9765969 -35.16159766 201.9858836 -41.35693359 201.99023438 C-47.71805749 201.99572766 -54.07896831 202.01979934 -60.44002533 202.04820633 C-65.36969604 202.06691166 -70.29931598 202.07204235 -75.22901917 202.07357025 C-77.57313714 202.07657593 -79.91725467 202.08453296 -82.26133728 202.09775543 C-115.25033718 202.27067273 -115.25033718 202.27067273 -126.5 192.75 C-127.13550781 192.2240625 -127.77101563 191.698125 -128.42578125 191.15625 C-137.41519588 182.99455449 -139.9851291 172.45331637 -140.68164825 160.67943954 C-140.75739114 157.44456143 -140.77049217 154.21571443 -140.75878906 150.97998047 C-140.7622937 149.76534119 -140.76579834 148.5507019 -140.76940918 147.29925537 C-140.77664188 144.00595555 -140.77503389 140.71281975 -140.76865101 137.41952276 C-140.76353777 133.95156389 -140.76829688 130.48361488 -140.77142334 127.01565552 C-140.77504666 121.19742913 -140.77030604 115.37925377 -140.76074219 109.56103516 C-140.74985052 102.85810288 -140.75339496 96.15529225 -140.764395 89.4523629 C-140.77350244 83.66856252 -140.77473663 77.88479852 -140.76951766 72.10099328 C-140.76641821 68.65904316 -140.76593256 65.21715004 -140.77259064 61.7752037 C-140.777692 57.93712992 -140.76989518 54.09928713 -140.75878906 50.26123047 C-140.76283752 49.13784271 -140.76688599 48.01445496 -140.77105713 46.85702515 C-140.69665695 32.91815239 -137.70711729 21.29179165 -128.01953125 10.86328125 C-120.04338027 4.17320733 -110.63512759 0.6765435 -100.30859375 0.52880859 C-99.22748447 0.51160074 -99.22748447 0.51160074 -98.12453461 0.49404526 C-95.72889959 0.45735385 -93.33323648 0.42770047 -90.9375 0.3984375 C-89.24539865 0.37474072 -87.5533007 0.35080005 -85.86120605 0.32662964 C-80.40756136 0.25114077 -74.95380673 0.1874854 -69.5 0.125 C-68.579841 0.11409836 -67.65968201 0.10319672 -66.7116394 0.09196472 C-22.18742902 -0.43529374 -22.18742902 -0.43529374 0 0 Z " fill="#065AEE" transform="translate(225.5,42.25)"/>
<path d="M0 0 C0.66 0.66 1.32 1.32 2 2 C1.34 2 0.68 2 0 2 C0.0707373 3.06017334 0.14147461 4.12034668 0.21435547 5.21264648 C1.13815763 20.36602909 1.15452601 35.51318625 1.13037109 50.68774414 C1.12458284 54.37723996 1.1280266 58.06666446 1.13394356 61.75615788 C1.13754799 64.62227422 1.1364127 67.48837343 1.13381577 70.35449028 C1.13315087 71.71685228 1.13395959 73.07921585 1.13629532 74.441576 C1.1388297 76.32831925 1.1342832 78.21506803 1.12939453 80.10180664 C1.12859894 81.17177383 1.12780334 82.24174103 1.12698364 83.34413147 C1 86 1 86 0 89 C3.61443234 85.55677761 6.53515124 82.03784303 9.375 77.9375 C13.77110638 71.67136952 18.29261489 65.50614904 22.875 59.375 C23.51743652 58.5099585 24.15987305 57.64491699 24.82177734 56.75366211 C25.4348877 55.93518799 26.04799805 55.11671387 26.6796875 54.2734375 C27.22351074 53.54560059 27.76733398 52.81776367 28.32763672 52.06787109 C33.04998235 46.22870795 33.04998235 46.22870795 37.375 45.1875 C41 45 41 45 43.6796875 45.51953125 C47.80123834 46.1159439 51.61507597 45.83334722 55.75 45.5 C63.73802612 44.86901306 63.73802612 44.86901306 66 46 C65.39409165 49.2513033 64.31884707 51.19347605 62.26171875 53.765625 C61.69469238 54.48298828 61.12766602 55.20035156 60.54345703 55.93945312 C59.93099121 56.70193359 59.31852539 57.46441406 58.6875 58.25 C57.4063199 59.86881724 56.12639531 61.48862884 54.84765625 63.109375 C54.20199707 63.92599609 53.55633789 64.74261719 52.89111328 65.58398438 C49.56697431 69.83078005 46.35526928 74.16064619 43.1484375 78.49633789 C39.70233409 83.13437523 36.07355857 87.56803698 32.23046875 91.88671875 C30.80685758 93.89599222 30.80685758 93.89599222 31.08569336 96.10351562 C32.43847346 100.38906519 34.88225428 103.76121202 37.3984375 107.45703125 C37.94803131 108.27765549 38.49762512 109.09827972 39.06387329 109.94377136 C40.82673483 112.57182241 42.60074447 115.19213158 44.375 117.8125 C45.53066852 119.53271923 46.68562349 121.25341807 47.83984375 122.97460938 C54.81959956 133.36701204 61.88545707 143.69950454 69 154 C68.67 154.66 68.34 155.32 68 156 C63.19660394 156.22999474 58.40445316 156.35793282 53.59570312 156.39672852 C51.9657974 156.42362518 50.33608516 156.47710512 48.70800781 156.55883789 C35.70631473 157.18499305 35.70631473 157.18499305 31.40545654 153.71261597 C28.35560485 150.23125192 26.26135045 146.23077006 24.15142822 142.1355896 C22.24332649 138.59657419 19.93424523 135.34523468 17.6484375 132.04296875 C16.76740636 130.73515292 15.88849085 129.42590932 15.01171875 128.11523438 C13.675441 126.12325981 12.33774575 124.13231756 10.99560547 122.14428711 C9.66727062 120.17585058 8.34478906 118.20359735 7.0234375 116.23046875 C6.61733246 115.63163376 6.21122742 115.03279877 5.79281616 114.41581726 C3 110.22773902 3 110.22773902 3 108 C2.34 108 1.68 108 1 108 C1.00222061 108.58437836 1.00444122 109.16875671 1.00672913 109.77084351 C1.02880388 115.83745718 1.0439158 121.90405949 1.05493164 127.97070312 C1.05996926 130.23665836 1.06679952 132.50261033 1.07543945 134.76855469 C1.08752996 138.02019047 1.09323392 141.27178339 1.09765625 144.5234375 C1.10281754 145.54118256 1.10797882 146.55892761 1.11329651 147.60751343 C1.11340981 149.01874985 1.11340981 149.01874985 1.11352539 150.45849609 C1.115746 151.28900482 1.11796661 152.11951355 1.12025452 152.97518921 C1 155 1 155 0 157 C-0.66 156.67 -1.32 156.34 -2 156 C-4.10374996 155.84558791 -6.21195119 155.75007361 -8.3203125 155.68359375 C-9.57714844 155.64169922 -10.83398438 155.59980469 -12.12890625 155.55664062 C-13.44761719 155.51732422 -14.76632812 155.47800781 -16.125 155.4375 C-17.46485751 155.39430488 -18.80470156 155.35069027 -20.14453125 155.30664062 C-23.42957815 155.20029019 -26.71470281 155.09826192 -30 155 C-30.02334193 135.36385968 -30.04098555 115.72772216 -30.05181217 96.09157085 C-30.05697237 86.97453536 -30.06400984 77.85750848 -30.07543945 68.74047852 C-30.0853947 60.79573286 -30.09185544 52.85099344 -30.09408849 44.90624171 C-30.09539417 40.69807813 -30.09847101 36.48993239 -30.10573006 32.28177452 C-30.1125035 28.32315669 -30.11461424 24.36456409 -30.11310768 20.40594101 C-30.11338341 18.95106049 -30.1153807 17.49617915 -30.11920547 16.04130363 C-30.12416329 14.05864442 -30.12239273 12.07597175 -30.12025452 10.0933075 C-30.12117631 8.98254695 -30.1220981 7.8717864 -30.12304783 6.72736645 C-30 4 -30 4 -29 1 C-7.82687339 -0.66063738 -7.82687339 -0.66063738 0 0 Z " fill="#065BED" transform="translate(645,60)"/>
<path d="M0 0 C0.94875 0.70125 1.8975 1.4025 2.875 2.125 C3.57625 2.74375 4.2775 3.3625 5 4 C5 4.66 5 5.32 5 6 C5.66 6 6.32 6 7 6 C17.19284597 19.12476498 22.71273179 34.62253518 20.71777344 51.36914062 C20.34367325 53.71141801 19.93358336 56.04302463 19.5 58.375 C18.39923961 64.14928915 18.39923961 64.14928915 18 70 C17.01 70.66 16.02 71.32 15 72 C13.84111582 73.87777659 13.84111582 73.87777659 12.8125 76.0625 C9.96245653 81.42473985 6.18576035 85.63910324 2 90 C1.48695313 90.55945313 0.97390625 91.11890625 0.4453125 91.6953125 C-1 93 -1 93 -4 94 C-5.46210383 94.78468121 -6.91992199 95.57736587 -8.375 96.375 C-24.61062085 104.49281043 -41.72807664 103.11887277 -58.625 97.875 C-73.23389865 89.7589452 -82.4878846 78.58359349 -87.74609375 62.75390625 C-92.30247238 44.62266164 -88.39193649 26.75067949 -79 11 C-69.63135034 -1.97469594 -57.2832789 -8.01600246 -41.7109375 -10.53125 C-26.85572989 -12.12158853 -12.04332041 -9.10592519 0 0 Z M-50.36328125 21.3046875 C-58.70136865 29.94127445 -59.4515805 38.97714776 -59.27734375 50.3046875 C-59.0682615 55.5951965 -58.07573748 59.63873757 -55 64 C-54.55269531 64.65226562 -54.10539063 65.30453125 -53.64453125 65.9765625 C-49.39149318 71.51805446 -44.49334462 73.7493997 -37.625 74.8125 C-30.15878737 75.42302505 -23.84576644 73.78289982 -18 69 C-11.51431393 62.66514383 -9.86673495 55.42317276 -9.625 46.5 C-9.84544961 37.99264905 -11.65417927 30.76089092 -17 24 C-17.70125 23.113125 -18.4025 22.22625 -19.125 21.3125 C-28.00929422 14.16643725 -41.39050521 14.31888984 -50.36328125 21.3046875 Z " fill="#075BED" transform="translate(802,115)"/>
<path d="M0 0 C9.77475245 11.52024396 10.02572627 25.28181639 10.12890625 39.74609375 C10.14590073 41.00406265 10.1628952 42.26203156 10.18040466 43.55812073 C10.2241532 46.86846978 10.2605968 50.17877784 10.29260254 53.48925781 C10.33859129 58.13666072 10.39509499 62.7839278 10.45530701 67.4311676 C10.4866582 69.89216262 10.51372065 72.35321779 10.53553772 74.8143158 C10.63169637 82.9277153 11.09064629 90.97580379 11.75 99.0625 C8.98382437 100.44558781 6.73982 100.17460196 3.6484375 100.16015625 C2.43671875 100.15693359 1.225 100.15371094 -0.0234375 100.15039062 C-1.29445313 100.14201172 -2.56546875 100.13363281 -3.875 100.125 C-5.15375 100.12048828 -6.4325 100.11597656 -7.75 100.11132812 C-10.91671292 100.09951203 -14.08333356 100.08303815 -17.25 100.0625 C-19.25 93.4375 -19.25 93.4375 -19.25 90.0625 C-19.91 90.805 -20.57 91.5475 -21.25 92.3125 C-28.23617625 99.23980398 -37.66758779 101.11746979 -47.1875 101.3125 C-58.08881897 101.06411552 -67.67727814 98.75069407 -76.13671875 91.4296875 C-82.70025382 84.32056891 -85.54806291 75.66530944 -85.25 66.0625 C-84.21883169 57.58521107 -81.50188179 50.97422312 -75.25 45.0625 C-58.9494692 32.77648009 -38.68229013 33.71630325 -19.25 34.0625 C-19.47976394 31.99764776 -19.73470777 29.93558882 -20 27.875 C-20.13921875 26.72644531 -20.2784375 25.57789063 -20.421875 24.39453125 C-21.34958688 20.66180372 -22.59453795 18.80747201 -25.25 16.0625 C-31.51262805 12.93118598 -38.46740312 13.43417167 -45.125 14.9375 C-49.50046092 17.48708344 -49.50046092 17.48708344 -52.25 27.0625 C-61.49 27.0625 -70.73 27.0625 -80.25 27.0625 C-80.25 16.95436588 -78.03594076 8.7643346 -71.25 1.0625 C-53.19354706 -15.63008293 -18.35330783 -17.7415309 0 0 Z M-52.93359375 60.42578125 C-54.99021321 62.98282443 -55.31646556 64.8056878 -55.25 68.0625 C-54.5471983 71.83207274 -54.09681285 74.2430037 -51.3125 76.9375 C-45.0091581 80.37568649 -37.1929003 79.88727598 -30.4375 77.9375 C-25.88934258 76.21458938 -23.31469953 73.81675692 -20.25 70.0625 C-19.02429787 66.67897497 -19.14869846 63.38224133 -19.1875 59.8125 C-19.19652344 58.73484375 -19.20554687 57.6571875 -19.21484375 56.546875 C-19.22644531 55.72703125 -19.23804688 54.9071875 -19.25 54.0625 C-22.22941998 54.00794297 -25.20781531 53.96856149 -28.1875 53.9375 C-29.01830078 53.92074219 -29.84910156 53.90398437 -30.70507812 53.88671875 C-39.12793291 53.82117124 -46.64793415 54.40263179 -52.93359375 60.42578125 Z " fill="#065AEE" transform="translate(495.25,115.9375)"/>
<path d="M0 0 C11.40639553 7.8087388 17.75750535 19.90119707 21.2734375 33.02734375 C23.88272665 50.75081724 21.27855079 68.77255201 10.49389648 83.46606445 C1.40129296 94.6890648 -11.18376964 100.79885135 -25.3125 102.83984375 C-40.37499252 103.99849702 -54.90527887 101.29577982 -67.5 92.65234375 C-68.098125 92.05421875 -68.69625 91.45609375 -69.3125 90.83984375 C-69.3125 90.17984375 -69.3125 89.51984375 -69.3125 88.83984375 C-69.9725 88.83984375 -70.6325 88.83984375 -71.3125 88.83984375 C-82.45760825 76.6875155 -87.2824811 62.20348055 -87.3125 45.83984375 C-86.55784144 28.96662585 -80.97077138 14.45884819 -68.3125 2.83984375 C-48.6025833 -13.73948651 -21.2382177 -13.08030856 0 0 Z M-48.5234375 23.01953125 C-55.12941344 29.74089541 -57.32118827 38.47134184 -57.30859375 47.703125 C-56.7627975 56.09909717 -54.60363962 63.18812537 -49.3125 69.83984375 C-41.46503566 75.76548009 -33.7274317 75.5002097 -24.3125 74.83984375 C-18.5723551 73.2879479 -14.57484552 68.61473129 -11.3125 63.83984375 C-6.65089977 55.29357665 -7.06671906 43.72087634 -9.3125 34.40234375 C-11.68147574 27.75573883 -16.51692699 22.70355909 -22.3125 18.83984375 C-31.92403752 15.63599791 -40.58900638 16.47599642 -48.5234375 23.01953125 Z " fill="#065AED" transform="translate(916.3125,114.16015625)"/>
<path d="M0 0 C37.29 0 74.58 0 113 0 C113 7.26 113 14.52 113 22 C113.99 23.98 113.99 23.98 115 26 C115 26.33 115 26.66 115 27 C101.14 27 87.28 27 73 27 C73 66.93 73 106.86 73 148 C64.05572809 152.47213595 52.99362854 148.35691531 43 148 C43 108.07 43 68.14 43 27 C22.21 27.495 22.21 27.495 1 28 C0.19660375 24.78641498 -0.11126742 22.72786339 -0.0625 19.5234375 C-0.05476563 18.688125 -0.04703125 17.8528125 -0.0390625 16.9921875 C-0.02617187 16.12851563 -0.01328125 15.26484375 0 14.375 C0.0254629 12.65370809 0.04651171 10.93234349 0.0625 9.2109375 C0.07410156 8.45087402 0.08570313 7.69081055 0.09765625 6.90771484 C0.12332635 4.91256704 0.12332635 4.91256704 -1 3 C-0.67 2.01 -0.34 1.02 0 0 Z " fill="#065AEE" transform="translate(308,67)"/>
<path d="M0 0 C1.51231201 0.01135986 1.51231201 0.01135986 3.05517578 0.02294922 C14.40465735 0.27313087 25.02309021 2.57826769 33.6875 10.4375 C40.45025546 18.18122658 42.6875 26.31043359 42.6875 36.4375 C34.1075 36.4375 25.5275 36.4375 16.6875 36.4375 C15.3675 33.7975 14.0475 31.1575 12.6875 28.4375 C8.85104896 24.50267842 5.48404252 24.13032066 0.1875 23.9375 C-5.15380387 24.11316487 -5.15380387 24.11316487 -10.0625 26 C-13.01026731 29.19341459 -13.4668456 31.11582325 -13.3125 35.4375 C-10.5172171 38.97951333 -7.90676041 40.20944068 -3.625 41.4375 C-2.4803125 41.7675 -1.335625 42.0975 -0.15625 42.4375 C4.00474749 43.52003593 8.18255701 44.4865267 12.375 45.4375 C23.16410426 47.91782255 33.66286315 50.64567184 40.03515625 60.52734375 C44.58856102 69.2914239 45.38506081 79.79880975 42.5625 89.3125 C38.77903832 98.75363817 32.11924233 104.56978583 22.9453125 108.66015625 C7.53462999 114.61525378 -10.21082462 114.10369708 -25.5625 108.1875 C-35.19433033 103.88179807 -40.26664627 98.2612982 -44.3125 88.4375 C-45.25612387 84.78942305 -45.89259516 81.18044482 -46.3125 77.4375 C-42.89673991 75.34373911 -40.41518567 75.25879155 -36.453125 75.4609375 C-34.78056641 75.53828125 -34.78056641 75.53828125 -33.07421875 75.6171875 C-31.91535156 75.68164062 -30.75648438 75.74609375 -29.5625 75.8125 C-27.80099609 75.89757812 -27.80099609 75.89757812 -26.00390625 75.984375 C-23.10614353 76.12572928 -20.20926251 76.27713219 -17.3125 76.4375 C-17.09335937 77.05238281 -16.87421875 77.66726562 -16.6484375 78.30078125 C-15.08414363 82.28782293 -14.06340979 84.88178409 -10.5625 87.47265625 C-6.75967202 88.60162081 -3.24620014 88.91566795 0.6875 88.875 C1.37328125 88.89498047 2.0590625 88.91496094 2.765625 88.93554688 C7.86773276 88.93067845 10.77224199 87.64252066 14.6875 84.4375 C16.13180855 81.54888291 16.06438506 79.64102299 15.6875 76.4375 C12.01583826 71.79143572 8.44731587 70.43436327 2.8125 69.375 C1.29002683 69.04975409 -0.23210337 68.72289909 -1.75390625 68.39453125 C-2.51719238 68.23549316 -3.28047852 68.07645508 -4.06689453 67.91259766 C-30.88202567 62.23938118 -30.88202567 62.23938118 -38.19921875 52.33203125 C-43.059411 44.06117777 -43.694673 34.74777794 -41.65625 25.44140625 C-38.52936997 15.72381787 -32.85431086 9.94196126 -24.23046875 4.76171875 C-16.21402006 1.12373199 -8.76815803 -0.0925438 0 0 Z " fill="#065AED" transform="translate(561.3125,104.5625)"/>
<path d="M0 0 C3.23547321 1.82659101 5.46675491 4.14217094 7.4375 7.3125 C8.25455739 11.21621865 8.4146503 14.27999365 7 18 C4.34072165 21.66277962 1.17260776 24.78167743 -2 28 C-3.41405771 29.51556434 -4.81345059 31.04377535 -6.21191406 32.57373047 C-11.12035796 37.9418334 -16.09577025 43.24841802 -21.0625 48.5625 C-25.42996583 53.23776246 -29.79156127 57.91815503 -34.125 62.625 C-34.97320312 63.54539062 -35.82140625 64.46578125 -36.6953125 65.4140625 C-39.04482038 67.98730071 -39.04482038 67.98730071 -41.1796875 70.8359375 C-41.78039062 71.55007812 -42.38109375 72.26421875 -43 73 C-43.66 73 -44.32 73 -45 73 C-45.23332031 73.56203125 -45.46664062 74.1240625 -45.70703125 74.703125 C-47.31937076 77.56734142 -49.3193562 79.47252021 -51.6875 81.75 C-56.78757989 86.74763926 -61.44001847 91.99480429 -66.06640625 97.42578125 C-66.76636719 98.23402344 -67.46632813 99.04226562 -68.1875 99.875 C-68.82042969 100.61492187 -69.45335937 101.35484375 -70.10546875 102.1171875 C-73.33658617 105.32831863 -76.23391184 106.33957208 -80.75 106.5625 C-86.03333075 106.45388527 -88.47405759 104.65094241 -92.1328125 100.9921875 C-92.74898437 100.33476562 -93.36515625 99.67734375 -94 99 C-95.18722964 97.85388654 -96.37472237 96.70804554 -97.5625 95.5625 C-100.4793914 92.5998278 -103.21128864 89.50696643 -105.92578125 86.359375 C-108.52630162 83.40134429 -111.19764312 80.51339658 -113.875 77.625 C-115.42423587 75.9497706 -116.97311888 74.27421548 -118.52197266 72.59863281 C-119.90349627 71.10437833 -121.28570678 69.610759 -122.66796875 68.1171875 C-123.45816406 67.25351563 -124.24835938 66.38984375 -125.0625 65.5 C-125.75472656 64.7471875 -126.44695312 63.994375 -127.16015625 63.21875 C-130.69763959 58.95274037 -132.58883269 55.76386325 -132.3515625 50.05859375 C-131.56720227 45.46572885 -129.30200021 42.15320019 -125.8125 39.0625 C-121.87573201 37.57527654 -118.14042174 37.1365623 -114 38 C-109.34637742 40.62734484 -105.89015197 43.97520353 -102.375 47.9375 C-101.33079198 49.08990067 -100.28651915 50.24224262 -99.2421875 51.39453125 C-98.71077148 51.98572754 -98.17935547 52.57692383 -97.63183594 53.18603516 C-94.93771065 56.18085127 -92.22129886 59.15488944 -89.5 62.125 C-89.00806152 62.66890381 -88.51612305 63.21280762 -88.00927734 63.77319336 C-85.51640903 66.49780641 -83.05263347 68.9121139 -80 71 C-74.73324021 65.82861413 -69.5927322 60.63492008 -64.80078125 55.01953125 C-61.9540374 51.82697904 -58.88513414 48.86452033 -55.8203125 45.8828125 C-53.93616102 44.12246661 -53.93616102 44.12246661 -53 42 C-52.34 42 -51.68 42 -51 42 C-50.75378906 41.42507812 -50.50757813 40.85015625 -50.25390625 40.2578125 C-48.80206947 37.64360173 -47.09712451 35.93663792 -44.9375 33.875 C-42.08428067 31.22095 -42.08428067 31.22095 -40 28 C-39.34 28 -38.68 28 -38 28 C-37.68095703 27.18789062 -37.68095703 27.18789062 -37.35546875 26.359375 C-35.50989868 23.14691298 -32.96073263 20.79398423 -30.3125 18.25 C-26.75669456 14.77999147 -23.31653986 11.31550383 -20.125 7.5 C-14.62083419 1.04267377 -8.63772382 -2.38394646 0 0 Z " fill="#065AEE" transform="translate(267,92)"/>
<path d="M0 0 C1.30559875 0.01932083 1.30559875 0.01932083 2.63757324 0.03903198 C19.20330088 0.30584133 19.20330088 0.30584133 26.5 3.75 C27.43070313 4.18699219 28.36140625 4.62398437 29.3203125 5.07421875 C37.90266642 10.15089929 44.90205689 17.24918149 48.5 26.75 C48.17 27.74 47.84 28.73 47.5 29.75 C46.72216345 29.74723462 45.9443269 29.74446924 45.14291954 29.74162006 C26.21392104 29.67535871 7.28494569 29.62571867 -11.64414406 29.59456348 C-20.79812409 29.5790965 -29.9520267 29.55801019 -39.10595703 29.52368164 C-47.08479183 29.49377414 -55.06357055 29.47442377 -63.04245985 29.46773452 C-67.26699031 29.46382455 -71.49136035 29.45463909 -75.71583939 29.43280983 C-79.69339743 29.41242332 -83.67072918 29.40617055 -87.6483345 29.41067696 C-89.10680369 29.40985272 -90.56528057 29.40389985 -92.02370453 29.39238358 C-94.0184021 29.3774074 -96.01322153 29.38284559 -98.00796509 29.38923645 C-99.1233346 29.38647107 -100.23870411 29.38370569 -101.3878727 29.38085651 C-105.01451475 29.81102892 -107.40609386 30.82808612 -110.5 32.75 C-113.13632306 38.54670396 -112.77711341 44.63555624 -112.74291992 50.91088867 C-112.74481827 52.01429596 -112.74671661 53.11770325 -112.74867249 54.25454712 C-112.7523686 57.89242727 -112.74168844 61.53010641 -112.73046875 65.16796875 C-112.72927568 67.70754472 -112.72882406 70.24712115 -112.7290802 72.78669739 C-112.72751708 78.10856094 -112.71948878 83.43035554 -112.70581055 88.75219727 C-112.69012735 94.87612865 -112.68481121 100.99999729 -112.6855461 107.12394732 C-112.6861602 113.04367645 -112.68090778 118.96338777 -112.67275429 124.88311195 C-112.66958718 127.38796175 -112.66760482 129.89281334 -112.66686058 132.39766502 C-112.66467365 135.91252044 -112.65587805 139.42729982 -112.64526367 142.94213867 C-112.64571686 143.96333298 -112.64617004 144.98452728 -112.64663696 146.03666687 C-112.63390909 148.94336957 -112.5822428 151.84445285 -112.5 154.75 C-112.45466346 156.36350562 -112.45466346 156.36350562 -112.40841103 158.00960732 C-112.35313932 159.07497404 -112.29786762 160.14034077 -112.24092102 161.23799133 C-112.19582555 162.19878758 -112.15073008 163.15958384 -112.10426807 164.14949512 C-111.33195031 167.47321219 -110.19855939 168.69872218 -107.5 170.75 C-105.306224 171.43712639 -105.306224 171.43712639 -102.93937683 171.4899292 C-102.0569953 171.54520531 -101.17461376 171.60048141 -100.26549339 171.65743256 C-95.66483533 171.8114272 -91.07340546 171.90584011 -86.4699707 171.91113281 C-85.4166153 171.91609772 -84.36325989 171.92106262 -83.27798462 171.92617798 C-79.82724332 171.9406689 -76.37654785 171.94757659 -72.92578125 171.953125 C-71.14881898 171.95736607 -71.14881898 171.95736607 -69.33595848 171.96169281 C-63.07740433 171.97662577 -56.81887292 171.98589475 -50.56030273 171.99023438 C-44.10421145 171.99573673 -37.64832917 172.01981874 -31.19230366 172.04820633 C-26.2157276 172.0668313 -21.23920219 172.07203806 -16.26259422 172.07357025 C-13.88198887 172.07659329 -11.50138434 172.08460999 -9.12081337 172.09775543 C-5.79432777 172.11482634 -2.46835744 172.11293385 0.8581543 172.10644531 C2.32568398 172.12026749 2.32568398 172.12026749 3.82286072 172.1343689 C9.47250131 172.09988108 13.52247376 171.5033768 18.5 168.75 C19.70525943 166.33948113 19.63716136 164.79683464 19.65771484 162.10424805 C19.66797699 161.13952072 19.67823914 160.1747934 19.68881226 159.18083191 C19.69611359 158.13502457 19.70341492 157.08921722 19.7109375 156.01171875 C19.73900775 153.8079353 19.76767222 151.60415936 19.796875 149.40039062 C19.83813937 145.91772686 19.87501738 142.43520294 19.90136719 138.95239258 C19.92897093 135.59687162 19.97484653 132.24199262 20.0234375 128.88671875 C20.02669037 127.8469841 20.02994324 126.80724945 20.03329468 125.73600769 C20.15147533 118.78644667 21.11938068 115.28604192 25.953125 110.13671875 C27.33757812 108.80060547 27.33757812 108.80060547 28.75 107.4375 C34.30446806 102.0066477 39.39894243 96.32270665 44.3125 90.3125 C46.5 87.75 46.5 87.75 48.5 86.75 C49.56596701 89.94790104 49.62686941 92.23414606 49.62939453 95.5949707 C49.63254669 96.79664383 49.63569885 97.99831696 49.63894653 99.23640442 C49.63591019 101.18639595 49.63591019 101.18639595 49.6328125 103.17578125 C49.63348639 104.52475502 49.63445712 105.87372867 49.63571167 107.22270203 C49.63718616 110.05139318 49.63504306 112.88005275 49.63037109 115.70874023 C49.62469034 119.32332295 49.62794385 122.93783113 49.63394356 126.55241108 C49.63756988 129.33976291 49.6364008 132.12709731 49.63381577 134.91444969 C49.63282941 136.89188562 49.63585301 138.86932223 49.63894653 140.84675598 C49.63421829 142.66345039 49.63421829 142.66345039 49.62939453 144.5168457 C49.62859894 145.57813187 49.62780334 146.63941803 49.62698364 147.73286438 C49.49740561 150.81164287 49.07015533 153.72436367 48.5 156.75 C48.17 156.75 47.84 156.75 47.5 156.75 C47.5 135.3 47.5 113.85 47.5 91.75 C46.84 91.75 46.18 91.75 45.5 91.75 C45.25636719 92.32234375 45.01273438 92.8946875 44.76171875 93.484375 C43.27482702 96.15433538 41.51916092 97.88829007 39.3125 100 C35.68840495 103.53655652 32.2905505 107.16978854 29.0078125 111.0234375 C27.5 112.75 27.5 112.75 25.93179321 114.06045532 C24.03944674 116.29346207 24.11115923 117.60595729 24.08349609 120.50927734 C24.06692963 121.47392914 24.05036316 122.43858093 24.03329468 123.4324646 C24.03004181 124.47311066 24.02678894 125.51375671 24.0234375 126.5859375 C24.00785797 127.65744049 23.99227844 128.72894348 23.97622681 129.83291626 C23.9286317 133.26360309 23.90093355 136.69408678 23.875 140.125 C23.83846593 143.54862687 23.79776273 146.97213989 23.75234985 150.3956604 C23.72521597 152.52692022 23.70382474 154.65826267 23.68881226 156.78964233 C23.67855011 157.76059845 23.66828796 158.73155457 23.65771484 159.73193359 C23.65121918 160.58226166 23.64472351 161.43258972 23.63803101 162.3086853 C23.59248077 163.11431915 23.54693054 163.919953 23.5 164.75 C23.4951207 165.98805893 23.4951207 165.98805893 23.49014282 167.25112915 C22.11258097 170.72774794 20.18835574 171.95370183 16.97862625 173.7705822 C12.28187366 175.62648246 7.56904749 175.43446522 2.57958984 175.38110352 C1.40787735 175.38825882 0.23616486 175.39541412 -0.97105408 175.40278625 C-4.82745862 175.41963589 -8.68269481 175.40029276 -12.5390625 175.37890625 C-15.22611164 175.37737304 -17.91314356 175.38214032 -20.60018921 175.38621521 C-26.22382971 175.39072587 -31.84713646 175.3749276 -37.47070312 175.34692383 C-43.96246609 175.31484497 -50.45362843 175.31490283 -56.94543421 175.3321386 C-63.20643968 175.34802565 -69.46722597 175.34125828 -75.72822189 175.32420158 C-78.38595462 175.31901996 -81.04370464 175.31950131 -83.70143509 175.32574654 C-87.41412829 175.33119697 -91.12580188 175.31082764 -94.83837891 175.28344727 C-96.48432793 175.29323608 -96.48432793 175.29323608 -98.16352844 175.30322266 C-104.02419051 175.22973646 -108.10060471 175.05189488 -112.5 170.75 C-116.30869577 164.62752665 -115.91897038 158.42344686 -115.87231445 151.37646484 C-115.87596512 150.14477066 -115.87961578 148.91307648 -115.88337708 147.64405823 C-115.89007318 144.28246969 -115.88340076 140.92143899 -115.87004495 137.55990553 C-115.85868587 134.03486078 -115.86284126 130.50982954 -115.86479187 126.98477173 C-115.86567321 121.06857537 -115.85462612 115.15249396 -115.83618164 109.23632812 C-115.81499686 102.40217833 -115.81150925 95.56819658 -115.8177436 88.73402059 C-115.82344243 82.14896836 -115.81778675 75.56397514 -115.80657005 68.97893143 C-115.80193293 66.1808017 -115.80104634 63.38270817 -115.8031559 60.58457565 C-115.80539304 56.67790237 -115.79091512 52.77138826 -115.7746582 48.86474609 C-115.77713562 47.70617599 -115.77961304 46.5476059 -115.78216553 45.35392761 C-115.77153831 43.75589546 -115.77153831 43.75589546 -115.76069641 42.12557983 C-115.75864354 41.20273886 -115.75659067 40.27989788 -115.75447559 39.32909203 C-115.30305332 34.75395941 -113.99970579 32.26334072 -110.79673767 28.97297668 C-105.11157859 25.24825106 -98.28902722 26.09611715 -91.75219727 26.18237305 C-90.25364733 26.18378479 -88.75509395 26.18298907 -87.25654602 26.18016052 C-83.20306514 26.17872986 -79.15032873 26.20806214 -75.09702039 26.24303031 C-70.85564813 26.2743526 -66.61425755 26.27722916 -62.37278748 26.28315735 C-54.34759836 26.2986786 -46.32275107 26.33968361 -38.29771227 26.3899048 C-29.15871536 26.44585192 -20.01970186 26.47329823 -10.88057625 26.49838197 C7.91314273 26.55060114 26.70654385 26.6385098 45.5 26.75 C44.4157311 24.99394143 43.32452608 23.24216445 42.23046875 21.4921875 C41.62356201 20.51620605 41.01665527 19.54022461 40.39135742 18.53466797 C34.94951832 10.52258371 27.6119337 6.62130346 18.5 3.75 C14.14313433 3.10048478 9.87909615 3.05741522 5.47949219 3.09057617 C3.61880852 3.07485062 3.61880852 3.07485062 1.72053528 3.05880737 C-1.64067629 3.0351485 -5.00053075 3.0330797 -8.36172199 3.04110122 C-11.88917011 3.04425108 -15.41642167 3.01912011 -18.94378662 2.99714661 C-25.6051671 2.95986629 -32.26634351 2.94756818 -38.92781806 2.9445222 C-46.51934311 2.93981386 -54.11066594 2.906834 -61.70210123 2.87162435 C-77.30138638 2.79989953 -92.90054879 2.76320679 -108.5 2.75 C-108.17 2.09 -107.84 1.43 -107.5 0.75 C-27.11182833 -0.5428387 -27.11182833 -0.5428387 0 0 Z " fill="#0539C6" transform="translate(225.5,42.25)"/>
<path d="M0 0 C-2.36469004 1.57646002 -4.61067144 2.83629397 -7.125 4.125 C-16.95285109 9.63818476 -23.11606567 16.33018115 -27 27 C-27.77947466 31.7377715 -27.79291553 36.35351353 -27.72875977 41.14697266 C-27.73198759 42.52167064 -27.73781748 43.89636455 -27.74601746 45.27104187 C-27.76042167 48.96757876 -27.73777899 52.66301031 -27.70715833 56.35941362 C-27.6805818 60.24776241 -27.68609365 64.13608449 -27.6872406 68.02450562 C-27.68444122 74.54907456 -27.65853148 81.07322196 -27.61743164 87.59765625 C-27.57022643 95.11862825 -27.55443935 102.63913988 -27.5566383 110.16024935 C-27.55867142 118.20311165 -27.53781651 126.24579889 -27.51029849 134.28860807 C-27.50393443 136.59136475 -27.50177909 138.8940928 -27.50058174 141.19685745 C-27.49754702 144.82668684 -27.4790612 148.45613659 -27.44908333 152.08584023 C-27.43627835 154.03753897 -27.43781101 155.98931568 -27.43991089 157.9410553 C-27.31443902 169.54001885 -25.34057006 178.59514809 -17 187 C-8.21456483 194.13530126 -0.61631146 195.29794029 10.47192383 195.2746582 C11.72630753 195.27976913 12.98069122 195.28488007 14.27308655 195.29014587 C17.70305814 195.30164424 21.13278765 195.30411851 24.56276155 195.30158257 C27.43277735 195.30051003 30.30277107 195.30540363 33.17278212 195.310188 C39.94861972 195.32127124 46.72440187 195.32172773 53.50024414 195.31567383 C60.47349414 195.30963895 67.44654212 195.32193529 74.41975766 195.3432439 C80.42083192 195.36090269 86.42184213 195.3668544 92.42294139 195.36360615 C96.00080052 195.36179942 99.57851564 195.36436781 103.15635109 195.37832069 C107.15099666 195.39331679 111.14523561 195.38389169 115.13989258 195.37231445 C116.90061096 195.38378006 116.90061096 195.38378006 118.69689941 195.39547729 C130.44156817 195.32041789 138.10233509 192.35604688 146.69140625 184.44140625 C153.79349721 177.01892021 155.55328851 166.84144529 157 157 C157.33 157 157.66 157 158 157 C158.7417908 167.65294005 156.60915627 176.77188406 149.75390625 185.15625 C139.65734981 195.77000198 129.25467268 198.50179457 115 199 C106.76179256 199.18924718 98.52122636 199.18963082 90.28125 199.203125 C88.52289574 199.20736607 88.52289574 199.20736607 86.72901917 199.21169281 C80.53369936 199.2265969 74.33840234 199.2358836 68.14306641 199.24023438 C61.78194251 199.24572766 55.42103169 199.26979934 49.05997467 199.29820633 C44.13030396 199.31691166 39.20068402 199.32204235 34.27098083 199.32357025 C31.92686286 199.32657593 29.58274533 199.33453296 27.23866272 199.34775543 C-5.75033718 199.52067273 -5.75033718 199.52067273 -17 190 C-17.63550781 189.4740625 -18.27101563 188.948125 -18.92578125 188.40625 C-27.91519588 180.24455449 -30.4851291 169.70331637 -31.18164825 157.92943954 C-31.25739114 154.69456143 -31.27049217 151.46571443 -31.25878906 148.22998047 C-31.2622937 147.01534119 -31.26579834 145.8007019 -31.26940918 144.54925537 C-31.27664188 141.25595555 -31.27503389 137.96281975 -31.26865101 134.66952276 C-31.26353777 131.20156389 -31.26829688 127.73361488 -31.27142334 124.26565552 C-31.27504666 118.44742913 -31.27030604 112.62925377 -31.26074219 106.81103516 C-31.24985052 100.10810288 -31.25339496 93.40529225 -31.264395 86.7023629 C-31.27350244 80.91856252 -31.27473663 75.13479852 -31.26951766 69.35099328 C-31.26641821 65.90904316 -31.26593256 62.46715004 -31.27259064 59.0252037 C-31.277692 55.18712992 -31.26989518 51.34928713 -31.25878906 47.51123047 C-31.26283752 46.38784271 -31.26688599 45.26445496 -31.27105713 44.10702515 C-31.19573891 29.99615719 -28.14600077 18.55184712 -18.31640625 8.05078125 C-13.08937108 3.42313628 -7.16105131 -0.50320901 0 0 Z " fill="#0844CE" transform="translate(116,45)"/>
<path d="M0 0 C37.29 0 74.58 0 113 0 C113 7.26 113 14.52 113 22 C113.99 23.98 113.99 23.98 115 26 C115 26.33 115 26.66 115 27 C101.14 27 87.28 27 73 27 C73 66.93 73 106.86 73 148 C64.05572809 152.47213595 52.99362854 148.35691531 43 148 C43 108.07 43 68.14 43 27 C22.21 27.495 22.21 27.495 1 28 C0.19660375 24.78641498 -0.11126742 22.72786339 -0.0625 19.5234375 C-0.05476563 18.688125 -0.04703125 17.8528125 -0.0390625 16.9921875 C-0.02617187 16.12851563 -0.01328125 15.26484375 0 14.375 C0.0254629 12.65370809 0.04651171 10.93234349 0.0625 9.2109375 C0.07410156 8.45087402 0.08570313 7.69081055 0.09765625 6.90771484 C0.12332635 4.91256704 0.12332635 4.91256704 -1 3 C-0.67 2.01 -0.34 1.02 0 0 Z M3 2 C3 9.92 3 17.84 3 26 C23.295 26.495 23.295 26.495 44 27 C44.33 66.27 44.66 105.54 45 146 C53.58 146 62.16 146 71 146 C71 106.07 71 66.14 71 25 C84.2 25 97.4 25 111 25 C111 17.41 111 9.82 111 2 C75.36 2 39.72 2 3 2 Z " fill="#053DC6" transform="translate(308,67)"/>
<path d="M0 0 C3.23547321 1.82659101 5.46675491 4.14217094 7.4375 7.3125 C8.25455739 11.21621865 8.4146503 14.27999365 7 18 C4.34061648 21.66292447 1.1729423 24.78172995 -2 28 C-4.0365334 30.17311366 -6.04817334 32.36881766 -8.0625 34.5625 C-8.82566528 35.38500244 -8.82566528 35.38500244 -9.60424805 36.22412109 C-13.32258488 40.23271921 -16.93274756 44.32392487 -20.4765625 48.48828125 C-22 50 -22 50 -24 50 C-22.58261511 46.74792908 -20.87473588 44.68638933 -18.3125 42.25 C-14.92851221 38.95763642 -11.81087965 35.53819766 -8.73828125 31.95703125 C-6.40404295 29.32904611 -3.91235704 26.88411105 -1.3828125 24.4453125 C0.10854485 23.02890223 0.10854485 23.02890223 1 21 C1.66 21 2.32 21 3 21 C5.00356948 16.86763795 5.4901127 13.57438521 5 9 C3.2170386 6.02839766 1.69698992 4.42593828 -1.25 2.625 C-5.04268787 1.76302549 -8.31390704 1.83386333 -12 3 C-14.88598133 5.02359586 -17.18382006 7.47389113 -19.5625 10.0625 C-20.21871338 10.74771729 -20.87492676 11.43293457 -21.55102539 12.13891602 C-25.29823177 16.07687226 -28.95726463 20.09261771 -32.46484375 24.24609375 C-34.77651891 26.88716792 -37.28858735 29.31311882 -39.8125 31.75 C-42.3620287 34.37237237 -44.73723326 37.12078356 -47.13525391 39.88134766 C-50.0760171 43.22252898 -53.13043485 46.45300867 -56.1875 49.6875 C-61.56965567 55.40284315 -66.92302092 61.1423733 -72.23120117 66.92651367 C-73.48307966 68.28838892 -74.7411962 69.64452336 -76 71 C-76.52078125 71.63292969 -77.0415625 72.26585937 -77.578125 72.91796875 C-78.04734375 73.27503906 -78.5165625 73.63210937 -79 74 C-83.63408597 73.35703237 -85.81430053 70.29451592 -88.75 66.9375 C-89.82027419 65.74358872 -90.89188881 64.5508777 -91.96484375 63.359375 C-92.4841748 62.77994141 -93.00350586 62.20050781 -93.53857422 61.60351562 C-95.3982852 59.56299078 -97.33940523 57.61812111 -99.3125 55.6875 C-102.5677736 52.48659423 -105.5852915 49.13065969 -108.5546875 45.6640625 C-111.87132579 41.84544653 -113.8228274 41.46579827 -118.74609375 41.0390625 C-121.70629988 40.9877591 -123.50482348 41.38547401 -126 43 C-128.40928119 45.90775316 -128.97091243 47.72851598 -129.375 51.5 C-128.77339435 57.11498608 -125.73807473 60.50146661 -122 64.5625 C-121.19949219 65.43648438 -120.39898437 66.31046875 -119.57421875 67.2109375 C-118.72472656 68.13132812 -117.87523437 69.05171875 -117 70 C-116.16082031 70.92039062 -115.32164062 71.84078125 -114.45703125 72.7890625 C-110.4402084 77.19154781 -106.40458765 81.57449479 -102.328125 85.921875 C-101.70317139 86.58872314 -101.07821777 87.25557129 -100.43432617 87.94262695 C-99.21485703 89.24225945 -97.99374549 90.54035343 -96.77075195 91.83666992 C-94.31050598 94.45761954 -91.9518672 97.0606391 -89.71484375 99.87890625 C-88.17230054 102.08650886 -88.17230054 102.08650886 -86 103 C-83.95931366 103.2357855 -83.95931366 103.2357855 -81.6875 103.25 C-80.92824219 103.27578125 -80.16898438 103.3015625 -79.38671875 103.328125 C-72.80666061 102.42350162 -68.80503967 96.87803868 -64.5625 92.25 C-63.86092773 91.49428711 -63.15935547 90.73857422 -62.43652344 89.95996094 C-60.98872456 88.39993971 -59.54325617 86.83775247 -58.10009766 85.2734375 C-55.57394924 82.53878346 -53.0304107 79.82078338 -50.4855957 77.10351562 C-46.50216776 72.84944544 -42.52899231 68.58714535 -38.6015625 64.28125 C-38.05790039 63.68666992 -37.51423828 63.09208984 -36.95410156 62.47949219 C-35.93479611 61.36311003 -34.91830641 60.24414737 -33.90527344 59.12207031 C-31.4468646 56.43085103 -29.01059512 54.06360041 -26 52 C-27.63327548 56.00632868 -30.44284322 58.84716108 -33.375 61.9375 C-34.34269159 62.96599574 -35.30885979 63.99592709 -36.2734375 65.02734375 C-36.73717773 65.52218262 -37.20091797 66.01702148 -37.67871094 66.52685547 C-38.92840273 67.92017407 -40.0815192 69.39838535 -41.2265625 70.87890625 C-41.81179687 71.57886719 -42.39703125 72.27882813 -43 73 C-43.66 73 -44.32 73 -45 73 C-45.23332031 73.56203125 -45.46664062 74.1240625 -45.70703125 74.703125 C-47.31937076 77.56734142 -49.3193562 79.47252021 -51.6875 81.75 C-56.78757989 86.74763926 -61.44001847 91.99480429 -66.06640625 97.42578125 C-66.76636719 98.23402344 -67.46632813 99.04226562 -68.1875 99.875 C-68.82042969 100.61492187 -69.45335937 101.35484375 -70.10546875 102.1171875 C-73.33658617 105.32831863 -76.23391184 106.33957208 -80.75 106.5625 C-86.03333075 106.45388527 -88.47405759 104.65094241 -92.1328125 100.9921875 C-92.74898437 100.33476562 -93.36515625 99.67734375 -94 99 C-95.18722964 97.85388654 -96.37472237 96.70804554 -97.5625 95.5625 C-100.4793914 92.5998278 -103.21128864 89.50696643 -105.92578125 86.359375 C-108.52630162 83.40134429 -111.19764312 80.51339658 -113.875 77.625 C-115.42423587 75.9497706 -116.97311888 74.27421548 -118.52197266 72.59863281 C-119.90349627 71.10437833 -121.28570678 69.610759 -122.66796875 68.1171875 C-123.45816406 67.25351563 -124.24835938 66.38984375 -125.0625 65.5 C-125.75472656 64.7471875 -126.44695312 63.994375 -127.16015625 63.21875 C-130.69763959 58.95274037 -132.58883269 55.76386325 -132.3515625 50.05859375 C-131.56720227 45.46572885 -129.30200021 42.15320019 -125.8125 39.0625 C-121.87573201 37.57527654 -118.14042174 37.1365623 -114 38 C-109.34637742 40.62734484 -105.89015197 43.97520353 -102.375 47.9375 C-101.33079198 49.08990067 -100.28651915 50.24224262 -99.2421875 51.39453125 C-98.71077148 51.98572754 -98.17935547 52.57692383 -97.63183594 53.18603516 C-94.93771065 56.18085127 -92.22129886 59.15488944 -89.5 62.125 C-89.00806152 62.66890381 -88.51612305 63.21280762 -88.00927734 63.77319336 C-85.51640903 66.49780641 -83.05263347 68.9121139 -80 71 C-74.73324021 65.82861413 -69.5927322 60.63492008 -64.80078125 55.01953125 C-61.9540374 51.82697904 -58.88513414 48.86452033 -55.8203125 45.8828125 C-53.93616102 44.12246661 -53.93616102 44.12246661 -53 42 C-52.34 42 -51.68 42 -51 42 C-50.75378906 41.42507812 -50.50757813 40.85015625 -50.25390625 40.2578125 C-48.80206947 37.64360173 -47.09712451 35.93663792 -44.9375 33.875 C-42.08428067 31.22095 -42.08428067 31.22095 -40 28 C-39.34 28 -38.68 28 -38 28 C-37.68095703 27.18789062 -37.68095703 27.18789062 -37.35546875 26.359375 C-35.50989868 23.14691298 -32.96073263 20.79398423 -30.3125 18.25 C-26.75669456 14.77999147 -23.31653986 11.31550383 -20.125 7.5 C-14.62083419 1.04267377 -8.63772382 -2.38394646 0 0 Z " fill="#063EC9" transform="translate(267,92)"/>
<path d="M0 0 C1.30559875 0.01932083 1.30559875 0.01932083 2.63757324 0.03903198 C19.20330088 0.30584133 19.20330088 0.30584133 26.5 3.75 C27.43070313 4.18699219 28.36140625 4.62398437 29.3203125 5.07421875 C37.90266642 10.15089929 44.90205689 17.24918149 48.5 26.75 C48.17 27.74 47.84 28.73 47.5 29.75 C-29.225 29.255 -29.225 29.255 -107.5 28.75 C-107.17 28.09 -106.84 27.43 -106.5 26.75 C-56.34 26.75 -6.18 26.75 45.5 26.75 C37.54550796 14.25008394 32.28830936 8.09489777 18.5 3.75 C14.14313433 3.10048478 9.87909615 3.05741522 5.47949219 3.09057617 C3.61880852 3.07485062 3.61880852 3.07485062 1.72053528 3.05880737 C-1.64067629 3.0351485 -5.00053075 3.0330797 -8.36172199 3.04110122 C-11.88917011 3.04425108 -15.41642167 3.01912011 -18.94378662 2.99714661 C-25.6051671 2.95986629 -32.26634351 2.94756818 -38.92781806 2.9445222 C-46.51934311 2.93981386 -54.11066594 2.906834 -61.70210123 2.87162435 C-77.30138638 2.79989953 -92.90054879 2.76320679 -108.5 2.75 C-108.17 2.09 -107.84 1.43 -107.5 0.75 C-27.11182833 -0.5428387 -27.11182833 -0.5428387 0 0 Z " fill="#0236C2" transform="translate(225.5,42.25)"/>
<path d="M0 0 C0.94875 0.70125 1.8975 1.4025 2.875 2.125 C3.57625 2.74375 4.2775 3.3625 5 4 C5 4.66 5 5.32 5 6 C5.66 6 6.32 6 7 6 C17.19284597 19.12476498 22.71273179 34.62253518 20.71777344 51.36914062 C20.34367325 53.71141801 19.93358336 56.04302463 19.5 58.375 C18.39923961 64.14928915 18.39923961 64.14928915 18 70 C16.515 69.505 16.515 69.505 15 69 C15.14002441 68.35603271 15.28004883 67.71206543 15.42431641 67.04858398 C16.91092795 59.67270366 17.36614484 52.57610255 17.375 45.0625 C17.39949219 43.97259766 17.42398438 42.88269531 17.44921875 41.75976562 C17.49700691 28.35518676 12.96044286 16.72341448 3.96875 6.74609375 C-6.96100589 -3.68865508 -19.64237155 -7.36070886 -34.375 -7.3125 C-35.35210938 -7.32861328 -36.32921875 -7.34472656 -37.3359375 -7.36132812 C-51.51506094 -7.37075573 -62.23605905 -2.33411336 -72.4453125 7.28125 C-81.73621359 17.16881446 -86.43514451 30.78734904 -86.25 44.25 C-86.24105713 44.99161377 -86.23211426 45.73322754 -86.22290039 46.49731445 C-85.91099645 61.4347659 -82.01368864 75.00462239 -71.3359375 85.96875 C-55.94859466 99.34904812 -39.30723121 99.53411398 -20 99 C-20.33 99.66 -20.66 100.32 -21 101 C-34.0091104 103.98444297 -50.26198695 102.52111836 -62 96 C-75.24597055 87.46493948 -84.42931191 75.95241055 -88.3125 60.5 C-91.29965807 42.54832891 -88.28037971 26.56359399 -79 11 C-69.63135034 -1.97469594 -57.2832789 -8.01600246 -41.7109375 -10.53125 C-26.85572989 -12.12158853 -12.04332041 -9.10592519 0 0 Z " fill="#073FC6" transform="translate(802,115)"/>
<path d="M0 0 C8.02008379 -0.93256788 15.81332786 2.27932346 22.4765625 6.609375 C28.10864559 11.20785483 31.62559544 16.83254444 33 24 C33.72521434 35.19898294 32.98641045 44.25251362 25.78515625 53.15234375 C16.98158275 62.26413865 4.8779995 65.68760728 -7.44140625 66.12109375 C-21.27307419 66.35836757 -36.90816626 64.94720536 -47.47265625 54.84765625 C-53.36360409 47.72126666 -55.98026336 40.08972146 -57 31 C-53.58423991 28.90623911 -51.10268567 28.82129155 -47.140625 29.0234375 C-46.02558594 29.075 -44.91054688 29.1265625 -43.76171875 29.1796875 C-42.60285156 29.24414062 -41.44398438 29.30859375 -40.25 29.375 C-39.07566406 29.43171875 -37.90132812 29.4884375 -36.69140625 29.546875 C-33.79364353 29.68822928 -30.89676251 29.83963219 -28 30 C-27.78085937 30.61488281 -27.56171875 31.22976562 -27.3359375 31.86328125 C-25.77164363 35.85032293 -24.75090979 38.44428409 -21.25 41.03515625 C-17.44717202 42.16412081 -13.93370014 42.47816795 -10 42.4375 C-9.31421875 42.45748047 -8.6284375 42.47746094 -7.921875 42.49804688 C-2.81976724 42.49317845 0.08474199 41.20502066 4 38 C5.44430855 35.11138291 5.37688506 33.20352299 5 30 C1.06355659 24.89662673 -2.7211906 23.91557895 -8.75 22.8125 C-11.52737161 22.27309312 -14.24967037 21.67577842 -17 21 C-17.495 20.01 -17.495 20.01 -18 19 C-1.68119809 19.78874209 -1.68119809 19.78874209 4.9375 25.5625 C7.21068117 28.24898684 7.91818875 29.28006099 8.3125 32.75 C7.9118895 36.91634919 6.68927657 38.81533038 4 42 C-0.64013057 44.89494872 -4.64029556 45.46567169 -10 45.375 C-10.68578125 45.38660156 -11.3715625 45.39820313 -12.078125 45.41015625 C-17.53478825 45.37891581 -21.54737831 44.13891427 -25.6796875 40.53515625 C-28.29467079 37.31342847 -29 36.28843946 -29 32 C-37.25 32 -45.5 32 -54 32 C-52.09857104 42.62563241 -49.60634088 49.39034194 -41.1875 56.3125 C-33.1433472 60.57116913 -26.17942316 62.63885949 -17.0625 62.8125 C-16.09393066 62.84037598 -15.12536133 62.86825195 -14.12744141 62.89697266 C-0.89253963 63.20704367 10.75223694 62.40136356 21.5 53.6875 C27.44122595 48.01801412 29.68679121 41.58517126 30.23828125 33.51171875 C30.40065386 25.1452564 30.31748489 18.77607785 24.4921875 12.33203125 C17.66776816 5.90438047 8.84461644 3.43734733 0 1 C0 0.67 0 0.34 0 0 Z " fill="#063CC4" transform="translate(572,151)"/>
<path d="M0 0 C0.99 0.66 1.98 1.32 3 2 C2.34 2 1.68 2 1 2 C1.0707373 3.06017334 1.14147461 4.12034668 1.21435547 5.21264648 C2.13815763 20.36602909 2.15452601 35.51318625 2.13037109 50.68774414 C2.12458284 54.37723996 2.1280266 58.06666446 2.13394356 61.75615788 C2.13754799 64.62227422 2.1364127 67.48837343 2.13381577 70.35449028 C2.13315087 71.71685228 2.13395959 73.07921585 2.13629532 74.441576 C2.1388297 76.32831925 2.1342832 78.21506803 2.12939453 80.10180664 C2.12820114 81.70675743 2.12820114 81.70675743 2.12698364 83.34413147 C2 86 2 86 1 89 C4.61443234 85.55677761 7.53515124 82.03784303 10.375 77.9375 C14.77110638 71.67136952 19.29261489 65.50614904 23.875 59.375 C24.51743652 58.5099585 25.15987305 57.64491699 25.82177734 56.75366211 C26.4348877 55.93518799 27.04799805 55.11671387 27.6796875 54.2734375 C28.22351074 53.54560059 28.76733398 52.81776367 29.32763672 52.06787109 C34.04998235 46.22870795 34.04998235 46.22870795 38.375 45.1875 C42 45 42 45 44.6796875 45.51953125 C48.80123834 46.1159439 52.61507597 45.83334722 56.75 45.5 C64.73802612 44.86901306 64.73802612 44.86901306 67 46 C66.39409165 49.2513033 65.31884707 51.19347605 63.26171875 53.765625 C62.69477295 54.48290771 62.12782715 55.20019043 61.54370117 55.93920898 C60.93115479 56.70177002 60.3186084 57.46433105 59.6875 58.25 C58.4049952 59.87010122 57.12376865 61.49121505 55.84375 63.11328125 C55.19792969 63.93006348 54.55210937 64.7468457 53.88671875 65.58837891 C51.09263878 69.15979737 48.38822884 72.79529346 45.6875 76.4375 C40.96940249 82.78050246 36.08221269 88.94241316 31 95 C30.67 94.34 30.34 93.68 30 93 C30.35715088 92.5373877 30.71430176 92.07477539 31.08227539 91.59814453 C32.74464192 89.44218343 34.40405533 87.28397947 36.0625 85.125 C36.65651611 84.3522876 37.25053223 83.5795752 37.86254883 82.78344727 C41.65886744 77.82150574 45.29839595 72.81180767 48.73046875 67.58984375 C49.14941406 67.06519531 49.56835938 66.54054688 50 66 C50.66 66 51.32 66 52 66 C52.23460937 65.47921875 52.46921875 64.9584375 52.7109375 64.421875 C54.43168531 61.18895487 56.52183094 58.24044351 58.625 55.25 C59.04523437 54.64800781 59.46546875 54.04601562 59.8984375 53.42578125 C60.92993137 51.94886957 61.96464579 50.47420806 63 49 C55.65257666 48.71234044 48.3456174 48.65779757 41.00390625 49.05078125 C39.79549072 49.11177002 38.5870752 49.17275879 37.34204102 49.2355957 C33.17616176 50.18843141 31.37506071 51.82870632 28.5 54.9375 C27.63429947 56.620695 26.77280864 58.30789609 25.99658203 60.03417969 C23.97468898 64.02249003 21.10679922 67.49087618 18.4375 71.0625 C17.32370913 72.60322257 16.21296035 74.14614948 15.10546875 75.69140625 C11.89190021 80.15627582 8.64733772 84.59774193 5.390625 89.03125 C3.96464533 90.94508437 3.96464533 90.94508437 3 93 C1.68 92.67 0.36 92.34 -1 92 C-1 62.3 -1 32.6 -1 2 C-1.66 1.67 -2.32 1.34 -3 1 C-2.01 0.67 -1.02 0.34 0 0 Z " fill="#043DCA" transform="translate(644,60)"/>
<path d="M0 0 C0 0.33 0 0.66 0 1 C-6.93 1 -13.86 1 -21 1 C-21 50.83 -21 100.66 -21 152 C-12.75 152 -4.5 152 4 152 C3.9690625 146.121875 3.9690625 146.121875 3.9375 140.125 C3.90975119 129.3801201 4.22471955 118.71548333 5 108 C5.33 108 5.66 108 6 108 C6.95003898 118.6200786 7.11110404 129.22027435 7.125 139.875 C7.12749756 140.55564514 7.12999512 141.23629028 7.13256836 141.93756104 C7.13845494 143.893261 7.13579717 145.84898095 7.1328125 147.8046875 C7.13168457 148.94921387 7.13055664 150.09374023 7.12939453 151.27294922 C7 154 7 154 6 156 C5.34 155.67 4.68 155.34 4 155 C1.89625004 154.84558791 -0.21195119 154.75007361 -2.3203125 154.68359375 C-3.57714844 154.64169922 -4.83398438 154.59980469 -6.12890625 154.55664062 C-7.44761719 154.51732422 -8.76632812 154.47800781 -10.125 154.4375 C-11.46485751 154.39430488 -12.80470156 154.35069027 -14.14453125 154.30664062 C-17.42957815 154.20029019 -20.71470281 154.09826192 -24 154 C-24.02334193 134.36385968 -24.04098555 114.72772216 -24.05181217 95.09157085 C-24.05697237 85.97453536 -24.06400984 76.85750848 -24.07543945 67.74047852 C-24.0853947 59.79573286 -24.09185544 51.85099344 -24.09408849 43.90624171 C-24.09539417 39.69807813 -24.09847101 35.48993239 -24.10573006 31.28177452 C-24.1125035 27.32315669 -24.11461424 23.36456409 -24.11310768 19.40594101 C-24.11338341 17.95106049 -24.1153807 16.49617915 -24.11920547 15.04130363 C-24.12416329 13.05864442 -24.12239273 11.07597175 -24.12025452 9.0933075 C-24.12117631 7.98254695 -24.1220981 6.8717864 -24.12304783 5.72736645 C-24 3 -24 3 -23 0 C-7.25512528 -1.33257403 -7.25512528 -1.33257403 0 0 Z " fill="#0539C5" transform="translate(639,61)"/>
<path d="M0 0 C5.96005382 0.18808848 11.3506842 1.5578888 15.5625 5.875 C18.08657378 9.97661989 18.22510282 12.4525697 18.25 17.3125 C18.26417969 18.570625 18.27835937 19.82875 18.29296875 21.125 C18.0625 24.3125 18.0625 24.3125 16.0625 26.3125 C13.75196876 26.40790258 11.43631927 26.38638833 9.125 26.3125 C-7.28549659 26.03138204 -24.67093225 26.65574886 -37.9375 37.3125 C-43.92728866 43.30228866 -45.27312754 49.99073016 -45.4375 58.1875 C-45.39799322 66.15041391 -43.72902125 72.26187707 -38.22265625 78.14453125 C-28.83658073 86.58583768 -18.36883654 87.81952752 -6.0390625 87.5546875 C3.20345131 86.83297987 9.17580057 83.38410698 16.0625 77.3125 C16.7225 77.6425 17.3825 77.9725 18.0625 78.3125 C11.13052335 86.13892525 2.52176455 89.83745199 -7.8203125 90.49609375 C-19.77290084 90.75593263 -30.51575294 88.73546122 -39.82421875 80.6796875 C-46.38775382 73.57056891 -49.23556291 64.91530944 -48.9375 55.3125 C-47.90633169 46.83521107 -45.18938179 40.22422312 -38.9375 34.3125 C-22.6369692 22.02648009 -2.36979013 22.96630325 17.0625 23.3125 C16.83273606 21.24764776 16.57779223 19.18558882 16.3125 17.125 C16.10367188 15.40216797 16.10367188 15.40216797 15.890625 13.64453125 C14.96291312 9.91180372 13.71796205 8.05747201 11.0625 5.3125 C4.79987195 2.18118598 -2.15490312 2.68417167 -8.8125 4.1875 C-13.33849613 7.26517737 -14.3943398 11.2037771 -15.9375 16.3125 C-24.66292301 16.44102505 -33.24758699 16.10895684 -41.9375 15.3125 C-41.9375 14.9825 -41.9375 14.6525 -41.9375 14.3125 C-39.96716797 14.22162109 -39.96716797 14.22162109 -37.95703125 14.12890625 C-36.22134459 14.04446744 -34.48566802 13.95982112 -32.75 13.875 C-31.45352539 13.81602539 -31.45352539 13.81602539 -30.13085938 13.75585938 C-23.91506148 13.64530709 -23.91506148 13.64530709 -17.9375 12.3125 C-16.32581668 10.08780746 -16.32581668 10.08780746 -15.125 7.375 C-12.47895624 2.63106989 -12.47895624 2.63106989 -10.05859375 1.20703125 C-6.7321458 0.34124343 -3.42354917 0.27171025 0 0 Z " fill="#063DC5" transform="translate(458.9375,126.6875)"/>
<path d="M0 0 C9.46581574 1.37901273 17.00104796 8.18739562 22.99609375 15.265625 C26.38308798 19.88725456 28.82826321 24.70987193 31 30 C31.3403125 30.8146875 31.680625 31.629375 32.03125 32.46875 C37.37510604 48.10447692 34.62277767 65.83909371 27.625 80.3125 C21.72871718 92.11852747 12.27227476 100.17937984 0 105 C-16.80093179 110.45427903 -33.85993002 108.93111786 -49.67578125 101.265625 C-52.41630522 99.77330606 -54.78848649 98.21151351 -57 96 C-57 95.34 -57 94.68 -57 94 C-57.66 94 -58.32 94 -59 94 C-70.17487491 81.81521498 -74.8482741 67.38639719 -75 51 C-74.72411023 45.93584155 -73.95481643 40.97973494 -73 36 C-72.34 36 -71.68 36 -71 36 C-71.02094727 36.78012451 -71.04189453 37.56024902 -71.06347656 38.36401367 C-71.14771737 41.97170605 -71.19899916 45.57919047 -71.25 49.1875 C-71.28351562 50.41404297 -71.31703125 51.64058594 -71.3515625 52.90429688 C-71.50596621 67.53404799 -67.23961007 81.14517308 -57.1953125 92.015625 C-45.17995393 102.87648292 -31.31840619 105.95811327 -15.57421875 105.41015625 C-2.25371659 104.50932093 9.39189062 99.01975812 18.6875 89.4375 C30.416409 75.12378404 32.16364282 58.85404444 31 41 C29.60844793 31.0720361 25.14865717 21.02513825 18 14 C18 13.34 18 12.68 18 12 C17.443125 11.7525 16.88625 11.505 16.3125 11.25 C14 10 14 10 11.8125 8.125 C8.15021495 5.35794019 4.22848548 3.73192869 0 2 C0 1.34 0 0.68 0 0 Z " fill="#073FC4" transform="translate(904,109)"/>
<path d="M0 0 C10.12026529 11.92745552 10.06292722 26.17638347 9.9453125 41.11328125 C9.94157001 42.50717462 9.93872891 43.90107068 9.93673706 45.29496765 C9.92919763 48.91657112 9.9096359 52.53800732 9.8873291 56.1595459 C9.86665845 59.87391906 9.85769057 63.58831995 9.84765625 67.30273438 C9.826378 74.55606482 9.79236353 81.80925874 9.75 89.0625 C9.09 88.7325 8.43 88.4025 7.75 88.0625 C7.74191315 87.37362198 7.73382629 86.68474396 7.72549438 85.97499084 C7.64673014 79.40202995 7.55921319 72.82924625 7.46247292 66.25652409 C7.41306032 62.87947036 7.36673868 59.50243997 7.328125 56.12524414 C8.70474357 27.38368047 8.70474357 27.38368047 -2.00390625 2.11328125 C-12.35246593 -7.85896717 -25.61028023 -8.43167089 -39.23828125 -8.2109375 C-49.39853508 -7.81662986 -59.59970879 -5.85169128 -67.41796875 1.0546875 C-69.99278993 3.87655975 -72.08538678 6.87833966 -74.05859375 10.14453125 C-75.25 12.0625 -75.25 12.0625 -77.25 14.0625 C-76.94736218 8.00974356 -74.29375348 4.32907255 -70.25 0.0625 C-52.28493035 -15.92446631 -17.78536729 -17.19252171 0 0 Z " fill="#0743CC" transform="translate(495.25,115.9375)"/>
<path d="M0 0 C-0.01047363 0.64549805 -0.02094727 1.29099609 -0.03173828 1.95605469 C-0.07337272 4.88733002 -0.09934975 7.81854304 -0.125 10.75 C-0.15013672 12.27367188 -0.15013672 12.27367188 -0.17578125 13.828125 C-0.18222656 14.8078125 -0.18867188 15.7875 -0.1953125 16.796875 C-0.20578613 17.69760742 -0.21625977 18.59833984 -0.22705078 19.52636719 C0.01352888 22.14739206 0.71097086 23.73288894 2 26 C2 26.33 2 26.66 2 27 C-12.19 27 -26.38 27 -41 27 C-41 63.96 -41 100.92 -41 139 C-41.33 139 -41.66 139 -42 139 C-42 101.38 -42 63.76 -42 25 C-28.8 25 -15.6 25 -2 25 C-2 17.41 -2 9.82 -2 2 C-36.32 2 -70.64 2 -106 2 C-106 1.67 -106 1.34 -106 1 C-93.06524696 0.86926207 -80.13049069 0.73884847 -67.19573021 0.60884857 C-61.18956722 0.54847387 -55.18340539 0.48798758 -49.17724609 0.42724609 C-43.38065474 0.36862812 -37.5840605 0.3103035 -31.78746414 0.25218201 C-29.57629923 0.22995952 -27.36513538 0.20763146 -25.15397263 0.18519592 C-22.05626444 0.15378313 -18.95855269 0.1227462 -15.86083984 0.09179688 C-14.94733765 0.08244614 -14.03383545 0.0730954 -13.09265137 0.0634613 C-8.72820938 0.02024056 -4.36473013 -0.01050544 0 0 Z " fill="#022FBA" transform="translate(421,67)"/>
<path d="M0 0 C7.70995059 4.77094378 12.49231233 12.43012061 14.75 21.109375 C16.5360503 31.94376274 15.96376636 41.71060085 9.90234375 51 C6.48568796 55.42484931 2.69128403 58.58887767 -2.77734375 59.9765625 C-10.26145715 60.72497384 -18.51378769 61.42324034 -25.16015625 57.33203125 C-28.09738017 54.87015517 -30.49973477 52.0478837 -32.77734375 48.9765625 C-31.78734375 48.9765625 -30.79734375 48.9765625 -29.77734375 48.9765625 C-29.40609375 49.9046875 -29.40609375 49.9046875 -29.02734375 50.8515625 C-27.52003755 53.41398303 -26.50444407 53.88572237 -23.77734375 54.9765625 C-23.06964844 55.316875 -22.36195313 55.6571875 -21.6328125 56.0078125 C-15.40167422 58.12179649 -6.68432842 58.08385606 -0.3515625 56.2890625 C5.38865064 53.23440362 9.66225513 47.68104011 11.71875 41.5703125 C13.48507928 32.4785091 13.4717506 21.34009679 9.22265625 12.9765625 C4.7805361 6.4367745 0.23080412 2.83075795 -7.58984375 1.1640625 C-15.10548319 0.50554933 -21.23773715 2.4233831 -27.0546875 7.22265625 C-34.61715049 14.92230677 -34.77744364 26.81091139 -35.77734375 36.9765625 C-36.10734375 36.9765625 -36.43734375 36.9765625 -36.77734375 36.9765625 C-37.19949242 27.52512273 -37.47369726 19.50501002 -32.77734375 10.9765625 C-32.19984375 9.8834375 -31.62234375 8.7903125 -31.02734375 7.6640625 C-23.60269366 -1.20426955 -10.81488229 -3.98523089 0 0 Z " fill="#0841C7" transform="translate(894.77734375,131.0234375)"/>
<path d="M0 0 C-1.69165186 1.12776791 -3.39672989 2.23754318 -5.14106846 3.28197098 C-7.66834179 5.61768309 -7.58538712 7.09381223 -7.74290466 10.48846436 C-7.79816755 11.56252281 -7.85343044 12.63658127 -7.91036797 13.74318695 C-8.04292449 18.55967729 -8.13162027 23.36608641 -8.11352539 28.18457031 C-8.11367142 29.22995468 -8.11381744 30.27533905 -8.1139679 31.35240173 C-8.1132788 34.76099828 -8.10553404 38.16953816 -8.09765625 41.578125 C-8.0957885 43.95994029 -8.09436628 46.34175597 -8.09336853 48.72357178 C-8.08957148 54.95742881 -8.07976553 61.19126213 -8.06866455 67.42510986 C-8.05838965 73.8003304 -8.05385794 80.1755548 -8.04882812 86.55078125 C-8.03814045 99.03386452 -8.02109823 111.51693028 -8 124 C-8.33 124 -8.66 124 -9 124 C-10.60333433 99.56154557 -11.32597437 75.22077451 -11.26074219 50.73095703 C-11.24906068 46.28541398 -11.25613434 41.84010497 -11.26788712 37.3945694 C-11.27509409 33.91504113 -11.27282804 30.43556933 -11.26763153 26.95603943 C-11.26630642 25.31343049 -11.26790242 23.67081628 -11.27259064 22.0282135 C-11.27766766 19.76280802 -11.26994247 17.49779779 -11.25878906 15.23242188 C-11.25719788 13.951698 -11.25560669 12.67097412 -11.25396729 11.35144043 C-10.93388502 7.1275238 -10.20904725 4.20904725 -7.1875 1.1875 C-4.60003118 -0.21712593 -2.90193042 -0.24182753 0 0 Z " fill="#0545D2" transform="translate(121,71)"/>
<path d="M0 0 C4.06389226 1.35463075 5.05928004 3.97969944 7.125 7.5 C11.6638857 14.99607805 16.49413679 22.26502589 21.4375 29.5 C22.16783447 30.56919678 22.89816895 31.63839355 23.65063477 32.73999023 C25.76415227 35.82868675 27.88133721 38.9148312 30 42 C30.6074707 42.88574707 31.21494141 43.77149414 31.84082031 44.68408203 C34.88793249 49.12683817 37.94037296 53.56585368 41 58 C40.505 58.99 40.505 58.99 40 60 C35.19660394 60.22999474 30.40445316 60.35793282 25.59570312 60.39672852 C23.9657974 60.42362518 22.33608516 60.47710512 20.70800781 60.55883789 C7.70355343 61.18512603 7.70355343 61.18512603 3.40344238 57.70959473 C0.35268462 54.22533486 -1.7445896 50.22404744 -3.8550415 46.12588501 C-5.73988718 42.62622526 -8.02062613 39.41257573 -10.28125 36.1484375 C-11.15316965 34.85429576 -12.02296848 33.55872256 -12.890625 32.26171875 C-14.20913938 30.29633923 -15.52904994 28.33198052 -16.85351562 26.37060547 C-18.16711881 24.42443866 -19.47472761 22.47436256 -20.78125 20.5234375 C-21.37492371 19.6484108 -21.37492371 19.6484108 -21.98059082 18.75570679 C-24.07998283 15.6074806 -25.74287355 12.57213982 -27 9 C-23.04589901 10.31803366 -22.00044305 12.73055404 -19.9375 16.125 C-19.13279117 17.41356113 -18.32675697 18.70129534 -17.51953125 19.98828125 C-17.10396973 20.65424316 -16.6884082 21.32020508 -16.26025391 22.00634766 C-15.0561206 23.9112203 -13.82504805 25.79349365 -12.57421875 27.66796875 C-12.17372314 28.26843018 -11.77322754 28.8688916 -11.3605957 29.48754883 C-10.52896844 30.71584635 -9.68474077 31.9356961 -8.82885742 33.1472168 C-6.44455594 36.57406492 -4.57004705 39.86114815 -2.9765625 43.7265625 C0.24498105 50.88344064 0.24498105 50.88344064 6 56 C15.80664119 58.11891748 26.10868508 56.98147344 36 56 C31.45117225 48.7730385 26.78245852 41.6454161 21.97265625 34.58984375 C20.67364903 32.67525171 19.37482597 30.76053471 18.07617188 28.84570312 C16.0546612 25.86849723 14.03170898 22.89230206 12.00561523 19.91821289 C10.03218218 17.01985863 8.06448461 14.11768247 6.09765625 11.21484375 C5.48527603 10.31910141 4.87289581 9.42335907 4.24195862 8.50047302 C3.68395065 7.67523636 3.12594269 6.84999969 2.55102539 5.99975586 C2.05695694 5.27348495 1.56288849 4.54721405 1.05384827 3.79893494 C0 2 0 2 0 0 Z " fill="#053BC2" transform="translate(673,156)"/>
<path d="M0 0 C-2.38119638 2.38119638 -3.09911403 2.3033589 -6.359375 2.52734375 C-7.22820312 2.59759766 -8.09703125 2.66785156 -8.9921875 2.74023438 C-10.81490783 2.8706131 -12.63782539 2.99826615 -14.4609375 3.12304688 C-20.45831456 3.61398261 -24.84140691 4.71274293 -29.8125 8.3125 C-32.37905475 11.95970938 -32.08783776 15.42417469 -31.4375 19.6875 C-30.26453207 23.10157719 -30.26453207 23.10157719 -27.5625 24.9375 C-20.23004278 27.12437321 -13.28305513 26.48935823 -6.0703125 24.14453125 C-3.06043292 22.48057895 -1.17987915 20.66714626 1 18 C2.02224693 14.44772381 2.02224693 14.44772381 2.3125 10.6875 C2.45300781 9.43324219 2.59351563 8.17898437 2.73828125 6.88671875 C2.82464844 5.93410156 2.91101563 4.98148438 3 4 C2.34 3.67 1.68 3.34 1 3 C1.66 3 2.32 3 3 3 C3.33 2.34 3.66 1.68 4 1 C5.70336001 2.70336001 5.17182498 4.86446226 5.1875 7.1875 C5.1220775 12.80656619 4.33265706 16.76113615 1.4375 21.625 C-4.6960942 27.60132255 -12.97988937 29.31331596 -21.2734375 29.21484375 C-26.27282164 28.82090947 -29.00666541 27.10072211 -32.3125 23.4375 C-35.12282886 19.37813609 -35.49090917 16.99090987 -35 12 C-32.7558168 7.44644986 -29.73035645 3.95384288 -25 2 C-16.72977578 -0.24904549 -8.51480466 -0.22374669 0 0 Z " fill="#0640CA" transform="translate(473,168)"/>
<path d="M0 0 C5.53125859 1.15274916 10.39604031 4.72673351 14 9 C20.22774531 20.07511409 21.69514798 31.16574969 18.8125 43.6171875 C16.39747731 50.69970595 12.28588796 55.45890388 5.83203125 59.125 C1.7036672 61.09675596 -1.6601956 61.1040349 -6.1875 61.0625 C-7.45980469 61.05347656 -8.73210938 61.04445312 -10.04296875 61.03515625 C-11.50669922 61.01775391 -11.50669922 61.01775391 -13 61 C-13 60.67 -13 60.34 -13 60 C-12.01 59.91363281 -11.02 59.82726562 -10 59.73828125 C-0.84202475 58.8142521 5.51305519 57.24440725 12.3125 50.8125 C18.5795601 40.36739984 17.98699686 28.41220677 15.6328125 16.828125 C15.16647912 14.7920175 15.16647912 14.7920175 13 14 C11.25160484 11.34243936 10.00872518 9.02617555 9 6 C1.03607852 2.02498858 -8.26706029 1.65901754 -17 2 C-11.91084451 -1.39277032 -5.94554026 -0.42420049 0 0 Z " fill="#063CC6" transform="translate(774,130)"/>
<path d="M0 0 C0.66 0 1.32 0 2 0 C3.06596701 3.19790104 3.12686941 5.48414606 3.12939453 8.8449707 C3.13254669 10.04664383 3.13569885 11.24831696 3.13894653 12.48640442 C3.1369223 13.78639877 3.13489807 15.08639313 3.1328125 16.42578125 C3.13348639 17.77475502 3.13445712 19.12372867 3.13571167 20.47270203 C3.13718616 23.30139318 3.13504306 26.13005275 3.13037109 28.95874023 C3.12469034 32.57332295 3.12794385 36.18783113 3.13394356 39.80241108 C3.13756988 42.58976291 3.1364008 45.37709731 3.13381577 48.16444969 C3.13282941 50.14188562 3.13585301 52.11932223 3.13894653 54.09675598 C3.13579437 55.30788559 3.13264221 56.5190152 3.12939453 57.7668457 C3.12859894 58.82813187 3.12780334 59.88941803 3.12698364 60.98286438 C2.99740561 64.06164287 2.57015533 66.97436367 2 70 C1.67 70 1.34 70 1 70 C1 48.55 1 27.1 1 5 C0.34 5 -0.32 5 -1 5 C-1.24105469 5.56976563 -1.48210937 6.13953125 -1.73046875 6.7265625 C-3.24728666 9.44283334 -5.06762907 11.22445137 -7.3125 13.375 C-10.79063642 16.76898796 -13.97802278 20.19815769 -17 24 C-17.33 23.01 -17.66 22.02 -18 21 C-17.2886792 20.2589502 -17.2886792 20.2589502 -16.56298828 19.50292969 C-14.41206642 17.25661041 -12.26848925 15.00341177 -10.125 12.75 C-9.37863281 11.97269531 -8.63226563 11.19539062 -7.86328125 10.39453125 C-7.14785156 9.64042969 -6.43242187 8.88632813 -5.6953125 8.109375 C-5.03547363 7.41811523 -4.37563477 6.72685547 -3.69580078 6.01464844 C-2.06943493 4.08249022 -1.01533781 2.30143238 0 0 Z " fill="#053DCC" transform="translate(272,129)"/>
<path d="M0 0 C0.99 1.98 0.99 1.98 2 4 C-0.77091638 5.38545819 -2.98525322 5.10498595 -6.08694458 5.08229065 C-7.38547363 5.07525116 -8.68400269 5.06821167 -10.0218811 5.06095886 C-11.46917809 5.04797547 -12.91647421 5.03489542 -14.36376953 5.02172852 C-15.88128378 5.01158892 -17.39880106 5.00189491 -18.9163208 4.99261475 C-23.04421154 4.9661017 -27.172032 4.93332878 -31.29986811 4.89946485 C-35.61068424 4.86515349 -39.92153809 4.83655348 -44.23239136 4.80735779 C-52.39927972 4.75117364 -60.56612086 4.68982395 -68.73295772 4.62663645 C-78.02905099 4.55496196 -87.32518212 4.48901856 -96.62132096 4.42356598 C-115.7475966 4.28877214 -134.87381255 4.14675052 -154 4 C-153.67 3.34 -153.34 2.68 -153 2 C-102.51 2.33 -52.02 2.66 0 3 C0 2.01 0 1.02 0 0 Z " fill="#0742C7" transform="translate(272,67)"/>
<path d="M0 0 C1.47871399 1.09431458 1.47871399 1.09431458 3 3 C3.36076355 5.90434265 3.36076355 5.90434265 3.34057617 9.4909668 C3.34101425 10.1448941 3.34145233 10.79882141 3.34190369 11.4725647 C3.33981539 13.63175423 3.31648388 15.79016505 3.29296875 17.94921875 C3.28737291 19.44708329 3.28310275 20.94495332 3.28010559 22.44282532 C3.2686558 26.38358746 3.23918778 30.32401745 3.20599365 34.26464844 C3.17529548 38.28641262 3.16160082 42.30823053 3.14648438 46.33007812 C3.11431793 54.22020444 3.06312028 62.11006089 3 70 C2.67 70 2.34 70 2 70 C0.50685447 46.63584647 -0.30428039 23.41320565 0 0 Z " fill="#094BDD" transform="translate(110,125)"/>
<path d="M0 0 C0.33 0 0.66 0 1 0 C1.95003898 10.6200786 2.11110404 21.22027435 2.125 31.875 C2.12749756 32.55564514 2.12999512 33.23629028 2.13256836 33.93756104 C2.13845494 35.893261 2.13579717 37.84898095 2.1328125 39.8046875 C2.13168457 40.94921387 2.13055664 42.09374023 2.12939453 43.27294922 C2 46 2 46 1 48 C0.34 47.67 -0.32 47.34 -1 47 C-0.67 46.34 -0.34 45.68 0 45 C-8.58 45 -17.16 45 -26 45 C-26 44.67 -26 44.34 -26 44 C-17.75 44 -9.5 44 -1 44 C-1.0309375 38.121875 -1.0309375 38.121875 -1.0625 32.125 C-1.09024881 21.3801201 -0.77528045 10.71548333 0 0 Z " fill="#033BCE" transform="translate(644,169)"/>
<path d="M0 0 C-2.36469004 1.57646002 -4.61067144 2.83629397 -7.125 4.125 C-16.97053931 9.64810742 -23.02165686 16.34372373 -27 27 C-28.08463016 31.91153279 -28.30353666 36.86554523 -28.5625 41.875 C-28.60568359 42.65875 -28.64886719 43.4425 -28.69335938 44.25 C-28.79853351 46.16650649 -28.89967925 48.08323333 -29 50 C-29.66 49.67 -30.32 49.34 -31 49 C-31.41716932 32.9158051 -29.68523505 20.19622834 -18.31640625 8.05078125 C-13.08937108 3.42313628 -7.16105131 -0.50320901 0 0 Z " fill="#0B42C4" transform="translate(116,45)"/>
<path d="M0 0 C-3.30800968 1.83064613 -6.60867762 2.76632523 -10.25 3.75 C-18.81271557 6.34185337 -24.89241656 10.55752127 -30 18 C-33.57741744 25.22967624 -33.67302358 33.07364066 -34 41 C-34.66 40.67 -35.32 40.34 -36 40 C-36.61177534 29.31092527 -35.75427957 20.27440216 -28.875 11.6875 C-20.85117868 3.28405703 -11.42955658 -0.45718226 0 0 Z " fill="#0740C7" transform="translate(555,106)"/>
<path d="M0 0 C0.99 0.33 1.98 0.66 3 1 C3.94921875 3.0390625 3.94921875 3.0390625 4.6875 5.625 C4.93886719 6.46289062 5.19023438 7.30078125 5.44921875 8.1640625 C6 11 6 11 6 18 C-2.58 18 -11.16 18 -20 18 C-22 14 -24 10 -26 6 C-22.17475764 7.450954 -20.80909034 9.38181932 -19 13 C-19 13.66 -19 14.32 -19 15 C-11.41 15 -3.82 15 4 15 C3.2884375 12.1228125 3.2884375 12.1228125 2.5625 9.1875 C2.29566406 8.10855469 2.02882813 7.02960938 1.75390625 5.91796875 C1.23922588 3.9259157 0.65062825 1.95188476 0 0 Z " fill="#0638BD" transform="translate(598,123)"/>
<path d="M0 0 C0.33 0 0.66 0 1 0 C1.7417908 10.65294005 -0.39084373 19.77188406 -7.24609375 28.15625 C-13.40760613 34.63338551 -21.53258335 40.77418238 -30.796875 41.09765625 C-31.52390625 41.06542969 -32.2509375 41.03320312 -33 41 C-33 40.34 -33 39.68 -33 39 C-32.31035156 38.85304687 -31.62070313 38.70609375 -30.91015625 38.5546875 C-20.41883117 36.05058522 -12.06195966 31.12451219 -6 22 C-2.60474976 15.01851669 -1.12253635 7.63620124 0 0 Z " fill="#083DC2" transform="translate(273,202)"/>
<path d="M0 0 C16.31880191 0.78874209 16.31880191 0.78874209 22.9375 6.5625 C25.21068117 9.24898684 25.91818875 10.28006099 26.3125 13.75 C25.9118895 17.91634919 24.68927657 19.81533038 22 23 C17.29126742 25.97033421 14.1118244 26.25688744 8.625 25.6875 C7.37976563 25.56761719 6.13453125 25.44773438 4.8515625 25.32421875 C3.91054688 25.21722656 2.96953125 25.11023438 2 25 C2 24.67 2 24.34 2 24 C2.94101562 23.97421875 3.88203125 23.9484375 4.8515625 23.921875 C14.27518854 23.69881128 14.27518854 23.69881128 22 19 C23.44430855 16.11138291 23.37688506 14.20352299 23 11 C19.06355659 5.89662673 15.2788094 4.91557895 9.25 3.8125 C6.47262839 3.27309312 3.75032963 2.67577842 1 2 C0.67 1.34 0.34 0.68 0 0 Z " fill="#0847D0" transform="translate(554,170)"/>
<path d="M0 0 C1.051875 -0.01417969 2.10375 -0.02835937 3.1875 -0.04296875 C6 0.1875 6 0.1875 9 2.1875 C7.48019531 2.22617188 7.48019531 2.22617188 5.9296875 2.265625 C4.57808403 2.32194181 3.22652319 2.37928833 1.875 2.4375 C1.20984375 2.45167969 0.5446875 2.46585938 -0.140625 2.48046875 C-5.15543089 2.72629257 -8.17192685 3.96263837 -12 7.1875 C-13.32548832 10.63086774 -13.32548832 10.63086774 -13 14.1875 C-10.46113604 17.8434641 -6.99009975 19.3738183 -3 21.1875 C-5.92845666 22.42646243 -7.01050025 22.18364276 -10.0625 21.0625 C-13.329613 18.97710872 -14.53983985 17.75678037 -16 14.1875 C-16.625 10.75 -16.625 10.75 -16 7.1875 C-11.43700683 1.74841214 -7.0221889 0.04302812 0 0 Z " fill="#0641C9" transform="translate(561,125.8125)"/>
<path d="M0 0 C0.66 0 1.32 0 2 0 C-0.24743975 8.76501503 -5.493492 15.07068749 -12.4609375 20.58984375 C-12.96882812 21.05519531 -13.47671875 21.52054688 -14 22 C-14 22.66 -14 23.32 -14 24 C-14.66 24.0825 -15.32 24.165 -16 24.25 C-18.71067897 24.92766974 -20.56608261 25.75795716 -23 27.0625 C-26.15211072 28.71616415 -28.37439036 29.4532012 -32 29 C-29.74426989 26.74426989 -27.93442866 26.0337892 -25 24.8125 C-13.99288927 19.85641873 -5.63569283 13.5869324 -0.8125 2.1953125 C-0.544375 1.47085938 -0.27625 0.74640625 0 0 Z " fill="#083EC7" transform="translate(815,185)"/>
<path d="M0 0 C0.33 0 0.66 0 1 0 C1 2.64 1 5.28 1 8 C9.58 8 18.16 8 27 8 C27 6.02 27 4.04 27 2 C27.33 2 27.66 2 28 2 C28.33 4.64 28.66 7.28 29 10 C26.23382437 11.38308781 23.98982 11.11210196 20.8984375 11.09765625 C19.68671875 11.09443359 18.475 11.09121094 17.2265625 11.08789062 C15.95554687 11.07951172 14.68453125 11.07113281 13.375 11.0625 C12.09625 11.05798828 10.8175 11.05347656 9.5 11.04882812 C6.33328708 11.03701203 3.16666644 11.02053815 0 11 C-2.109375 4.3046875 -2.109375 4.3046875 -1.125 1.5625 C-0.75375 1.046875 -0.3825 0.53125 0 0 Z " fill="#053CC2" transform="translate(478,205)"/>
<path d="M0 0 C0.33 0 0.66 0 1 0 C2.4826096 8.71033137 2.11187826 16.70570883 0.5 25.375 C-0.60076039 31.14928915 -0.60076039 31.14928915 -1 37 C-1.99 36.67 -2.98 36.34 -4 36 C-3.86722656 35.46117187 -3.73445312 34.92234375 -3.59765625 34.3671875 C-1.89926346 26.45788383 -1.60113707 18.58990792 -1.34204102 10.53076172 C-1.31037842 9.60279785 -1.27871582 8.67483398 -1.24609375 7.71875 C-1.22216553 6.88279297 -1.1982373 6.04683594 -1.17358398 5.18554688 C-1 3 -1 3 0 0 Z " fill="#0748D1" transform="translate(821,148)"/>
<path d="M0 0 C-0.76183594 0.35191406 -1.52367187 0.70382813 -2.30859375 1.06640625 C-15.78202346 7.50875778 -24.81771626 15.18077753 -31 29 C-31.68359375 27.328125 -31.68359375 27.328125 -32 25 C-26.82183479 13.69580206 -17.89810748 5.59423279 -7 0 C-3.86650268 -1.04449911 -3.01031744 -0.93423645 0 0 Z " fill="#0741C8" transform="translate(867,109)"/>
<path d="M0 0 C2 2 2 2 3.1875 4.75 C7.2126925 11.96758655 13.91736902 15.69303355 21.6484375 18.16796875 C22.87820313 18.50441406 24.10796875 18.84085938 25.375 19.1875 C26.62023437 19.53167969 27.86546875 19.87585938 29.1484375 20.23046875 C30.08945312 20.48441406 31.03046875 20.73835938 32 21 C32 21.33 32 21.66 32 22 C23.28146321 23.01378335 14.45458599 19.04279137 7.4375 14.0625 C4.2354273 11.42231321 1.90486428 8.73035921 0 5 C-0.25 2.125 -0.25 2.125 0 0 Z " fill="#063DC5" transform="translate(521,148)"/>
<path d="M0 0 C8.78851497 -1.04270517 14.80916864 2.05800367 22 7 C27.20423667 11.61967342 30.75879139 16.4164497 33 23 C32.34 23 31.68 23 31 23 C29.8775463 21.50142065 28.82685628 19.948761 27.8125 18.375 C21.30929902 8.92670186 13.48377991 3.88400017 2.1328125 1.36328125 C1.42898437 1.24339844 0.72515625 1.12351563 0 1 C0 0.67 0 0.34 0 0 Z " fill="#083FC6" transform="translate(239,44)"/>
<path d="M0 0 C0.99 0.66 1.98 1.32 3 2 C2.34 2 1.68 2 1 2 C1.08378906 3.26972656 1.16757812 4.53945312 1.25390625 5.84765625 C1.89413128 16.35759031 2.03279395 26.51316908 1 37 C0.67 37 0.34 37 0 37 C-1.16532027 29.65939989 -1.1134298 22.42007939 -1.0625 15 C-1.05798828 13.74832031 -1.05347656 12.49664062 -1.04882812 11.20703125 C-1.03711415 8.13797059 -1.02071073 5.06901093 -1 2 C-1.66 1.67 -2.32 1.34 -3 1 C-2.01 0.67 -1.02 0.34 0 0 Z " fill="#033AC7" transform="translate(644,60)"/>
<path d="M0 0 C1.53383635 2.02980739 3.04617199 4.06578911 4.5078125 6.1484375 C11.34346982 15.55984975 18.70514679 19.59324623 30 22 C30 22.66 30 23.32 30 24 C19.35800625 23.40877812 12.23509139 18.83218132 4.91015625 11.28125 C1.66028796 7.4000167 0 5.15861487 0 0 Z " fill="#093EC2" transform="translate(89,219)"/>
<path d="M0 0 C0.33 0.99 0.66 1.98 1 3 C0.35256836 3.43086914 -0.29486328 3.86173828 -0.96191406 4.30566406 C-4.17912869 8.55880022 -3.6033016 12.91322944 -3.609375 18.109375 C-3.62591125 19.19132141 -3.64244751 20.27326782 -3.65948486 21.38800049 C-3.70805101 24.84205758 -3.72935566 28.29567411 -3.75 31.75 C-3.77815236 34.09247018 -3.80807874 36.43491977 -3.83984375 38.77734375 C-3.91381224 44.51814896 -3.96540427 50.25882982 -4 56 C-4.33 56 -4.66 56 -5 56 C-5.29557982 48.99025608 -5.54283998 41.97999059 -5.75683594 34.96728516 C-5.83527147 32.58278023 -5.92469525 30.19861007 -6.02539062 27.81494141 C-6.16837558 24.38473243 -6.27156725 20.95525348 -6.3671875 17.5234375 C-6.42002899 16.46071625 -6.47287048 15.397995 -6.52731323 14.30307007 C-6.67641188 7.01645136 -6.67641188 7.01645136 -4.63775635 3.95294189 C-2.97705078 2.27978516 -2.97705078 2.27978516 0 0 Z " fill="#0343D3" transform="translate(253,151)"/>
<path d="M0 0 C1.485 0.99 1.485 0.99 3 2 C3.37231445 4.19897461 3.37231445 4.19897461 3.36328125 6.90234375 C3.36263672 7.87494141 3.36199219 8.84753906 3.36132812 9.84960938 C3.34521484 10.86861328 3.32910156 11.88761719 3.3125 12.9375 C3.31572266 13.95263672 3.31894531 14.96777344 3.32226562 16.01367188 C3.26704165 23.59943752 3.26704165 23.59943752 1 27 C0.16087482 24.09031691 -0.10851428 21.5469594 -0.0625 18.5234375 C-0.05476563 17.688125 -0.04703125 16.8528125 -0.0390625 15.9921875 C-0.02617187 15.12851563 -0.01328125 14.26484375 0 13.375 C0.0254629 11.65370809 0.04651171 9.93234349 0.0625 8.2109375 C0.07410156 7.45087402 0.08570313 6.69081055 0.09765625 5.90771484 C0.12332635 3.91256704 0.12332635 3.91256704 -1 2 C-0.67 1.34 -0.34 0.68 0 0 Z " fill="#0544D0" transform="translate(308,68)"/>
<path d="M0 0 C1.875 0.25 1.875 0.25 4 1 C6.45601033 4.52085397 6.26748113 7.9382705 6.25 12.125 C6.25515625 13.36507812 6.2603125 14.60515625 6.265625 15.8828125 C6 19 6 19 4 21 C2.68 21 1.36 21 0 21 C0 20.34 0 19.68 0 19 C-5.61 19 -11.22 19 -17 19 C-17 18.67 -17 18.34 -17 18 C-9.74 18 -2.48 18 5 18 C4.731875 15.958125 4.46375 13.91625 4.1875 11.8125 C4.03667969 10.66394531 3.88585937 9.51539063 3.73046875 8.33203125 C2.99597495 4.98163973 1.92950074 2.8070271 0 0 Z " fill="#0849D3" transform="translate(471,132)"/>
<path d="M0 0 C-1 3 -1 3 -3.25 5.0625 C-11.572827 13.28883045 -12.14298964 23.97398616 -13 35 C-13.33 35 -13.66 35 -14 35 C-14.77275338 22.92215088 -14.27956703 13.7978661 -6.3359375 3.93359375 C-2.63051044 0 -2.63051044 0 0 0 Z " fill="#0336BF" transform="translate(755,133)"/>
<path d="M0 0 C5.20173176 0.71569926 10.29184215 0.74141585 15.53515625 0.69140625 C16.90510742 0.68463867 16.90510742 0.68463867 18.30273438 0.67773438 C20.52611363 0.66609365 22.74934746 0.64974476 24.97265625 0.62890625 C24.64265625 1.28890625 24.31265625 1.94890625 23.97265625 2.62890625 C13.80150391 4.98765207 3.04658391 3.93151829 -7.02734375 1.62890625 C-3.77517539 -0.53920599 -3.56075819 -0.58295059 0 0 Z " fill="#0846CC" transform="translate(757.02734375,213.37109375)"/>
<path d="M0 0 C0.99 0 1.98 0 3 0 C3.495 2.475 3.495 2.475 4 5 C-17.78 4.505 -17.78 4.505 -40 4 C-40 3.67 -40 3.34 -40 3 C-26.8 3 -13.6 3 0 3 C0 2.01 0 1.02 0 0 Z " fill="#0340D2" transform="translate(419,89)"/>
<path d="M0 0 C-3.73901575 2.49267716 -5.73199317 2.23665805 -10.1875 2.1875 C-10.85789307 2.18105469 -11.52828613 2.17460937 -12.21899414 2.16796875 C-16.88742191 2.09558126 -21.39652425 1.75158788 -26 1 C-19.13021192 -3.57985872 -7.91665305 -0.87270191 0 0 Z " fill="#0648D1" transform="translate(571,215)"/>
<path d="M0 0 C3.82524236 1.450954 5.19090966 3.38181932 7 7 C7 7.66 7 8.32 7 9 C12.94 9 18.88 9 25 9 C25 9.33 25 9.66 25 10 C20.38 10 15.76 10 11 10 C10.67 10.66 10.34 11.32 10 12 C7.6875 11.9375 7.6875 11.9375 5 11 C3.3125 7.6875 3.3125 7.6875 2 4 C1.34711373 2.65986503 0.68774405 1.32258472 0 0 Z " fill="#0742CC" transform="translate(572,129)"/>
<path d="M0 0 C1.9375 0.8125 1.9375 0.8125 4 2 C4.33 2.99 4.66 3.98 5 5 C6.74867483 6.08431094 6.74867483 6.08431094 9 7 C9.804375 7.515625 10.60875 8.03125 11.4375 8.5625 C16.80544989 10.72851487 22.25946458 10.75300367 28 11 C28 11.33 28 11.66 28 12 C12.00403201 12.8087849 12.00403201 12.8087849 6 8 C3.78352746 5.81218874 1.77510359 3.56179723 0 1 C0 0.67 0 0.34 0 0 Z " fill="#0439BE" transform="translate(862,179)"/>
<path d="M0 0 C2.33943788 2.25279203 4.34884372 4.46198223 6.3125 7.0625 C9.4699878 10.5137076 11.65971513 11.46813475 16 13 C16 13.66 16 14.32 16 15 C11.01730506 14.54702773 7.65317705 12.24630662 4 9 C0 3.87179487 0 3.87179487 0 0 Z " fill="#053BC6" transform="translate(744,175)"/>
<path d="M0 0 C5.93777006 0.55666594 10.98378067 3.92268312 15.0625 8.125 C15.371875 8.74375 15.68125 9.3625 16 10 C15.67 10.99 15.34 11.98 15 13 C14.071875 11.700625 14.071875 11.700625 13.125 10.375 C10.04691228 6.61884079 6.2124974 4.53571023 2.01171875 2.19921875 C1.34785156 1.80347656 0.68398438 1.40773438 0 1 C0 0.67 0 0.34 0 0 Z " fill="#063CC2" transform="translate(582,109)"/>
<path d="M0 0 C1.89646998 0.11493757 3.79218332 0.24239642 5.6875 0.375 C6.74324219 0.44460937 7.79898438 0.51421875 8.88671875 0.5859375 C11.90677269 0.98760089 14.24078054 1.74069019 17 3 C17 3.33 17 3.66 17 4 C11.08507728 3.54775239 5.64800112 2.8417395 0 1 C0 0.67 0 0.34 0 0 Z " fill="#073DC5" transform="translate(554,170)"/>
<path d="M0 0 C6.51722911 0.33709806 9.32539218 1.44225737 14 6 C13.01 6.33 12.02 6.66 11 7 C9.64377755 6.03126968 8.31558703 5.02323436 7 4 C4.70068713 2.89494231 2.36765412 1.95616801 0 1 C0 0.67 0 0.34 0 0 Z " fill="#0B45D2" transform="translate(259,91)"/>
<path d="M0 0 C0.33 0 0.66 0 1 0 C1.02578125 0.80824219 1.0515625 1.61648437 1.078125 2.44921875 C1.3552224 10.58214978 1.3552224 10.58214978 6 17 C5.01 17.33 4.02 17.66 3 18 C0.22538892 15.14473162 -0.96319878 13.71344183 -1.171875 9.66796875 C-1.03265625 8.51941406 -0.8934375 7.37085938 -0.75 6.1875 C-0.62109375 5.02605469 -0.4921875 3.86460937 -0.359375 2.66796875 C-0.24078125 1.78753906 -0.1221875 0.90710938 0 0 Z " fill="#0C4FD9" transform="translate(112,197)"/>
<path d="M0 0 C-1.24695472 3.74086417 -3.19266568 5.25795253 -6 8 C-7.35555293 9.64864545 -8.69631653 11.31003995 -10 13 C-10.33 12.34 -10.66 11.68 -11 11 C-10.06558465 9.72689688 -9.12732889 8.456612 -8.1875 7.1875 C-7.66542969 6.47980469 -7.14335938 5.77210938 -6.60546875 5.04296875 C-2.64244742 0 -2.64244742 0 0 0 Z " fill="#063EC5" transform="translate(755,133)"/>
<path d="M0 0 C0.66 0.66 1.32 1.32 2 2 C1.01 4.64 0.02 7.28 -1 10 C-5 9 -5 9 -8 7 C-7.236875 6.95875 -6.47375 6.9175 -5.6875 6.875 C-2.67594887 6.22176391 -2.67594887 6.22176391 -1.1875 2.9375 C-0.795625 1.968125 -0.40375 0.99875 0 0 Z " fill="#094DD5" transform="translate(444,133)"/>
<path d="M0 0 C0.99 0.33 1.98 0.66 3 1 C3 1.66 3 2.32 3 3 C-0.34880626 5.74219867 -3.67076296 7.86153781 -8 8.3125 C-8.99 8.1578125 -8.99 8.1578125 -10 8 C-7.48780847 4.2317127 -5.10318974 3.71587935 -1 2 C-0.67 1.34 -0.34 0.68 0 0 Z " fill="#0849D5" transform="translate(245,209)"/>
<path d="M0 0 C0.99 0.66 1.98 1.32 3 2 C2.34 2 1.68 2 1 2 C1 8.27 1 14.54 1 21 C0.67 21 0.34 21 0 21 C0 14.73 0 8.46 0 2 C-0.99 1.67 -1.98 1.34 -3 1 C-2.01 0.67 -1.02 0.34 0 0 Z " fill="#022EAE" transform="translate(644,60)"/>
<path d="M0 0 C0.66 0 1.32 0 2 0 C3.18681726 3.56045177 3.09689832 6.43808337 3.0625 10.1875 C3.05347656 11.45980469 3.04445313 12.73210937 3.03515625 14.04296875 C3.02355469 15.01878906 3.01195312 15.99460938 3 17 C2.34 17 1.68 17 1 17 C0.67 11.39 0.34 5.78 0 0 Z " fill="#032EBF" transform="translate(272,129)"/>
<path d="M0 0 C-1.68313181 1.12208787 -3.38141682 2.22436284 -5.125 3.25 C-7.66740645 5.62291268 -7.69926324 7.61671141 -8 11 C-8.33 11 -8.66 11 -9 11 C-9.8125 7.75 -9.8125 7.75 -10 4 C-6.93603392 0.48545067 -4.62003406 -0.52800389 0 0 Z " fill="#0E4FD6" transform="translate(121,71)"/>
<path d="M0 0 C3.96 0.33 7.92 0.66 12 1 C12 1.66 12 2.32 12 3 C7.45194365 3.17835515 4.1205746 2.99785435 0 1 C0 0.67 0 0.34 0 0 Z " fill="#0542CA" transform="translate(559,148)"/>
<path d="M0 0 C0.66 0.33 1.32 0.66 2 1 C-0.64 3.97 -3.28 6.94 -6 10 C-6.33 9.01 -6.66 8.02 -7 7 C-4.69 4.69 -2.38 2.38 0 0 Z " fill="#0439C4" transform="translate(261,143)"/>
<path d="M0 0 C0.33 0.66 0.66 1.32 1 2 C-1.47812494 5.45167403 -2.79606135 7.23163306 -7 8 C-6.02133662 6.85373678 -5.04205413 5.70800212 -4.0625 4.5625 C-3.51722656 3.92441406 -2.97195313 3.28632813 -2.41015625 2.62890625 C-1.63204305 1.73008851 -0.84063472 0.84063472 0 0 Z " fill="#063CC4" transform="translate(475,185)"/>
<path d="M0 0 C0.33 0 0.66 0 1 0 C1.33 1.98 1.66 3.96 2 6 C2.66 6 3.32 6 4 6 C4 7.32 4 8.64 4 10 C2.68 9.67 1.36 9.34 0 9 C0 6.03 0 3.06 0 0 Z " fill="#0551E1" transform="translate(643,143)"/>
<path d="M0 0 C0.66 0 1.32 0 2 0 C2.66 1.32 3.32 2.64 4 4 C0.52176885 5.15941038 -1.45895578 4.70820884 -5 4 C-5 3.67 -5 3.34 -5 3 C-3.35 3 -1.7 3 0 3 C0 2.01 0 1.02 0 0 Z " fill="#0C3EB9" transform="translate(710,211)"/>
<path d="M0 0 C0.99 0.33 1.98 0.66 3 1 C-0.465 3.97 -0.465 3.97 -4 7 C-3.04065919 3.16263678 -2.76390737 2.40339772 0 0 Z " fill="#0643CE" transform="translate(206,180)"/>
<path d="M0 0 C0.66 0 1.32 0 2 0 C1.67 2.97 1.34 5.94 1 9 C0.34 8.67 -0.32 8.34 -1 8 C-0.67 5.36 -0.34 2.72 0 0 Z " fill="#0537CE" transform="translate(715,142)"/>
<path d="M0 0 C0.66 0.99 1.32 1.98 2 3 C1.125 6.1875 1.125 6.1875 0 9 C-0.66 9 -1.32 9 -2 9 C-1.34 6.03 -0.68 3.06 0 0 Z " fill="#0948D2" transform="translate(791,168)"/>
<path d="M0 0 C0.33 0.99 0.66 1.98 1 3 C-0.9375 6.1875 -0.9375 6.1875 -3 9 C-3.66 8.34 -4.32 7.68 -5 7 C-3.35 4.69 -1.7 2.38 0 0 Z " fill="#0645CC" transform="translate(662,127)"/>
<path d="M0 0 C1.98 0 3.96 0 6 0 C6 1.65 6 3.3 6 5 C5.34 5 4.68 5 4 5 C4 4.01 4 3.02 4 2 C2.68 2 1.36 2 0 2 C0 1.34 0 0.68 0 0 Z " fill="#073EBC" transform="translate(415,67)"/>
<path d="M0 0 C0.99 0.495 0.99 0.495 2 1 C1.67 1.99 1.34 2.98 1 4 C0.67 2.68 0.34 1.36 0 0 Z " fill="#0019FF" transform="translate(819,135)"/>
<path d="M0 0 C3 1 3 1 3 1 Z " fill="#0038F0" transform="translate(772,133)"/>
<path d="M0 0 C2 1 2 1 2 1 Z " fill="#003FFF" transform="translate(241,244)"/>
<path d="M0 0 C2 1 2 1 2 1 Z " fill="#006AD4" transform="translate(88,225)"/>
<path d="M0 0 C2 1 2 1 2 1 Z " fill="#002AFF" transform="translate(745,214)"/>
<path d="M0 0 C2 1 2 1 2 1 Z " fill="#002AFF" transform="translate(856,212)"/>
<path d="M0 0 C2 1 2 1 2 1 Z " fill="#007FFF" transform="translate(241,211)"/>
<path d="M0 0 C2 1 2 1 2 1 Z " fill="#006AFF" transform="translate(723,198)"/>
<path d="" fill="#0000FF" transform="translate(0,0)"/>
<path d="" fill="#0000FF" transform="translate(0,0)"/>
<path d="" fill="#0000FF" transform="translate(0,0)"/>
<path d="" fill="#000000" transform="translate(0,0)"/>
<path d="" fill="#00007F" transform="translate(0,0)"/>
<path d="" fill="#000000" transform="translate(0,0)"/>
<path d="" fill="#000000" transform="translate(0,0)"/>
<path d="" fill="#00007F" transform="translate(0,0)"/>
<path d="" fill="#000000" transform="translate(0,0)"/>
<path d="" fill="#000000" transform="translate(0,0)"/>
<path d="" fill="#000000" transform="translate(0,0)"/>
<path d="" fill="#0000FF" transform="translate(0,0)"/>
<path d="" fill="#000000" transform="translate(0,0)"/>
<path d="" fill="#000000" transform="translate(0,0)"/>
<path d="" fill="#000000" transform="translate(0,0)"/>
<path d="" fill="#007F7F" transform="translate(0,0)"/>
<path d="" fill="#000000" transform="translate(0,0)"/>
<path d="" fill="#0000FF" transform="translate(0,0)"/>
<path d="" fill="#0000FF" transform="translate(0,0)"/>
<path d="" fill="#0055FF" transform="translate(0,0)"/>
<path d="" fill="#0000FF" transform="translate(0,0)"/>
<path d="" fill="#007FFF" transform="translate(0,0)"/>
<path d="" fill="#0000FF" transform="translate(0,0)"/>
<path d="" fill="#0000FF" transform="translate(0,0)"/>
<path d="" fill="#0000FF" transform="translate(0,0)"/>
<path d="" fill="#0000FF" transform="translate(0,0)"/>
<path d="" fill="#0000FF" transform="translate(0,0)"/>
<path d="" fill="#0000FF" transform="translate(0,0)"/>
<path d="" fill="#007FFF" transform="translate(0,0)"/>
<path d="" fill="#0000FF" transform="translate(0,0)"/>
<path d="" fill="#0000FF" transform="translate(0,0)"/>
<path d="" fill="#007FFF" transform="translate(0,0)"/>
<path d="" fill="#0000FF" transform="translate(0,0)"/>
<path d="" fill="#0000FF" transform="translate(0,0)"/>
<path d="" fill="#0000FF" transform="translate(0,0)"/>
<path d="" fill="#0000FF" transform="translate(0,0)"/>
<path d="" fill="#0000FF" transform="translate(0,0)"/>
<path d="" fill="#0055FF" transform="translate(0,0)"/>
<path d="" fill="#007FFF" transform="translate(0,0)"/>
<path d="" fill="#0000FF" transform="translate(0,0)"/>
<path d="" fill="#0000FF" transform="translate(0,0)"/>
<path d="" fill="#007FFF" transform="translate(0,0)"/>
<path d="" fill="#007FFF" transform="translate(0,0)"/>
<path d="" fill="#0000FF" transform="translate(0,0)"/>
<path d="" fill="#007FFF" transform="translate(0,0)"/>
<path d="" fill="#0055FF" transform="translate(0,0)"/>
<path d="" fill="#007FFF" transform="translate(0,0)"/>
<path d="" fill="#0000FF" transform="translate(0,0)"/>
<path d="" fill="#0000FF" transform="translate(0,0)"/>
<path d="" fill="#007FFF" transform="translate(0,0)"/>
<path d="" fill="#0000FF" transform="translate(0,0)"/>
<path d="" fill="#0000FF" transform="translate(0,0)"/>
<path d="" fill="#007FFF" transform="translate(0,0)"/>
<path d="" fill="#007FFF" transform="translate(0,0)"/>
<path d="" fill="#007FFF" transform="translate(0,0)"/>
<path d="" fill="#007FFF" transform="translate(0,0)"/>
<path d="" fill="#0000FF" transform="translate(0,0)"/>
<path d="" fill="#0000FF" transform="translate(0,0)"/>
<path d="" fill="#0055FF" transform="translate(0,0)"/>
<path d="" fill="#0000FF" transform="translate(0,0)"/>
<path d="" fill="#0000FF" transform="translate(0,0)"/>
<path d="" fill="#0000FF" transform="translate(0,0)"/>
<path d="" fill="#0000FF" transform="translate(0,0)"/>
<path d="" fill="#007FFF" transform="translate(0,0)"/>
<path d="" fill="#007FFF" transform="translate(0,0)"/>
<path d="" fill="#0000FF" transform="translate(0,0)"/>
<path d="" fill="#0000FF" transform="translate(0,0)"/>
<path d="" fill="#0055FF" transform="translate(0,0)"/>
<path d="" fill="#0000FF" transform="translate(0,0)"/>
<path d="" fill="#0000FF" transform="translate(0,0)"/>
<path d="" fill="#0000FF" transform="translate(0,0)"/>
<path d="" fill="#0000FF" transform="translate(0,0)"/>
<path d="" fill="#0000FF" transform="translate(0,0)"/>
<path d="" fill="#0000FF" transform="translate(0,0)"/>
<path d="" fill="#0000FF" transform="translate(0,0)"/>
<path d="" fill="#0000FF" transform="translate(0,0)"/>
<path d="" fill="#0000FF" transform="translate(0,0)"/>
<path d="" fill="#0000FF" transform="translate(0,0)"/>
<path d="" fill="#0000FF" transform="translate(0,0)"/>
<path d="" fill="#007FFF" transform="translate(0,0)"/>
<path d="" fill="#0000FF" transform="translate(0,0)"/>
<path d="" fill="#0000FF" transform="translate(0,0)"/>
<path d="" fill="#0000FF" transform="translate(0,0)"/>
<path d="" fill="#0000FF" transform="translate(0,0)"/>
<path d="" fill="#0000FF" transform="translate(0,0)"/>
<path d="" fill="#007FFF" transform="translate(0,0)"/>
<path d="" fill="#0000FF" transform="translate(0,0)"/>
<path d="" fill="#0000FF" transform="translate(0,0)"/>
<path d="" fill="#0055FF" transform="translate(0,0)"/>
<path d="" fill="#0055FF" transform="translate(0,0)"/>
<path d="" fill="#0000FF" transform="translate(0,0)"/>
<path d="" fill="#007FFF" transform="translate(0,0)"/>
<path d="" fill="#0000FF" transform="translate(0,0)"/>
<path d="" fill="#0000FF" transform="translate(0,0)"/>
<path d="" fill="#0000FF" transform="translate(0,0)"/>
<path d="" fill="#0000FF" transform="translate(0,0)"/>
<path d="" fill="#007FFF" transform="translate(0,0)"/>
<path d="" fill="#0000FF" transform="translate(0,0)"/>
<path d="" fill="#0000FF" transform="translate(0,0)"/>
<path d="" fill="#0000FF" transform="translate(0,0)"/>
<path d="" fill="#0000FF" transform="translate(0,0)"/>
<path d="" fill="#0000FF" transform="translate(0,0)"/>
<path d="" fill="#0000FF" transform="translate(0,0)"/>
<path d="" fill="#0000FF" transform="translate(0,0)"/>
<path d="" fill="#0000FF" transform="translate(0,0)"/>
<path d="" fill="#0000FF" transform="translate(0,0)"/>
<path d="" fill="#0000FF" transform="translate(0,0)"/>
<path d="" fill="#0000FF" transform="translate(0,0)"/>
<path d="" fill="#0000FF" transform="translate(0,0)"/>
<path d="" fill="#007FFF" transform="translate(0,0)"/>
<path d="" fill="#0055FF" transform="translate(0,0)"/>
<path d="" fill="#0055FF" transform="translate(0,0)"/>
<path d="" fill="#0000FF" transform="translate(0,0)"/>
<path d="" fill="#0000FF" transform="translate(0,0)"/>
<path d="" fill="#0000FF" transform="translate(0,0)"/>
<path d="" fill="#0055FF" transform="translate(0,0)"/>
<path d="" fill="#0000FF" transform="translate(0,0)"/>
<path d="" fill="#0000FF" transform="translate(0,0)"/>
<path d="" fill="#0000FF" transform="translate(0,0)"/>
<path d="" fill="#0000FF" transform="translate(0,0)"/>
<path d="" fill="#0000FF" transform="translate(0,0)"/>
<path d="" fill="#0000FF" transform="translate(0,0)"/>
<path d="" fill="#007FFF" transform="translate(0,0)"/>
<path d="" fill="#0000FF" transform="translate(0,0)"/>
<path d="" fill="#0055FF" transform="translate(0,0)"/>
<path d="" fill="#0000FF" transform="translate(0,0)"/>
<path d="" fill="#007FFF" transform="translate(0,0)"/>
<path d="" fill="#0000FF" transform="translate(0,0)"/>
<path d="" fill="#0000FF" transform="translate(0,0)"/>
<path d="" fill="#0000FF" transform="translate(0,0)"/>
<path d="" fill="#0000FF" transform="translate(0,0)"/>
<path d="" fill="#0000FF" transform="translate(0,0)"/>
<path d="" fill="#2A55D4" transform="translate(0,0)"/>
<path d="" fill="#0000FF" transform="translate(0,0)"/>
<path d="" fill="#003FBF" transform="translate(0,0)"/>
<path d="" fill="#0000FF" transform="translate(0,0)"/>
<path d="" fill="#000000" transform="translate(0,0)"/>
<path d="" fill="#0000FF" transform="translate(0,0)"/>
<path d="" fill="#000000" transform="translate(0,0)"/>
<path d="" fill="#0000FF" transform="translate(0,0)"/>
<path d="" fill="#0000FF" transform="translate(0,0)"/>
<path d="" fill="#007FFF" transform="translate(0,0)"/>
<path d="" fill="#007FFF" transform="translate(0,0)"/>
<path d="" fill="#0000FF" transform="translate(0,0)"/>
<path d="" fill="#000000" transform="translate(0,0)"/>
<path d="" fill="#000000" transform="translate(0,0)"/>
<path d="" fill="#000000" transform="translate(0,0)"/>
<path d="" fill="#000000" transform="translate(0,0)"/>
<path d="" fill="#000000" transform="translate(0,0)"/>
<path d="" fill="#0000FF" transform="translate(0,0)"/>
<path d="" fill="#000000" transform="translate(0,0)"/>
<path d="" fill="#000000" transform="translate(0,0)"/>
<path d="" fill="#0000FF" transform="translate(0,0)"/>
<path d="" fill="#000000" transform="translate(0,0)"/>
<path d="" fill="#000000" transform="translate(0,0)"/>
<path d="" fill="#007F7F" transform="translate(0,0)"/>
<path d="" fill="#000000" transform="translate(0,0)"/>
<path d="" fill="#000000" transform="translate(0,0)"/>
<path d="" fill="#000000" transform="translate(0,0)"/>
<path d="" fill="#000000" transform="translate(0,0)"/>
</svg>
